%TF.GenerationSoftware,KiCad,Pcbnew,(6.0.6)*%
%TF.CreationDate,2023-03-13T22:40:33-07:00*%
%TF.ProjectId,k7000,6b373030-302e-46b6-9963-61645f706362,rev?*%
%TF.SameCoordinates,Original*%
%TF.FileFunction,Legend,Bot*%
%TF.FilePolarity,Positive*%
%FSLAX46Y46*%
G04 Gerber Fmt 4.6, Leading zero omitted, Abs format (unit mm)*
G04 Created by KiCad (PCBNEW (6.0.6)) date 2023-03-13 22:40:33*
%MOMM*%
%LPD*%
G01*
G04 APERTURE LIST*
%ADD10C,0.150000*%
%ADD11C,0.120000*%
G04 APERTURE END LIST*
D10*
%TO.C,RV6*%
X123879238Y-65461380D02*
X124212571Y-64985190D01*
X124450666Y-65461380D02*
X124450666Y-64461380D01*
X124069714Y-64461380D01*
X123974476Y-64509000D01*
X123926857Y-64556619D01*
X123879238Y-64651857D01*
X123879238Y-64794714D01*
X123926857Y-64889952D01*
X123974476Y-64937571D01*
X124069714Y-64985190D01*
X124450666Y-64985190D01*
X123593523Y-64461380D02*
X123260190Y-65461380D01*
X122926857Y-64461380D01*
X122164952Y-64461380D02*
X122355428Y-64461380D01*
X122450666Y-64509000D01*
X122498285Y-64556619D01*
X122593523Y-64699476D01*
X122641142Y-64889952D01*
X122641142Y-65270904D01*
X122593523Y-65366142D01*
X122545904Y-65413761D01*
X122450666Y-65461380D01*
X122260190Y-65461380D01*
X122164952Y-65413761D01*
X122117333Y-65366142D01*
X122069714Y-65270904D01*
X122069714Y-65032809D01*
X122117333Y-64937571D01*
X122164952Y-64889952D01*
X122260190Y-64842333D01*
X122450666Y-64842333D01*
X122545904Y-64889952D01*
X122593523Y-64937571D01*
X122641142Y-65032809D01*
%TO.C,RV5*%
X123879238Y-50221380D02*
X124212571Y-49745190D01*
X124450666Y-50221380D02*
X124450666Y-49221380D01*
X124069714Y-49221380D01*
X123974476Y-49269000D01*
X123926857Y-49316619D01*
X123879238Y-49411857D01*
X123879238Y-49554714D01*
X123926857Y-49649952D01*
X123974476Y-49697571D01*
X124069714Y-49745190D01*
X124450666Y-49745190D01*
X123593523Y-49221380D02*
X123260190Y-50221380D01*
X122926857Y-49221380D01*
X122117333Y-49221380D02*
X122593523Y-49221380D01*
X122641142Y-49697571D01*
X122593523Y-49649952D01*
X122498285Y-49602333D01*
X122260190Y-49602333D01*
X122164952Y-49649952D01*
X122117333Y-49697571D01*
X122069714Y-49792809D01*
X122069714Y-50030904D01*
X122117333Y-50126142D01*
X122164952Y-50173761D01*
X122260190Y-50221380D01*
X122498285Y-50221380D01*
X122593523Y-50173761D01*
X122641142Y-50126142D01*
%TO.C,RV4*%
X106099238Y-65461380D02*
X106432571Y-64985190D01*
X106670666Y-65461380D02*
X106670666Y-64461380D01*
X106289714Y-64461380D01*
X106194476Y-64509000D01*
X106146857Y-64556619D01*
X106099238Y-64651857D01*
X106099238Y-64794714D01*
X106146857Y-64889952D01*
X106194476Y-64937571D01*
X106289714Y-64985190D01*
X106670666Y-64985190D01*
X105813523Y-64461380D02*
X105480190Y-65461380D01*
X105146857Y-64461380D01*
X104384952Y-64794714D02*
X104384952Y-65461380D01*
X104623047Y-64413761D02*
X104861142Y-65128047D01*
X104242095Y-65128047D01*
%TO.C,RV3*%
X106099238Y-50221380D02*
X106432571Y-49745190D01*
X106670666Y-50221380D02*
X106670666Y-49221380D01*
X106289714Y-49221380D01*
X106194476Y-49269000D01*
X106146857Y-49316619D01*
X106099238Y-49411857D01*
X106099238Y-49554714D01*
X106146857Y-49649952D01*
X106194476Y-49697571D01*
X106289714Y-49745190D01*
X106670666Y-49745190D01*
X105813523Y-49221380D02*
X105480190Y-50221380D01*
X105146857Y-49221380D01*
X104908761Y-49221380D02*
X104289714Y-49221380D01*
X104623047Y-49602333D01*
X104480190Y-49602333D01*
X104384952Y-49649952D01*
X104337333Y-49697571D01*
X104289714Y-49792809D01*
X104289714Y-50030904D01*
X104337333Y-50126142D01*
X104384952Y-50173761D01*
X104480190Y-50221380D01*
X104765904Y-50221380D01*
X104861142Y-50173761D01*
X104908761Y-50126142D01*
%TO.C,RV2*%
X88319238Y-65461380D02*
X88652571Y-64985190D01*
X88890666Y-65461380D02*
X88890666Y-64461380D01*
X88509714Y-64461380D01*
X88414476Y-64509000D01*
X88366857Y-64556619D01*
X88319238Y-64651857D01*
X88319238Y-64794714D01*
X88366857Y-64889952D01*
X88414476Y-64937571D01*
X88509714Y-64985190D01*
X88890666Y-64985190D01*
X88033523Y-64461380D02*
X87700190Y-65461380D01*
X87366857Y-64461380D01*
X87081142Y-64556619D02*
X87033523Y-64509000D01*
X86938285Y-64461380D01*
X86700190Y-64461380D01*
X86604952Y-64509000D01*
X86557333Y-64556619D01*
X86509714Y-64651857D01*
X86509714Y-64747095D01*
X86557333Y-64889952D01*
X87128761Y-65461380D01*
X86509714Y-65461380D01*
%TO.C,RV1*%
X88319238Y-50221380D02*
X88652571Y-49745190D01*
X88890666Y-50221380D02*
X88890666Y-49221380D01*
X88509714Y-49221380D01*
X88414476Y-49269000D01*
X88366857Y-49316619D01*
X88319238Y-49411857D01*
X88319238Y-49554714D01*
X88366857Y-49649952D01*
X88414476Y-49697571D01*
X88509714Y-49745190D01*
X88890666Y-49745190D01*
X88033523Y-49221380D02*
X87700190Y-50221380D01*
X87366857Y-49221380D01*
X86509714Y-50221380D02*
X87081142Y-50221380D01*
X86795428Y-50221380D02*
X86795428Y-49221380D01*
X86890666Y-49364238D01*
X86985904Y-49459476D01*
X87081142Y-49507095D01*
%TO.C,J1*%
X105757333Y-50716380D02*
X105757333Y-51430666D01*
X105804952Y-51573523D01*
X105900190Y-51668761D01*
X106043047Y-51716380D01*
X106138285Y-51716380D01*
X104757333Y-51716380D02*
X105328761Y-51716380D01*
X105043047Y-51716380D02*
X105043047Y-50716380D01*
X105138285Y-50859238D01*
X105233523Y-50954476D01*
X105328761Y-51002095D01*
D11*
%TO.C,RV6*%
X128398391Y-72683881D02*
G75*
G03*
X128458000Y-70403000I-5114391J1274881D01*
G01*
X123191970Y-76678357D02*
G75*
G03*
X127075000Y-75070000I92030J5269357D01*
G01*
X127320622Y-68020526D02*
G75*
G03*
X118170000Y-70135000I-4036622J-3388474D01*
G01*
X118244274Y-72949799D02*
G75*
G03*
X123284000Y-76679000I5039726J1540799D01*
G01*
%TO.C,RV5*%
X128398391Y-57443881D02*
G75*
G03*
X128458000Y-55163000I-5114391J1274881D01*
G01*
X123191970Y-61438357D02*
G75*
G03*
X127075000Y-59830000I92030J5269357D01*
G01*
X127320622Y-52780526D02*
G75*
G03*
X118170000Y-54895000I-4036622J-3388474D01*
G01*
X118244274Y-57709799D02*
G75*
G03*
X123284000Y-61439000I5039726J1540799D01*
G01*
%TO.C,RV4*%
X110618391Y-72683881D02*
G75*
G03*
X110678000Y-70403000I-5114391J1274881D01*
G01*
X105411970Y-76678357D02*
G75*
G03*
X109295000Y-75070000I92030J5269357D01*
G01*
X109540622Y-68020526D02*
G75*
G03*
X100390000Y-70135000I-4036622J-3388474D01*
G01*
X100464274Y-72949799D02*
G75*
G03*
X105504000Y-76679000I5039726J1540799D01*
G01*
%TO.C,RV3*%
X110618391Y-57443881D02*
G75*
G03*
X110678000Y-55163000I-5114391J1274881D01*
G01*
X105411970Y-61438357D02*
G75*
G03*
X109295000Y-59830000I92030J5269357D01*
G01*
X109540622Y-52780526D02*
G75*
G03*
X100390000Y-54895000I-4036622J-3388474D01*
G01*
X100464274Y-57709799D02*
G75*
G03*
X105504000Y-61439000I5039726J1540799D01*
G01*
%TO.C,RV2*%
X92838391Y-72683881D02*
G75*
G03*
X92898000Y-70403000I-5114391J1274881D01*
G01*
X87631970Y-76678357D02*
G75*
G03*
X91515000Y-75070000I92030J5269357D01*
G01*
X91760622Y-68020526D02*
G75*
G03*
X82610000Y-70135000I-4036622J-3388474D01*
G01*
X82684274Y-72949799D02*
G75*
G03*
X87724000Y-76679000I5039726J1540799D01*
G01*
%TO.C,RV1*%
X92838391Y-57443881D02*
G75*
G03*
X92898000Y-55163000I-5114391J1274881D01*
G01*
X87631970Y-61438357D02*
G75*
G03*
X91515000Y-59830000I92030J5269357D01*
G01*
X91760622Y-52780526D02*
G75*
G03*
X82610000Y-54895000I-4036622J-3388474D01*
G01*
X82684274Y-57709799D02*
G75*
G03*
X87724000Y-61439000I5039726J1540799D01*
G01*
%TO.C,J1*%
X90674000Y-39064000D02*
X90674000Y-44564000D01*
X110174000Y-44564000D02*
X110174000Y-39064000D01*
X98174000Y-39064000D02*
X98174000Y-44564000D01*
X108174000Y-44564000D02*
X107674000Y-44564000D01*
X87864000Y-38454000D02*
X87864000Y-50174000D01*
X105424000Y-38454000D02*
X87864000Y-38454000D01*
X120174000Y-44564000D02*
X120174000Y-39064000D01*
X110674000Y-44564000D02*
X110174000Y-44564000D01*
X105674000Y-44564000D02*
X105174000Y-44564000D01*
X120174000Y-39064000D02*
X120674000Y-39064000D01*
X105174000Y-39064000D02*
X105674000Y-39064000D01*
X90174000Y-44564000D02*
X90174000Y-39064000D01*
X102674000Y-44564000D02*
X102674000Y-39064000D01*
X110674000Y-39064000D02*
X110674000Y-44564000D01*
X105174000Y-44564000D02*
X105174000Y-39064000D01*
X95174000Y-44564000D02*
X95174000Y-39064000D01*
X113174000Y-44564000D02*
X112674000Y-44564000D01*
X115674000Y-44564000D02*
X115174000Y-44564000D01*
X110174000Y-39064000D02*
X110674000Y-39064000D01*
X95674000Y-44564000D02*
X95174000Y-44564000D01*
X117674000Y-39064000D02*
X118174000Y-39064000D01*
X107674000Y-44564000D02*
X107674000Y-39064000D01*
X93174000Y-44564000D02*
X92674000Y-44564000D01*
X122984000Y-50174000D02*
X121564000Y-50174000D01*
X118174000Y-44564000D02*
X117674000Y-44564000D01*
X112674000Y-44564000D02*
X112674000Y-39064000D01*
X95674000Y-39064000D02*
X95674000Y-44564000D01*
X105424000Y-38454000D02*
X122984000Y-38454000D01*
X92674000Y-44564000D02*
X92674000Y-39064000D01*
X97674000Y-44564000D02*
X97674000Y-39064000D01*
X108174000Y-39064000D02*
X108174000Y-44564000D01*
X95174000Y-39064000D02*
X95674000Y-39064000D01*
X120674000Y-44564000D02*
X120174000Y-44564000D01*
X90724000Y-48264000D02*
X90424000Y-47664000D01*
X97674000Y-39064000D02*
X98174000Y-39064000D01*
X117674000Y-44564000D02*
X117674000Y-39064000D01*
X102674000Y-39064000D02*
X103174000Y-39064000D01*
X122984000Y-38454000D02*
X122984000Y-50174000D01*
X90174000Y-39064000D02*
X90674000Y-39064000D01*
X92674000Y-39064000D02*
X93174000Y-39064000D01*
X120674000Y-39064000D02*
X120674000Y-44564000D01*
X87864000Y-50174000D02*
X89284000Y-50174000D01*
X93174000Y-39064000D02*
X93174000Y-44564000D01*
X98174000Y-44564000D02*
X97674000Y-44564000D01*
X100674000Y-44564000D02*
X100174000Y-44564000D01*
X115174000Y-39064000D02*
X115674000Y-39064000D01*
X90674000Y-44564000D02*
X90174000Y-44564000D01*
X115174000Y-44564000D02*
X115174000Y-39064000D01*
X107674000Y-39064000D02*
X108174000Y-39064000D01*
X89284000Y-50174000D02*
X89284000Y-45674000D01*
X105674000Y-39064000D02*
X105674000Y-44564000D01*
X90424000Y-47664000D02*
X90124000Y-48264000D01*
X118174000Y-39064000D02*
X118174000Y-44564000D01*
X103174000Y-39064000D02*
X103174000Y-44564000D01*
X100174000Y-39064000D02*
X100674000Y-39064000D01*
X90124000Y-48264000D02*
X90724000Y-48264000D01*
X100674000Y-39064000D02*
X100674000Y-44564000D01*
X113174000Y-39064000D02*
X113174000Y-44564000D01*
X115674000Y-39064000D02*
X115674000Y-44564000D01*
X112674000Y-39064000D02*
X113174000Y-39064000D01*
X121564000Y-50174000D02*
X121564000Y-45674000D01*
X100174000Y-44564000D02*
X100174000Y-39064000D01*
X103174000Y-44564000D02*
X102674000Y-44564000D01*
%TD*%
M02*
