M48
; DRILL file {KiCad (6.0.6)} date Tue Mar 14 01:25:31 2023
; FORMAT={-:-/ absolute / inch / decimal}
; #@! TF.CreationDate,2023-03-14T01:25:31-07:00
; #@! TF.GenerationSoftware,Kicad,Pcbnew,(6.0.6)
; #@! TF.FileFunction,Plated,1,2,PTH
FMAT,2
INCH
; #@! TA.AperFunction,Plated,PTH,ComponentDrill
T1C0.0374
; #@! TA.AperFunction,Plated,PTH,ComponentDrill
T2C0.0512
%
G90
G05
T1
X3.56Y-1.8175
X3.6584Y-1.8175
X3.7569Y-1.8175
X3.8553Y-1.8175
X3.9537Y-1.8175
X4.0521Y-1.8175
X4.1506Y-1.8175
X4.249Y-1.8175
X4.3474Y-1.8175
X4.4458Y-1.8175
X4.5443Y-1.8175
X4.6427Y-1.8175
X4.7411Y-1.8175
T2
X3.2569Y-2.2173
X3.2569Y-2.8173
X3.6506Y-2.1189
X3.6506Y-2.3157
X3.6506Y-2.7189
X3.6506Y-2.9157
X3.9569Y-2.2173
X3.9569Y-2.8173
X4.3506Y-2.1189
X4.3506Y-2.3157
X4.3506Y-2.7189
X4.3506Y-2.9157
X4.6569Y-2.2173
X4.6569Y-2.8173
X5.0506Y-2.1189
X5.0506Y-2.3157
X5.0506Y-2.7189
X5.0506Y-2.9157
T0
M30
