%TF.GenerationSoftware,KiCad,Pcbnew,(6.0.6)*%
%TF.CreationDate,2023-03-13T22:40:33-07:00*%
%TF.ProjectId,k7000,6b373030-302e-46b6-9963-61645f706362,rev?*%
%TF.SameCoordinates,Original*%
%TF.FileFunction,Copper,L2,Bot*%
%TF.FilePolarity,Positive*%
%FSLAX46Y46*%
G04 Gerber Fmt 4.6, Leading zero omitted, Abs format (unit mm)*
G04 Created by KiCad (PCBNEW (6.0.6)) date 2023-03-13 22:40:33*
%MOMM*%
%LPD*%
G01*
G04 APERTURE LIST*
G04 Aperture macros list*
%AMRoundRect*
0 Rectangle with rounded corners*
0 $1 Rounding radius*
0 $2 $3 $4 $5 $6 $7 $8 $9 X,Y pos of 4 corners*
0 Add a 4 corners polygon primitive as box body*
4,1,4,$2,$3,$4,$5,$6,$7,$8,$9,$2,$3,0*
0 Add four circle primitives for the rounded corners*
1,1,$1+$1,$2,$3*
1,1,$1+$1,$4,$5*
1,1,$1+$1,$6,$7*
1,1,$1+$1,$8,$9*
0 Add four rect primitives between the rounded corners*
20,1,$1+$1,$2,$3,$4,$5,0*
20,1,$1+$1,$4,$5,$6,$7,0*
20,1,$1+$1,$6,$7,$8,$9,0*
20,1,$1+$1,$8,$9,$2,$3,0*%
G04 Aperture macros list end*
%ADD10C,0.300000*%
%TA.AperFunction,NonConductor*%
%ADD11C,0.300000*%
%TD*%
%TA.AperFunction,ComponentPad*%
%ADD12C,2.340000*%
%TD*%
%TA.AperFunction,ComponentPad*%
%ADD13O,1.700000X1.950000*%
%TD*%
%TA.AperFunction,ComponentPad*%
%ADD14RoundRect,0.250000X-0.600000X-0.725000X0.600000X-0.725000X0.600000X0.725000X-0.600000X0.725000X0*%
%TD*%
%TA.AperFunction,Conductor*%
%ADD15C,0.250000*%
%TD*%
G04 APERTURE END LIST*
D10*
D11*
X92130000Y-80958571D02*
X91772857Y-81958571D01*
X91415714Y-80958571D01*
X90058571Y-81958571D02*
X90915714Y-81958571D01*
X90487142Y-81958571D02*
X90487142Y-80458571D01*
X90630000Y-80672857D01*
X90772857Y-80815714D01*
X90915714Y-80887142D01*
X88344285Y-80601428D02*
X88272857Y-80530000D01*
X88130000Y-80458571D01*
X87772857Y-80458571D01*
X87630000Y-80530000D01*
X87558571Y-80601428D01*
X87487142Y-80744285D01*
X87487142Y-80887142D01*
X87558571Y-81101428D01*
X88415714Y-81958571D01*
X87487142Y-81958571D01*
X86558571Y-80458571D02*
X86415714Y-80458571D01*
X86272857Y-80530000D01*
X86201428Y-80601428D01*
X86130000Y-80744285D01*
X86058571Y-81030000D01*
X86058571Y-81387142D01*
X86130000Y-81672857D01*
X86201428Y-81815714D01*
X86272857Y-81887142D01*
X86415714Y-81958571D01*
X86558571Y-81958571D01*
X86701428Y-81887142D01*
X86772857Y-81815714D01*
X86844285Y-81672857D01*
X86915714Y-81387142D01*
X86915714Y-81030000D01*
X86844285Y-80744285D01*
X86772857Y-80601428D01*
X86701428Y-80530000D01*
X86558571Y-80458571D01*
X85487142Y-80601428D02*
X85415714Y-80530000D01*
X85272857Y-80458571D01*
X84915714Y-80458571D01*
X84772857Y-80530000D01*
X84701428Y-80601428D01*
X84630000Y-80744285D01*
X84630000Y-80887142D01*
X84701428Y-81101428D01*
X85558571Y-81958571D01*
X84630000Y-81958571D01*
X84130000Y-80458571D02*
X83201428Y-80458571D01*
X83701428Y-81030000D01*
X83487142Y-81030000D01*
X83344285Y-81101428D01*
X83272857Y-81172857D01*
X83201428Y-81315714D01*
X83201428Y-81672857D01*
X83272857Y-81815714D01*
X83344285Y-81887142D01*
X83487142Y-81958571D01*
X83915714Y-81958571D01*
X84058571Y-81887142D01*
X84130000Y-81815714D01*
D10*
D11*
X92216857Y-77918571D02*
X91859714Y-79418571D01*
X91574000Y-78347142D01*
X91288285Y-79418571D01*
X90931142Y-77918571D01*
X90359714Y-79418571D02*
X90359714Y-78418571D01*
X90359714Y-78704285D02*
X90288285Y-78561428D01*
X90216857Y-78490000D01*
X90074000Y-78418571D01*
X89931142Y-78418571D01*
X88859714Y-79347142D02*
X89002571Y-79418571D01*
X89288285Y-79418571D01*
X89431142Y-79347142D01*
X89502571Y-79204285D01*
X89502571Y-78632857D01*
X89431142Y-78490000D01*
X89288285Y-78418571D01*
X89002571Y-78418571D01*
X88859714Y-78490000D01*
X88788285Y-78632857D01*
X88788285Y-78775714D01*
X89502571Y-78918571D01*
X88145428Y-78418571D02*
X88145428Y-79418571D01*
X88145428Y-78561428D02*
X88074000Y-78490000D01*
X87931142Y-78418571D01*
X87716857Y-78418571D01*
X87574000Y-78490000D01*
X87502571Y-78632857D01*
X87502571Y-79418571D01*
X85716857Y-79347142D02*
X85502571Y-79418571D01*
X85145428Y-79418571D01*
X85002571Y-79347142D01*
X84931142Y-79275714D01*
X84859714Y-79132857D01*
X84859714Y-78990000D01*
X84931142Y-78847142D01*
X85002571Y-78775714D01*
X85145428Y-78704285D01*
X85431142Y-78632857D01*
X85574000Y-78561428D01*
X85645428Y-78490000D01*
X85716857Y-78347142D01*
X85716857Y-78204285D01*
X85645428Y-78061428D01*
X85574000Y-77990000D01*
X85431142Y-77918571D01*
X85074000Y-77918571D01*
X84859714Y-77990000D01*
X84002571Y-79418571D02*
X84145428Y-79347142D01*
X84216857Y-79275714D01*
X84288285Y-79132857D01*
X84288285Y-78704285D01*
X84216857Y-78561428D01*
X84145428Y-78490000D01*
X84002571Y-78418571D01*
X83788285Y-78418571D01*
X83645428Y-78490000D01*
X83574000Y-78561428D01*
X83502571Y-78704285D01*
X83502571Y-79132857D01*
X83574000Y-79275714D01*
X83645428Y-79347142D01*
X83788285Y-79418571D01*
X84002571Y-79418571D01*
X82859714Y-79418571D02*
X82859714Y-78418571D01*
X82859714Y-78704285D02*
X82788285Y-78561428D01*
X82716857Y-78490000D01*
X82574000Y-78418571D01*
X82431142Y-78418571D01*
X81359714Y-79347142D02*
X81502571Y-79418571D01*
X81788285Y-79418571D01*
X81931142Y-79347142D01*
X82002571Y-79204285D01*
X82002571Y-78632857D01*
X81931142Y-78490000D01*
X81788285Y-78418571D01*
X81502571Y-78418571D01*
X81359714Y-78490000D01*
X81288285Y-78632857D01*
X81288285Y-78775714D01*
X82002571Y-78918571D01*
X80645428Y-78418571D02*
X80645428Y-79418571D01*
X80645428Y-78561428D02*
X80574000Y-78490000D01*
X80431142Y-78418571D01*
X80216857Y-78418571D01*
X80074000Y-78490000D01*
X80002571Y-78632857D01*
X80002571Y-79418571D01*
X79359714Y-79347142D02*
X79216857Y-79418571D01*
X78931142Y-79418571D01*
X78788285Y-79347142D01*
X78716857Y-79204285D01*
X78716857Y-79132857D01*
X78788285Y-78990000D01*
X78931142Y-78918571D01*
X79145428Y-78918571D01*
X79288285Y-78847142D01*
X79359714Y-78704285D01*
X79359714Y-78632857D01*
X79288285Y-78490000D01*
X79145428Y-78418571D01*
X78931142Y-78418571D01*
X78788285Y-78490000D01*
X77859714Y-79418571D02*
X78002571Y-79347142D01*
X78074000Y-79275714D01*
X78145428Y-79132857D01*
X78145428Y-78704285D01*
X78074000Y-78561428D01*
X78002571Y-78490000D01*
X77859714Y-78418571D01*
X77645428Y-78418571D01*
X77502571Y-78490000D01*
X77431142Y-78561428D01*
X77359714Y-78704285D01*
X77359714Y-79132857D01*
X77431142Y-79275714D01*
X77502571Y-79347142D01*
X77645428Y-79418571D01*
X77859714Y-79418571D01*
X76716857Y-78418571D02*
X76716857Y-79418571D01*
X76716857Y-78561428D02*
X76645428Y-78490000D01*
X76502571Y-78418571D01*
X76288285Y-78418571D01*
X76145428Y-78490000D01*
X76074000Y-78632857D01*
X76074000Y-79418571D01*
D12*
%TO.P,RV6,3,3*%
%TO.N,Net-(RV2-Pad1)*%
X128284000Y-69059000D03*
%TO.P,RV6,2,2*%
X118284000Y-71559000D03*
%TO.P,RV6,1,1*%
%TO.N,Net-(RV6-Pad1)*%
X128284000Y-74059000D03*
%TD*%
%TO.P,RV5,3,3*%
%TO.N,Net-(RV5-Pad3)*%
X128284000Y-53819000D03*
%TO.P,RV5,2,2*%
%TO.N,Net-(RV5-Pad2)*%
X118284000Y-56319000D03*
%TO.P,RV5,1,1*%
%TO.N,Net-(RV2-Pad1)*%
X128284000Y-58819000D03*
%TD*%
%TO.P,RV4,3,3*%
%TO.N,Net-(RV4-Pad2)*%
X110504000Y-69059000D03*
%TO.P,RV4,2,2*%
X100504000Y-71559000D03*
%TO.P,RV4,1,1*%
%TO.N,Net-(RV4-Pad1)*%
X110504000Y-74059000D03*
%TD*%
%TO.P,RV3,3,3*%
%TO.N,Net-(RV2-Pad1)*%
X110504000Y-53819000D03*
%TO.P,RV3,2,2*%
%TO.N,Net-(RV3-Pad2)*%
X100504000Y-56319000D03*
%TO.P,RV3,1,1*%
%TO.N,Net-(RV3-Pad1)*%
X110504000Y-58819000D03*
%TD*%
%TO.P,RV2,3,3*%
%TO.N,Net-(RV2-Pad3)*%
X92724000Y-69059000D03*
%TO.P,RV2,2,2*%
%TO.N,Net-(RV2-Pad2)*%
X82724000Y-71559000D03*
%TO.P,RV2,1,1*%
%TO.N,Net-(RV2-Pad1)*%
X92724000Y-74059000D03*
%TD*%
%TO.P,RV1,3,3*%
%TO.N,Net-(RV1-Pad3)*%
X92724000Y-53819000D03*
%TO.P,RV1,2,2*%
%TO.N,Net-(RV1-Pad2)*%
X82724000Y-56319000D03*
%TO.P,RV1,1,1*%
%TO.N,Net-(RV1-Pad1)*%
X92724000Y-58819000D03*
%TD*%
D13*
%TO.P,J1,13,Pin_13*%
%TO.N,Net-(RV6-Pad1)*%
X120424000Y-46164000D03*
%TO.P,J1,12,Pin_12*%
%TO.N,Net-(RV2-Pad1)*%
X117924000Y-46164000D03*
%TO.P,J1,11,Pin_11*%
%TO.N,Net-(RV4-Pad1)*%
X115424000Y-46164000D03*
%TO.P,J1,10,Pin_10*%
%TO.N,Net-(RV4-Pad2)*%
X112924000Y-46164000D03*
%TO.P,J1,9,Pin_9*%
%TO.N,Net-(RV2-Pad2)*%
X110424000Y-46164000D03*
%TO.P,J1,8,Pin_8*%
%TO.N,Net-(RV2-Pad3)*%
X107924000Y-46164000D03*
%TO.P,J1,7,Pin_7*%
%TO.N,Net-(RV5-Pad2)*%
X105424000Y-46164000D03*
%TO.P,J1,6,Pin_6*%
%TO.N,Net-(RV5-Pad3)*%
X102924000Y-46164000D03*
%TO.P,J1,5,Pin_5*%
%TO.N,Net-(RV3-Pad2)*%
X100424000Y-46164000D03*
%TO.P,J1,4,Pin_4*%
%TO.N,Net-(RV3-Pad1)*%
X97924000Y-46164000D03*
%TO.P,J1,3,Pin_3*%
%TO.N,Net-(RV1-Pad1)*%
X95424000Y-46164000D03*
%TO.P,J1,2,Pin_2*%
%TO.N,Net-(RV1-Pad2)*%
X92924000Y-46164000D03*
D14*
%TO.P,J1,1,Pin_1*%
%TO.N,Net-(RV1-Pad3)*%
X90424000Y-46164000D03*
%TD*%
D15*
%TO.N,Net-(RV1-Pad3)*%
X91604403Y-52699401D02*
G75*
G02*
X91440000Y-52302500I396897J396901D01*
G01*
X90931994Y-51562006D02*
G75*
G02*
X90424000Y-50335579I1226406J1226406D01*
G01*
X91275596Y-51905598D02*
G75*
G02*
X91440000Y-52302500I-396896J-396902D01*
G01*
%TO.N,Net-(RV1-Pad2)*%
X95249987Y-51174730D02*
G75*
G03*
X94087000Y-48367000I-3970687J30D01*
G01*
X92924003Y-46684000D02*
G75*
G03*
X93291695Y-47571695I1255397J0D01*
G01*
X95030506Y-56099506D02*
G75*
G02*
X94500580Y-56319000I-529906J529906D01*
G01*
X95030506Y-56099506D02*
G75*
G03*
X95250000Y-55569580I-529906J529906D01*
G01*
%TO.N,Net-(RV1-Pad1)*%
X95423999Y-46664000D02*
G75*
G03*
X95777554Y-47517552I1207101J0D01*
G01*
X95685489Y-57984489D02*
G75*
G03*
X96520000Y-55969838I-2014689J2014689D01*
G01*
X95971997Y-47712003D02*
G75*
G02*
X96520000Y-49034989I-1322997J-1322997D01*
G01*
X93787500Y-58819004D02*
G75*
G03*
X95603008Y-58066991I0J2567504D01*
G01*
%TO.N,Net-(RV3-Pad1)*%
X98492008Y-61393992D02*
G75*
G02*
X97924000Y-60022726I1371292J1371292D01*
G01*
X104839036Y-62230010D02*
G75*
G03*
X108686792Y-60636207I-36J5441610D01*
G01*
X99060001Y-62096000D02*
G75*
G03*
X98965247Y-61867247I-323501J0D01*
G01*
X99060000Y-62096000D02*
G75*
G03*
X99194000Y-62230000I134000J0D01*
G01*
%TO.N,Net-(RV3-Pad2)*%
X100423987Y-56182431D02*
G75*
G03*
X100464000Y-56279000I136613J31D01*
G01*
%TO.N,Net-(RV5-Pad3)*%
X113665008Y-51434992D02*
G75*
G03*
X112131974Y-50800000I-1533008J-1533008D01*
G01*
X114300011Y-57521974D02*
G75*
G03*
X114935000Y-59055000I2167989J-26D01*
G01*
X113665008Y-51434992D02*
G75*
G02*
X114300000Y-52968025I-1533008J-1533008D01*
G01*
X120159036Y-59690010D02*
G75*
G03*
X124006792Y-58096207I-36J5441610D01*
G01*
X103235116Y-47355136D02*
G75*
G02*
X102924000Y-46604000I751184J751136D01*
G01*
X116468025Y-59689989D02*
G75*
G02*
X114935000Y-59055000I-25J2167989D01*
G01*
X108933963Y-50800010D02*
G75*
G02*
X105086208Y-49206206I37J5441610D01*
G01*
%TO.N,Net-(RV5-Pad2)*%
X106687014Y-48266986D02*
G75*
G03*
X109736151Y-49530000I3049186J3049186D01*
G01*
X118284005Y-54163087D02*
G75*
G03*
X116927000Y-50887000I-4633105J-13D01*
G01*
X113650912Y-49529995D02*
G75*
G02*
X116927000Y-50887000I-12J-4633105D01*
G01*
X105424009Y-46584000D02*
G75*
G03*
X105720984Y-47300984I1013991J0D01*
G01*
%TO.N,Net-(RV2-Pad3)*%
X105800359Y-43180017D02*
G75*
G02*
X107302000Y-43802000I41J-2123583D01*
G01*
X78739990Y-59976036D02*
G75*
G03*
X80333793Y-63823791I5441610J36D01*
G01*
X87822963Y-69059010D02*
G75*
G02*
X83975208Y-67465206I37J5441610D01*
G01*
X80333821Y-50476236D02*
G75*
G03*
X78740000Y-54323963I3847679J-3847764D01*
G01*
X107923989Y-45294000D02*
G75*
G03*
X107308816Y-43808818I-2100389J0D01*
G01*
X86036236Y-44773821D02*
G75*
G02*
X89883963Y-43180000I3847764J-3847679D01*
G01*
%TO.N,Net-(RV2-Pad2)*%
X79063800Y-67898784D02*
G75*
G02*
X77470000Y-64051036I3847800J3847784D01*
G01*
X88613963Y-41909960D02*
G75*
G03*
X84766208Y-43503793I37J-5441540D01*
G01*
X77469960Y-53053963D02*
G75*
G02*
X79063793Y-49206208I5441540J-37D01*
G01*
X109186995Y-43147005D02*
G75*
G03*
X106200617Y-41910000I-2986395J-2986395D01*
G01*
X109794684Y-43754664D02*
G75*
G02*
X110424000Y-45274000I-1519384J-1519336D01*
G01*
%TO.N,Net-(RV4-Pad2)*%
X108117692Y-69682321D02*
G75*
G02*
X109622500Y-69059000I1504808J-1504779D01*
G01*
X124746036Y-43179990D02*
G75*
G02*
X128593791Y-44773793I-36J-5441610D01*
G01*
X131756199Y-47936215D02*
G75*
G02*
X133350000Y-51783963I-3847799J-3847785D01*
G01*
X127286036Y-78740009D02*
G75*
G03*
X131133792Y-77146206I-36J5441609D01*
G01*
X131756200Y-76523785D02*
G75*
G03*
X133350000Y-72676036I-3847800J3847785D01*
G01*
X114415998Y-44671998D02*
G75*
G02*
X118018006Y-43180000I3602002J-3602002D01*
G01*
X100330016Y-71856036D02*
G75*
G02*
X100417001Y-71646001I296984J36D01*
G01*
X106044992Y-78105008D02*
G75*
G02*
X105410000Y-76571974I1533008J1533008D01*
G01*
X103156036Y-72390010D02*
G75*
G03*
X107003792Y-70796207I-36J5441610D01*
G01*
X103156036Y-72389997D02*
G75*
G02*
X105409999Y-74389998I119864J-2135003D01*
G01*
X107003784Y-70796199D02*
G75*
G03*
X105410001Y-74389998I3555716J-3727201D01*
G01*
X107578025Y-78739989D02*
G75*
G02*
X106045000Y-78105000I-25J2167989D01*
G01*
X100330000Y-72061500D02*
G75*
G03*
X100658500Y-72390000I328500J0D01*
G01*
%TO.N,Net-(RV4-Pad1)*%
X116281006Y-45307006D02*
G75*
G02*
X118349981Y-44450000I2068994J-2068994D01*
G01*
X130486199Y-75253785D02*
G75*
G03*
X132080000Y-71406036I-3847799J3847785D01*
G01*
X116168963Y-77470010D02*
G75*
G02*
X112321208Y-75876206I37J5441610D01*
G01*
X129863785Y-75876200D02*
G75*
G02*
X126016036Y-77470000I-3847785J3847800D01*
G01*
X127323784Y-46043800D02*
G75*
G03*
X123476036Y-44450000I-3847784J-3847800D01*
G01*
X132080010Y-53053963D02*
G75*
G03*
X130486206Y-49206208I-5441610J-37D01*
G01*
%TO.N,Net-(RV6-Pad1)*%
X130810010Y-54323963D02*
G75*
G03*
X129216206Y-50476208I-5441610J-37D01*
G01*
X130810019Y-69746848D02*
G75*
G02*
X129546999Y-72795999I-4312219J48D01*
G01*
X122664000Y-46163989D02*
G75*
G02*
X126487919Y-47747919I0J-5407811D01*
G01*
%TO.N,Net-(RV1-Pad3)*%
X91275597Y-51905597D02*
X90932000Y-51562000D01*
X90424000Y-50335579D02*
X90424000Y-46164000D01*
X91604402Y-52699402D02*
X92724000Y-53819000D01*
%TO.N,Net-(RV1-Pad2)*%
X94500580Y-56319000D02*
X82724000Y-56319000D01*
X95250000Y-55569580D02*
X95250000Y-51174730D01*
X93291695Y-47571695D02*
X94087000Y-48367000D01*
X92924000Y-46684000D02*
X92924000Y-46164000D01*
%TO.N,Net-(RV1-Pad1)*%
X93787500Y-58819000D02*
X92724000Y-58819000D01*
X95603008Y-58066991D02*
X95685499Y-57984499D01*
X96520000Y-55969838D02*
X96520000Y-49034989D01*
X95777553Y-47517553D02*
X95972000Y-47712000D01*
X95424000Y-46664000D02*
X95424000Y-46164000D01*
%TO.N,Net-(RV3-Pad1)*%
X99194000Y-62230000D02*
X104839036Y-62230000D01*
X98965247Y-61867247D02*
X98492000Y-61394000D01*
X97924000Y-60022726D02*
X97924000Y-46164000D01*
X108686792Y-60636207D02*
X110504000Y-58819000D01*
%TO.N,Net-(RV3-Pad2)*%
X100424000Y-56182431D02*
X100424000Y-46164000D01*
X100464000Y-56279000D02*
X100504000Y-56319000D01*
%TO.N,Net-(RV5-Pad3)*%
X114300000Y-52968025D02*
X114300000Y-57521974D01*
X124006792Y-58096207D02*
X128284000Y-53819000D01*
X120159036Y-59690000D02*
X116468025Y-59690000D01*
X102924000Y-46604000D02*
X102924000Y-46164000D01*
X105086207Y-49206207D02*
X103235126Y-47355126D01*
X108933963Y-50800000D02*
X112131974Y-50800000D01*
%TO.N,Net-(RV5-Pad2)*%
X109736151Y-49530000D02*
X113650912Y-49530000D01*
X105720984Y-47300984D02*
X106687000Y-48267000D01*
X118284000Y-54163087D02*
X118284000Y-56319000D01*
X105424000Y-46584000D02*
X105424000Y-46164000D01*
%TO.N,Net-(RV2-Pad3)*%
X87822963Y-69059000D02*
X92724000Y-69059000D01*
X83975207Y-67465207D02*
X80333792Y-63823792D01*
X86036207Y-44773792D02*
X80333792Y-50476207D01*
X89883963Y-43180000D02*
X105800359Y-43180000D01*
X78740000Y-54323963D02*
X78740000Y-59976036D01*
X107302000Y-43802000D02*
X107308817Y-43808817D01*
X107924000Y-45294000D02*
X107924000Y-46164000D01*
%TO.N,Net-(RV2-Pad2)*%
X77470000Y-53053963D02*
X77470000Y-64051036D01*
X79063792Y-49206207D02*
X84766207Y-43503792D01*
X106200617Y-41910000D02*
X88613963Y-41910000D01*
X109187000Y-43147000D02*
X109794674Y-43754674D01*
X79063792Y-67898792D02*
X82724000Y-71559000D01*
X110424000Y-45274000D02*
X110424000Y-46164000D01*
%TO.N,Net-(RV4-Pad2)*%
X100417000Y-71646000D02*
X100504000Y-71559000D01*
X100330000Y-72061500D02*
X100330000Y-71856036D01*
X100658500Y-72390000D02*
X103156036Y-72390000D01*
X109622500Y-69059000D02*
X110504000Y-69059000D01*
X107003792Y-70796207D02*
X108117685Y-69682314D01*
X105410000Y-74389998D02*
X105410000Y-76571974D01*
X107578025Y-78740000D02*
X127286036Y-78740000D01*
X131133792Y-77146206D02*
X131756207Y-76523792D01*
X133350000Y-51783963D02*
X133350000Y-72676036D01*
X128593792Y-44773792D02*
X131756207Y-47936207D01*
X118018006Y-43180000D02*
X124746036Y-43180000D01*
X114416000Y-44672000D02*
X112924000Y-46164000D01*
%TO.N,Net-(RV4-Pad1)*%
X112321207Y-75876207D02*
X110504000Y-74059000D01*
X126016036Y-77470000D02*
X116168963Y-77470000D01*
X129863792Y-75876207D02*
X130486206Y-75253792D01*
X132080000Y-71406036D02*
X132080000Y-53053963D01*
X130486207Y-49206207D02*
X127323792Y-46043792D01*
X123476036Y-44450000D02*
X118349981Y-44450000D01*
X116281000Y-45307000D02*
X115424000Y-46164000D01*
%TO.N,Net-(RV6-Pad1)*%
X129547000Y-72796000D02*
X128284000Y-74059000D01*
X130810000Y-69746848D02*
X130810000Y-54323963D01*
X126487919Y-47747919D02*
X129216207Y-50476207D01*
X122664000Y-46164000D02*
X120424000Y-46164000D01*
%TD*%
%TA.AperFunction,Conductor*%
%TO.N,Net-(RV1-Pad3)*%
G36*
X90432433Y-45747769D02*
G01*
X91183057Y-46528326D01*
X91186322Y-46536665D01*
X91184898Y-46542034D01*
X91102775Y-46692744D01*
X91102218Y-46693663D01*
X91014317Y-46824713D01*
X91013850Y-46825357D01*
X90951827Y-46905073D01*
X90926451Y-46937688D01*
X90926213Y-46937984D01*
X90841832Y-47039455D01*
X90763195Y-47137741D01*
X90693021Y-47240548D01*
X90633914Y-47355726D01*
X90588473Y-47491127D01*
X90559302Y-47654601D01*
X90559283Y-47654969D01*
X90549573Y-47842904D01*
X90545724Y-47850989D01*
X90537889Y-47854000D01*
X90310111Y-47854000D01*
X90301838Y-47850573D01*
X90298427Y-47842904D01*
X90288716Y-47654969D01*
X90288697Y-47654601D01*
X90259526Y-47491127D01*
X90214085Y-47355726D01*
X90154978Y-47240548D01*
X90084804Y-47137741D01*
X90006167Y-47039455D01*
X89921786Y-46937984D01*
X89921548Y-46937688D01*
X89896172Y-46905073D01*
X89834149Y-46825357D01*
X89833682Y-46824713D01*
X89745781Y-46693663D01*
X89745224Y-46692744D01*
X89663102Y-46542034D01*
X89662153Y-46533130D01*
X89664943Y-46528326D01*
X90415567Y-45747769D01*
X90423771Y-45744181D01*
X90432433Y-45747769D01*
G37*
%TD.AperFunction*%
%TD*%
%TA.AperFunction,Conductor*%
%TO.N,Net-(RV1-Pad3)*%
G36*
X91494828Y-51947571D02*
G01*
X91665974Y-52108749D01*
X91666158Y-52108898D01*
X91666159Y-52108899D01*
X91685751Y-52124778D01*
X91826770Y-52239075D01*
X91974492Y-52337624D01*
X92114682Y-52411254D01*
X92179759Y-52437421D01*
X92252670Y-52466739D01*
X92252680Y-52466742D01*
X92252880Y-52466823D01*
X92253084Y-52466887D01*
X92253090Y-52466889D01*
X92394505Y-52511151D01*
X92394630Y-52511190D01*
X92545472Y-52551213D01*
X92710834Y-52593721D01*
X92711072Y-52593785D01*
X92896374Y-52645597D01*
X92896813Y-52645729D01*
X93100020Y-52711238D01*
X93106843Y-52717038D01*
X93108128Y-52722145D01*
X93137419Y-54220492D01*
X93134154Y-54228831D01*
X93125492Y-54232419D01*
X91627753Y-54203140D01*
X91619549Y-54199552D01*
X91616630Y-54194275D01*
X91555850Y-53950723D01*
X91555528Y-53948664D01*
X91540287Y-53718725D01*
X91540298Y-53717016D01*
X91557412Y-53503628D01*
X91557543Y-53502589D01*
X91592003Y-53301238D01*
X91592040Y-53301034D01*
X91628643Y-53107846D01*
X91628643Y-53107844D01*
X91628678Y-53107661D01*
X91628700Y-53107485D01*
X91652135Y-52918773D01*
X91652135Y-52918766D01*
X91652188Y-52918342D01*
X91647300Y-52728882D01*
X91598768Y-52534972D01*
X91491346Y-52332302D01*
X91316700Y-52124777D01*
X91313995Y-52116241D01*
X91317379Y-52108971D01*
X91478535Y-51947815D01*
X91486808Y-51944388D01*
X91494828Y-51947571D01*
G37*
%TD.AperFunction*%
%TD*%
%TA.AperFunction,Conductor*%
%TO.N,Net-(RV1-Pad2)*%
G36*
X83241535Y-55270153D02*
G01*
X83455240Y-55387782D01*
X83456244Y-55388403D01*
X83638323Y-55514080D01*
X83639063Y-55514635D01*
X83793905Y-55640672D01*
X83794259Y-55640972D01*
X83881603Y-55718014D01*
X83933133Y-55763467D01*
X84067091Y-55878274D01*
X84067250Y-55878391D01*
X84067259Y-55878398D01*
X84206909Y-55981003D01*
X84207202Y-55981218D01*
X84207517Y-55981392D01*
X84207523Y-55981396D01*
X84364299Y-56068057D01*
X84364304Y-56068059D01*
X84364707Y-56068282D01*
X84550847Y-56135446D01*
X84551299Y-56135533D01*
X84551301Y-56135533D01*
X84776477Y-56178617D01*
X84776864Y-56178691D01*
X85042946Y-56193389D01*
X85051017Y-56197267D01*
X85054000Y-56205071D01*
X85054000Y-56432929D01*
X85050573Y-56441202D01*
X85042946Y-56444611D01*
X84776864Y-56459308D01*
X84776478Y-56459382D01*
X84776477Y-56459382D01*
X84551301Y-56502466D01*
X84551299Y-56502466D01*
X84550847Y-56502553D01*
X84364707Y-56569717D01*
X84364304Y-56569940D01*
X84364299Y-56569942D01*
X84207523Y-56656603D01*
X84207517Y-56656607D01*
X84207202Y-56656781D01*
X84206912Y-56656994D01*
X84206909Y-56656996D01*
X84067259Y-56759601D01*
X84067250Y-56759608D01*
X84067091Y-56759725D01*
X83933133Y-56874532D01*
X83933088Y-56874572D01*
X83794259Y-56997027D01*
X83793905Y-56997327D01*
X83639063Y-57123364D01*
X83638323Y-57123919D01*
X83456244Y-57249596D01*
X83455240Y-57250217D01*
X83241535Y-57367847D01*
X83232635Y-57368834D01*
X83227783Y-57366030D01*
X82716646Y-56874494D01*
X82147769Y-56327433D01*
X82144181Y-56319229D01*
X82147769Y-56310567D01*
X82268985Y-56194000D01*
X83227783Y-55271970D01*
X83236122Y-55268705D01*
X83241535Y-55270153D01*
G37*
%TD.AperFunction*%
%TD*%
%TA.AperFunction,Conductor*%
%TO.N,Net-(RV1-Pad2)*%
G36*
X92932196Y-45748157D02*
G01*
X92934715Y-45750142D01*
X93683081Y-46528351D01*
X93686346Y-46536690D01*
X93684944Y-46542017D01*
X93623143Y-46656459D01*
X93622765Y-46657109D01*
X93551993Y-46770143D01*
X93551876Y-46770325D01*
X93481583Y-46876627D01*
X93417480Y-46977903D01*
X93365261Y-47075911D01*
X93330544Y-47172518D01*
X93318948Y-47269592D01*
X93336092Y-47369002D01*
X93387596Y-47472616D01*
X93472232Y-47574094D01*
X93474899Y-47582641D01*
X93471520Y-47589860D01*
X93310588Y-47750792D01*
X93302315Y-47754219D01*
X93294029Y-47750780D01*
X93166753Y-47623117D01*
X93166726Y-47623089D01*
X93052810Y-47508057D01*
X93052781Y-47508027D01*
X92955505Y-47409106D01*
X92955479Y-47409080D01*
X92869871Y-47321474D01*
X92869854Y-47321457D01*
X92790940Y-47240368D01*
X92790938Y-47240365D01*
X92713744Y-47160997D01*
X92633315Y-47078570D01*
X92544687Y-46988295D01*
X92442891Y-46885382D01*
X92329328Y-46771429D01*
X92325915Y-46763150D01*
X92327520Y-46757256D01*
X92916187Y-45752338D01*
X92923325Y-45746932D01*
X92932196Y-45748157D01*
G37*
%TD.AperFunction*%
%TD*%
%TA.AperFunction,Conductor*%
%TO.N,Net-(RV1-Pad1)*%
G36*
X93241692Y-57770698D02*
G01*
X93443635Y-57893899D01*
X93445096Y-57894952D01*
X93631239Y-58052333D01*
X93632032Y-58053071D01*
X93800757Y-58225677D01*
X93801024Y-58225961D01*
X93957223Y-58398570D01*
X93957276Y-58398626D01*
X94105642Y-58555643D01*
X94105649Y-58555650D01*
X94105843Y-58555855D01*
X94251883Y-58682511D01*
X94400493Y-58763397D01*
X94556821Y-58783368D01*
X94663361Y-58748052D01*
X94725052Y-58727603D01*
X94725054Y-58727602D01*
X94726016Y-58727283D01*
X94905062Y-58586420D01*
X94913683Y-58583997D01*
X94920569Y-58587342D01*
X95081279Y-58748052D01*
X95084706Y-58756325D01*
X95080830Y-58765024D01*
X94909806Y-58918846D01*
X94908721Y-58919711D01*
X94742844Y-59036596D01*
X94741622Y-59037350D01*
X94586544Y-59120269D01*
X94585418Y-59120796D01*
X94437988Y-59180497D01*
X94437261Y-59180763D01*
X94294275Y-59227927D01*
X94153024Y-59273103D01*
X94100356Y-59293033D01*
X94011265Y-59326746D01*
X94011258Y-59326749D01*
X94010994Y-59326849D01*
X94010736Y-59326978D01*
X93865626Y-59399679D01*
X93865293Y-59399846D01*
X93713030Y-59502774D01*
X93712736Y-59503035D01*
X93557666Y-59640676D01*
X93549204Y-59643605D01*
X93543985Y-59642021D01*
X93305899Y-59502553D01*
X92152338Y-58826813D01*
X92146932Y-58819675D01*
X92148157Y-58810804D01*
X92150142Y-58808285D01*
X92176227Y-58783201D01*
X93227488Y-57772253D01*
X93235828Y-57768988D01*
X93241692Y-57770698D01*
G37*
%TD.AperFunction*%
%TD*%
%TA.AperFunction,Conductor*%
%TO.N,Net-(RV1-Pad1)*%
G36*
X95432196Y-45748157D02*
G01*
X95434715Y-45750142D01*
X96183112Y-46528383D01*
X96186377Y-46536722D01*
X96185001Y-46541999D01*
X96124841Y-46654741D01*
X96124542Y-46655265D01*
X96057892Y-46765040D01*
X96056743Y-46766933D01*
X96056649Y-46767084D01*
X95990231Y-46872283D01*
X95990196Y-46872342D01*
X95930642Y-46972425D01*
X95930635Y-46972437D01*
X95930532Y-46972611D01*
X95882830Y-47069778D01*
X95882698Y-47070193D01*
X95882696Y-47070198D01*
X95855005Y-47157240D01*
X95852356Y-47165567D01*
X95844341Y-47261760D01*
X95864017Y-47360139D01*
X95916613Y-47462486D01*
X95917029Y-47462982D01*
X95917030Y-47462983D01*
X96000468Y-47562373D01*
X96003163Y-47570913D01*
X95999780Y-47578169D01*
X95838838Y-47739111D01*
X95830565Y-47742538D01*
X95822313Y-47739133D01*
X95693331Y-47610817D01*
X95576905Y-47496313D01*
X95476537Y-47398779D01*
X95387458Y-47313141D01*
X95387435Y-47313119D01*
X95387405Y-47313090D01*
X95304898Y-47234327D01*
X95224089Y-47157262D01*
X95224066Y-47157240D01*
X95140260Y-47076874D01*
X95140216Y-47076831D01*
X95048695Y-46988142D01*
X95048641Y-46988090D01*
X94944464Y-46885836D01*
X94944411Y-46885783D01*
X94829387Y-46771430D01*
X94825936Y-46763167D01*
X94827541Y-46757219D01*
X94956706Y-46536722D01*
X95416187Y-45752338D01*
X95423325Y-45746932D01*
X95432196Y-45748157D01*
G37*
%TD.AperFunction*%
%TD*%
%TA.AperFunction,Conductor*%
%TO.N,Net-(RV3-Pad1)*%
G36*
X97932433Y-45747769D02*
G01*
X98683057Y-46528326D01*
X98686322Y-46536665D01*
X98684898Y-46542034D01*
X98602775Y-46692744D01*
X98602218Y-46693663D01*
X98514317Y-46824713D01*
X98513850Y-46825357D01*
X98451827Y-46905073D01*
X98426451Y-46937688D01*
X98426213Y-46937984D01*
X98341832Y-47039455D01*
X98263195Y-47137741D01*
X98193021Y-47240548D01*
X98133914Y-47355726D01*
X98088473Y-47491127D01*
X98059302Y-47654601D01*
X98059283Y-47654969D01*
X98049573Y-47842904D01*
X98045724Y-47850989D01*
X98037889Y-47854000D01*
X97810111Y-47854000D01*
X97801838Y-47850573D01*
X97798427Y-47842904D01*
X97788716Y-47654969D01*
X97788697Y-47654601D01*
X97759526Y-47491127D01*
X97714085Y-47355726D01*
X97654978Y-47240548D01*
X97584804Y-47137741D01*
X97506167Y-47039455D01*
X97421786Y-46937984D01*
X97421548Y-46937688D01*
X97396172Y-46905073D01*
X97334149Y-46825357D01*
X97333682Y-46824713D01*
X97245781Y-46693663D01*
X97245224Y-46692744D01*
X97163102Y-46542034D01*
X97162153Y-46533130D01*
X97164943Y-46528326D01*
X97915567Y-45747769D01*
X97923771Y-45744181D01*
X97932433Y-45747769D01*
G37*
%TD.AperFunction*%
%TD*%
%TA.AperFunction,Conductor*%
%TO.N,Net-(RV3-Pad1)*%
G36*
X110913831Y-58408846D02*
G01*
X110917419Y-58417508D01*
X110888133Y-59915591D01*
X110884545Y-59923795D01*
X110879693Y-59926599D01*
X110645406Y-59994534D01*
X110644260Y-59994804D01*
X110426634Y-60034688D01*
X110425735Y-60034817D01*
X110227095Y-60055188D01*
X110226661Y-60055224D01*
X110041834Y-60066805D01*
X110041780Y-60066809D01*
X109866151Y-60080331D01*
X109866149Y-60080331D01*
X109865931Y-60080348D01*
X109865737Y-60080378D01*
X109865725Y-60080379D01*
X109727561Y-60101507D01*
X109694065Y-60106629D01*
X109693704Y-60106733D01*
X109521576Y-60156310D01*
X109521573Y-60156311D01*
X109521129Y-60156439D01*
X109342016Y-60240567D01*
X109151619Y-60369806D01*
X109151323Y-60370071D01*
X108953079Y-60547561D01*
X108944630Y-60550526D01*
X108937002Y-60547117D01*
X108775883Y-60385998D01*
X108772456Y-60377725D01*
X108775439Y-60369921D01*
X108952928Y-60171676D01*
X108953193Y-60171380D01*
X108963201Y-60156637D01*
X109082176Y-59981360D01*
X109082432Y-59980983D01*
X109166560Y-59801870D01*
X109216370Y-59628934D01*
X109221492Y-59595438D01*
X109242620Y-59457274D01*
X109242621Y-59457262D01*
X109242651Y-59457068D01*
X109256194Y-59281165D01*
X109267775Y-59096338D01*
X109267812Y-59095890D01*
X109288181Y-58897272D01*
X109288312Y-58896357D01*
X109328194Y-58678742D01*
X109328465Y-58677593D01*
X109396400Y-58443307D01*
X109401995Y-58436315D01*
X109407408Y-58434867D01*
X110905492Y-58405581D01*
X110913831Y-58408846D01*
G37*
%TD.AperFunction*%
%TD*%
%TA.AperFunction,Conductor*%
%TO.N,Net-(RV3-Pad2)*%
G36*
X100546208Y-53982427D02*
G01*
X100549617Y-53990047D01*
X100564226Y-54251491D01*
X100564302Y-54251882D01*
X100564303Y-54251889D01*
X100590090Y-54384286D01*
X100607451Y-54473419D01*
X100674998Y-54655699D01*
X100675238Y-54656117D01*
X100675239Y-54656119D01*
X100693979Y-54688747D01*
X100763185Y-54809246D01*
X100868336Y-54944974D01*
X100868503Y-54945155D01*
X100868510Y-54945164D01*
X100918736Y-54999796D01*
X100986769Y-55073798D01*
X100986807Y-55073837D01*
X101114698Y-55206522D01*
X101114942Y-55206784D01*
X101248488Y-55354087D01*
X101249025Y-55354723D01*
X101384643Y-55527574D01*
X101385277Y-55528466D01*
X101461690Y-55647733D01*
X101515119Y-55731126D01*
X101516697Y-55739941D01*
X101514236Y-55744952D01*
X101394492Y-55887817D01*
X100551721Y-56893313D01*
X100543780Y-56897452D01*
X100534894Y-56894463D01*
X99425043Y-55887817D01*
X99421217Y-55879721D01*
X99422293Y-55874220D01*
X99527552Y-55647733D01*
X99528118Y-55646664D01*
X99643485Y-55453548D01*
X99644026Y-55452723D01*
X99761993Y-55288483D01*
X99762323Y-55288045D01*
X99878753Y-55141006D01*
X99989098Y-54999957D01*
X99989224Y-54999796D01*
X100089262Y-54853043D01*
X100174565Y-54689167D01*
X100186081Y-54655699D01*
X100240683Y-54497002D01*
X100240684Y-54496997D01*
X100240825Y-54496588D01*
X100283738Y-54263726D01*
X100284373Y-54251889D01*
X100298406Y-53990074D01*
X100302271Y-53981996D01*
X100310089Y-53979000D01*
X100537935Y-53979000D01*
X100546208Y-53982427D01*
G37*
%TD.AperFunction*%
%TD*%
%TA.AperFunction,Conductor*%
%TO.N,Net-(RV3-Pad2)*%
G36*
X100432433Y-45747769D02*
G01*
X101183057Y-46528326D01*
X101186322Y-46536665D01*
X101184898Y-46542034D01*
X101102775Y-46692744D01*
X101102218Y-46693663D01*
X101014317Y-46824713D01*
X101013850Y-46825357D01*
X100951827Y-46905073D01*
X100926451Y-46937688D01*
X100926213Y-46937984D01*
X100841832Y-47039455D01*
X100763195Y-47137741D01*
X100693021Y-47240548D01*
X100633914Y-47355726D01*
X100588473Y-47491127D01*
X100559302Y-47654601D01*
X100559283Y-47654969D01*
X100549573Y-47842904D01*
X100545724Y-47850989D01*
X100537889Y-47854000D01*
X100310111Y-47854000D01*
X100301838Y-47850573D01*
X100298427Y-47842904D01*
X100288716Y-47654969D01*
X100288697Y-47654601D01*
X100259526Y-47491127D01*
X100214085Y-47355726D01*
X100154978Y-47240548D01*
X100084804Y-47137741D01*
X100006167Y-47039455D01*
X99921786Y-46937984D01*
X99921548Y-46937688D01*
X99896172Y-46905073D01*
X99834149Y-46825357D01*
X99833682Y-46824713D01*
X99745781Y-46693663D01*
X99745224Y-46692744D01*
X99663102Y-46542034D01*
X99662153Y-46533130D01*
X99664943Y-46528326D01*
X100415567Y-45747769D01*
X100423771Y-45744181D01*
X100432433Y-45747769D01*
G37*
%TD.AperFunction*%
%TD*%
%TA.AperFunction,Conductor*%
%TO.N,Net-(RV5-Pad3)*%
G36*
X128693831Y-53408846D02*
G01*
X128697419Y-53417508D01*
X128668133Y-54915591D01*
X128664545Y-54923795D01*
X128659693Y-54926599D01*
X128425406Y-54994534D01*
X128424260Y-54994804D01*
X128206634Y-55034688D01*
X128205735Y-55034817D01*
X128007095Y-55055188D01*
X128006661Y-55055224D01*
X127821834Y-55066805D01*
X127821780Y-55066809D01*
X127646151Y-55080331D01*
X127646149Y-55080331D01*
X127645931Y-55080348D01*
X127645737Y-55080378D01*
X127645725Y-55080379D01*
X127507561Y-55101507D01*
X127474065Y-55106629D01*
X127473704Y-55106733D01*
X127301576Y-55156310D01*
X127301573Y-55156311D01*
X127301129Y-55156439D01*
X127122016Y-55240567D01*
X126931619Y-55369806D01*
X126931323Y-55370071D01*
X126733079Y-55547561D01*
X126724630Y-55550526D01*
X126717002Y-55547117D01*
X126555883Y-55385998D01*
X126552456Y-55377725D01*
X126555439Y-55369921D01*
X126732928Y-55171676D01*
X126733193Y-55171380D01*
X126743201Y-55156637D01*
X126862176Y-54981360D01*
X126862432Y-54980983D01*
X126946560Y-54801870D01*
X126996370Y-54628934D01*
X127001492Y-54595438D01*
X127022620Y-54457274D01*
X127022621Y-54457262D01*
X127022651Y-54457068D01*
X127036194Y-54281165D01*
X127047775Y-54096338D01*
X127047812Y-54095890D01*
X127068181Y-53897272D01*
X127068312Y-53896357D01*
X127108194Y-53678742D01*
X127108465Y-53677593D01*
X127176400Y-53443307D01*
X127181995Y-53436315D01*
X127187408Y-53434867D01*
X128685492Y-53405581D01*
X128693831Y-53408846D01*
G37*
%TD.AperFunction*%
%TD*%
%TA.AperFunction,Conductor*%
%TO.N,Net-(RV5-Pad3)*%
G36*
X102932196Y-45748157D02*
G01*
X102934715Y-45750142D01*
X103683208Y-46528483D01*
X103686473Y-46536822D01*
X103685182Y-46541939D01*
X103629753Y-46649856D01*
X103629619Y-46650109D01*
X103570510Y-46757866D01*
X103515578Y-46859676D01*
X103468958Y-46957010D01*
X103434730Y-47051447D01*
X103434644Y-47051896D01*
X103434643Y-47051901D01*
X103430785Y-47072135D01*
X103416973Y-47144566D01*
X103416992Y-47145201D01*
X103419113Y-47216151D01*
X103419764Y-47237946D01*
X103447182Y-47333165D01*
X103503306Y-47431803D01*
X103585159Y-47527214D01*
X103587944Y-47535722D01*
X103584551Y-47543103D01*
X103423594Y-47704060D01*
X103415321Y-47707487D01*
X103407168Y-47704179D01*
X103272877Y-47573720D01*
X103272874Y-47573717D01*
X103272810Y-47573655D01*
X103148840Y-47460727D01*
X103039311Y-47367473D01*
X102996480Y-47333165D01*
X102940085Y-47287993D01*
X102940065Y-47287977D01*
X102940011Y-47287934D01*
X102846723Y-47216151D01*
X102755288Y-47146208D01*
X102755147Y-47146098D01*
X102661470Y-47072135D01*
X102661204Y-47071919D01*
X102637320Y-47051901D01*
X102560938Y-46987882D01*
X102560631Y-46987615D01*
X102526959Y-46957281D01*
X102449555Y-46887552D01*
X102449251Y-46887268D01*
X102329563Y-46771431D01*
X102326002Y-46763215D01*
X102327605Y-46757110D01*
X102390269Y-46650137D01*
X102916187Y-45752338D01*
X102923325Y-45746932D01*
X102932196Y-45748157D01*
G37*
%TD.AperFunction*%
%TD*%
%TA.AperFunction,Conductor*%
%TO.N,Net-(RV5-Pad2)*%
G36*
X105425298Y-45748016D02*
G01*
X105427734Y-45749893D01*
X106189157Y-46515885D01*
X106192559Y-46524168D01*
X106191370Y-46529272D01*
X106137886Y-46638661D01*
X106137783Y-46638866D01*
X106081542Y-46747877D01*
X106030027Y-46850713D01*
X106029962Y-46850862D01*
X105987272Y-46948614D01*
X105987268Y-46948624D01*
X105987149Y-46948897D01*
X105987059Y-46949178D01*
X105987057Y-46949184D01*
X105974187Y-46989492D01*
X105956769Y-47044046D01*
X105956700Y-47044508D01*
X105956699Y-47044512D01*
X105952462Y-47072845D01*
X105942751Y-47137775D01*
X105942792Y-47138397D01*
X105942792Y-47138400D01*
X105947754Y-47213458D01*
X105948960Y-47231699D01*
X105979257Y-47327433D01*
X106037506Y-47426593D01*
X106037857Y-47426999D01*
X106120457Y-47522563D01*
X106123274Y-47531063D01*
X106119878Y-47538487D01*
X105958919Y-47699446D01*
X105950646Y-47702873D01*
X105942524Y-47699595D01*
X105805409Y-47567370D01*
X105805387Y-47567349D01*
X105805323Y-47567288D01*
X105805243Y-47567217D01*
X105805228Y-47567203D01*
X105678086Y-47454123D01*
X105678082Y-47454119D01*
X105677988Y-47454036D01*
X105564712Y-47361514D01*
X105519633Y-47327433D01*
X105461463Y-47283456D01*
X105461462Y-47283455D01*
X105461418Y-47283422D01*
X105388452Y-47231003D01*
X105364029Y-47213458D01*
X105363973Y-47213418D01*
X105268549Y-47145378D01*
X105268368Y-47145246D01*
X105170837Y-47072845D01*
X105170498Y-47072584D01*
X105066725Y-46989492D01*
X105066323Y-46989155D01*
X104952179Y-46889046D01*
X104951792Y-46888691D01*
X104829583Y-46771397D01*
X104825987Y-46763196D01*
X104827560Y-46757094D01*
X104832897Y-46747877D01*
X105409311Y-45752279D01*
X105416421Y-45746836D01*
X105425298Y-45748016D01*
G37*
%TD.AperFunction*%
%TD*%
%TA.AperFunction,Conductor*%
%TO.N,Net-(RV5-Pad2)*%
G36*
X118406202Y-53992427D02*
G01*
X118409611Y-54000054D01*
X118424308Y-54266135D01*
X118467553Y-54492152D01*
X118534717Y-54678292D01*
X118534940Y-54678695D01*
X118534942Y-54678700D01*
X118621603Y-54835476D01*
X118621607Y-54835482D01*
X118621781Y-54835797D01*
X118621994Y-54836087D01*
X118621996Y-54836090D01*
X118724601Y-54975740D01*
X118724608Y-54975749D01*
X118724725Y-54975908D01*
X118839532Y-55109866D01*
X118839572Y-55109911D01*
X118962027Y-55248740D01*
X118962327Y-55249094D01*
X119088364Y-55403936D01*
X119088919Y-55404676D01*
X119214596Y-55586755D01*
X119215217Y-55587759D01*
X119332847Y-55801465D01*
X119333834Y-55810365D01*
X119331030Y-55815217D01*
X118292433Y-56895231D01*
X118284229Y-56898819D01*
X118275567Y-56895231D01*
X117236970Y-55815217D01*
X117233705Y-55806878D01*
X117235153Y-55801465D01*
X117352782Y-55587759D01*
X117353403Y-55586755D01*
X117479080Y-55404676D01*
X117479635Y-55403936D01*
X117605672Y-55249094D01*
X117605972Y-55248740D01*
X117728427Y-55109911D01*
X117728467Y-55109866D01*
X117843274Y-54975908D01*
X117843391Y-54975749D01*
X117843398Y-54975740D01*
X117946003Y-54836090D01*
X117946005Y-54836087D01*
X117946218Y-54835797D01*
X117946392Y-54835482D01*
X117946396Y-54835476D01*
X118033057Y-54678700D01*
X118033059Y-54678695D01*
X118033282Y-54678292D01*
X118100446Y-54492152D01*
X118143691Y-54266135D01*
X118158389Y-54000054D01*
X118162267Y-53991983D01*
X118170071Y-53989000D01*
X118397929Y-53989000D01*
X118406202Y-53992427D01*
G37*
%TD.AperFunction*%
%TD*%
%TA.AperFunction,Conductor*%
%TO.N,Net-(RV2-Pad3)*%
G36*
X92220217Y-68011970D02*
G01*
X93179016Y-68934000D01*
X93300231Y-69050567D01*
X93303819Y-69058771D01*
X93300231Y-69067433D01*
X92731354Y-69614494D01*
X92220217Y-70106030D01*
X92211878Y-70109295D01*
X92206465Y-70107847D01*
X91992759Y-69990217D01*
X91991755Y-69989596D01*
X91809676Y-69863919D01*
X91808936Y-69863364D01*
X91654094Y-69737327D01*
X91653740Y-69737027D01*
X91514911Y-69614572D01*
X91514866Y-69614532D01*
X91380908Y-69499725D01*
X91380749Y-69499608D01*
X91380740Y-69499601D01*
X91241090Y-69396996D01*
X91241087Y-69396994D01*
X91240797Y-69396781D01*
X91240482Y-69396607D01*
X91240476Y-69396603D01*
X91083700Y-69309942D01*
X91083695Y-69309940D01*
X91083292Y-69309717D01*
X90897152Y-69242553D01*
X90896700Y-69242466D01*
X90896698Y-69242466D01*
X90671522Y-69199382D01*
X90671521Y-69199382D01*
X90671135Y-69199308D01*
X90405054Y-69184611D01*
X90396983Y-69180733D01*
X90394000Y-69172929D01*
X90394000Y-68945071D01*
X90397427Y-68936798D01*
X90405054Y-68933389D01*
X90671135Y-68918691D01*
X90671522Y-68918617D01*
X90896698Y-68875533D01*
X90896700Y-68875533D01*
X90897152Y-68875446D01*
X91083292Y-68808282D01*
X91083695Y-68808059D01*
X91083700Y-68808057D01*
X91240476Y-68721396D01*
X91240482Y-68721392D01*
X91240797Y-68721218D01*
X91241090Y-68721003D01*
X91380740Y-68618398D01*
X91380749Y-68618391D01*
X91380908Y-68618274D01*
X91514866Y-68503467D01*
X91566396Y-68458014D01*
X91653740Y-68380972D01*
X91654094Y-68380672D01*
X91808936Y-68254635D01*
X91809676Y-68254080D01*
X91991755Y-68128403D01*
X91992759Y-68127782D01*
X92206465Y-68010153D01*
X92215365Y-68009166D01*
X92220217Y-68011970D01*
G37*
%TD.AperFunction*%
%TD*%
%TA.AperFunction,Conductor*%
%TO.N,Net-(RV2-Pad3)*%
G36*
X108046162Y-44477427D02*
G01*
X108049573Y-44485096D01*
X108059302Y-44673398D01*
X108088473Y-44836872D01*
X108133914Y-44972273D01*
X108193021Y-45087451D01*
X108263195Y-45190258D01*
X108341832Y-45288544D01*
X108341864Y-45288582D01*
X108426213Y-45390015D01*
X108426451Y-45390311D01*
X108513850Y-45502642D01*
X108514317Y-45503286D01*
X108582492Y-45604926D01*
X108602218Y-45634336D01*
X108602775Y-45635255D01*
X108684898Y-45785966D01*
X108685847Y-45794870D01*
X108683057Y-45799674D01*
X107932433Y-46580231D01*
X107924229Y-46583819D01*
X107915567Y-46580231D01*
X107164943Y-45799674D01*
X107161678Y-45791335D01*
X107163102Y-45785966D01*
X107245224Y-45635255D01*
X107245781Y-45634336D01*
X107265507Y-45604926D01*
X107333682Y-45503286D01*
X107334149Y-45502642D01*
X107421548Y-45390311D01*
X107421786Y-45390015D01*
X107506135Y-45288582D01*
X107506167Y-45288544D01*
X107584804Y-45190258D01*
X107654978Y-45087451D01*
X107714085Y-44972273D01*
X107759526Y-44836872D01*
X107788697Y-44673398D01*
X107798427Y-44485096D01*
X107802276Y-44477011D01*
X107810111Y-44474000D01*
X108037889Y-44474000D01*
X108046162Y-44477427D01*
G37*
%TD.AperFunction*%
%TD*%
%TA.AperFunction,Conductor*%
%TO.N,Net-(RV2-Pad2)*%
G36*
X81173079Y-69830439D02*
G01*
X81173575Y-69830883D01*
X81371619Y-70008193D01*
X81562016Y-70137432D01*
X81741129Y-70221560D01*
X81741573Y-70221688D01*
X81741576Y-70221689D01*
X81899481Y-70267169D01*
X81914065Y-70271370D01*
X81947561Y-70276492D01*
X82085725Y-70297620D01*
X82085737Y-70297621D01*
X82085931Y-70297651D01*
X82086149Y-70297668D01*
X82086151Y-70297668D01*
X82261780Y-70311190D01*
X82261834Y-70311194D01*
X82446661Y-70322775D01*
X82447095Y-70322811D01*
X82645735Y-70343182D01*
X82646634Y-70343311D01*
X82864260Y-70383195D01*
X82865404Y-70383464D01*
X83099694Y-70451401D01*
X83106685Y-70456995D01*
X83108133Y-70462408D01*
X83137419Y-71960492D01*
X83134154Y-71968831D01*
X83125492Y-71972419D01*
X81627408Y-71943133D01*
X81619204Y-71939545D01*
X81616400Y-71934693D01*
X81548465Y-71700406D01*
X81548194Y-71699257D01*
X81508312Y-71481642D01*
X81508181Y-71480727D01*
X81487812Y-71282109D01*
X81487774Y-71281647D01*
X81476201Y-71096946D01*
X81476194Y-71096834D01*
X81462651Y-70920931D01*
X81462621Y-70920737D01*
X81462620Y-70920725D01*
X81436426Y-70749432D01*
X81436370Y-70749065D01*
X81386560Y-70576129D01*
X81302432Y-70397016D01*
X81252048Y-70322789D01*
X81173418Y-70206950D01*
X81173416Y-70206947D01*
X81173193Y-70206619D01*
X81111020Y-70137176D01*
X80995439Y-70008079D01*
X80992474Y-69999630D01*
X80995883Y-69992002D01*
X81157002Y-69830883D01*
X81165275Y-69827456D01*
X81173079Y-69830439D01*
G37*
%TD.AperFunction*%
%TD*%
%TA.AperFunction,Conductor*%
%TO.N,Net-(RV2-Pad2)*%
G36*
X110546162Y-44477427D02*
G01*
X110549573Y-44485096D01*
X110559302Y-44673398D01*
X110588473Y-44836872D01*
X110633914Y-44972273D01*
X110693021Y-45087451D01*
X110763195Y-45190258D01*
X110841832Y-45288544D01*
X110841864Y-45288582D01*
X110926213Y-45390015D01*
X110926451Y-45390311D01*
X111013850Y-45502642D01*
X111014317Y-45503286D01*
X111082492Y-45604926D01*
X111102218Y-45634336D01*
X111102775Y-45635255D01*
X111184898Y-45785966D01*
X111185847Y-45794870D01*
X111183057Y-45799674D01*
X110432433Y-46580231D01*
X110424229Y-46583819D01*
X110415567Y-46580231D01*
X109664943Y-45799674D01*
X109661678Y-45791335D01*
X109663102Y-45785966D01*
X109745224Y-45635255D01*
X109745781Y-45634336D01*
X109765507Y-45604926D01*
X109833682Y-45503286D01*
X109834149Y-45502642D01*
X109921548Y-45390311D01*
X109921786Y-45390015D01*
X110006135Y-45288582D01*
X110006167Y-45288544D01*
X110084804Y-45190258D01*
X110154978Y-45087451D01*
X110214085Y-44972273D01*
X110259526Y-44836872D01*
X110288697Y-44673398D01*
X110298427Y-44485096D01*
X110302276Y-44477011D01*
X110310111Y-44474000D01*
X110537889Y-44474000D01*
X110546162Y-44477427D01*
G37*
%TD.AperFunction*%
%TD*%
%TA.AperFunction,Conductor*%
%TO.N,Net-(RV4-Pad2)*%
G36*
X100856023Y-71161348D02*
G01*
X101602002Y-71178183D01*
X101610195Y-71181796D01*
X101612887Y-71186334D01*
X101665560Y-71351952D01*
X101665652Y-71352258D01*
X101713366Y-71517804D01*
X101759267Y-71673116D01*
X101808917Y-71815590D01*
X101867932Y-71942802D01*
X101941926Y-72052324D01*
X102036515Y-72141730D01*
X102157314Y-72208596D01*
X102157985Y-72208780D01*
X102157987Y-72208781D01*
X102309394Y-72250345D01*
X102309937Y-72250494D01*
X102404108Y-72257681D01*
X102489190Y-72264175D01*
X102497179Y-72268221D01*
X102500000Y-72275841D01*
X102500000Y-72503552D01*
X102496573Y-72511825D01*
X102488555Y-72515249D01*
X102376123Y-72517692D01*
X102224442Y-72520988D01*
X102224429Y-72520989D01*
X102224274Y-72520992D01*
X101992556Y-72537256D01*
X101794687Y-72561224D01*
X101710353Y-72575315D01*
X101620613Y-72590310D01*
X101620596Y-72590313D01*
X101620507Y-72590328D01*
X101459858Y-72622000D01*
X101302697Y-72653648D01*
X101302431Y-72653698D01*
X101205684Y-72670860D01*
X101138761Y-72682731D01*
X101138280Y-72682806D01*
X101062761Y-72692806D01*
X100957801Y-72706704D01*
X100957177Y-72706769D01*
X100749713Y-72722982D01*
X100749087Y-72723015D01*
X100668246Y-72724989D01*
X100513272Y-72728774D01*
X100504918Y-72725550D01*
X100501664Y-72720023D01*
X100484393Y-72653648D01*
X100095494Y-71159089D01*
X100096727Y-71150221D01*
X100103871Y-71144821D01*
X100107081Y-71144447D01*
X100856023Y-71161348D01*
G37*
%TD.AperFunction*%
%TD*%
%TA.AperFunction,Conductor*%
%TO.N,Net-(RV4-Pad2)*%
G36*
X109684282Y-68236136D02*
G01*
X110323827Y-68610772D01*
X111075662Y-69051187D01*
X111081068Y-69058325D01*
X111079843Y-69067196D01*
X111077859Y-69069714D01*
X110730729Y-69403532D01*
X110000356Y-70105896D01*
X109992017Y-70109161D01*
X109986388Y-70107591D01*
X109889554Y-70051577D01*
X109804478Y-70002364D01*
X109803367Y-70001632D01*
X109631395Y-69873739D01*
X109630793Y-69873260D01*
X109584937Y-69834223D01*
X109471803Y-69737911D01*
X109322317Y-69606727D01*
X109178881Y-69491440D01*
X109178587Y-69491257D01*
X109178583Y-69491254D01*
X109038311Y-69403881D01*
X109037751Y-69403532D01*
X108965308Y-69378612D01*
X108896121Y-69354812D01*
X108896119Y-69354812D01*
X108895181Y-69354489D01*
X108833720Y-69355032D01*
X108748524Y-69355784D01*
X108748522Y-69355784D01*
X108747427Y-69355794D01*
X108746410Y-69356204D01*
X108746409Y-69356204D01*
X108591547Y-69418609D01*
X108591545Y-69418610D01*
X108590744Y-69418933D01*
X108590072Y-69419474D01*
X108590071Y-69419475D01*
X108429571Y-69548795D01*
X108420978Y-69551317D01*
X108413957Y-69547957D01*
X108253072Y-69387072D01*
X108249645Y-69378799D01*
X108253258Y-69370345D01*
X108426573Y-69204625D01*
X108427005Y-69204232D01*
X108587105Y-69065741D01*
X108587565Y-69065363D01*
X108730926Y-68953843D01*
X108731358Y-68953523D01*
X108862891Y-68860664D01*
X108863181Y-68860466D01*
X108987844Y-68777940D01*
X108987884Y-68777913D01*
X109110520Y-68697465D01*
X109110525Y-68697462D01*
X109110561Y-68697438D01*
X109235919Y-68610860D01*
X109368819Y-68509896D01*
X109451074Y-68439909D01*
X109513989Y-68386379D01*
X109514003Y-68386366D01*
X109514121Y-68386266D01*
X109514235Y-68386158D01*
X109514249Y-68386145D01*
X109670307Y-68237752D01*
X109678663Y-68234535D01*
X109684282Y-68236136D01*
G37*
%TD.AperFunction*%
%TD*%
%TA.AperFunction,Conductor*%
%TO.N,Net-(RV4-Pad2)*%
G36*
X114038478Y-44888459D02*
G01*
X114199541Y-45049522D01*
X114202968Y-45057795D01*
X114199957Y-45065630D01*
X114103114Y-45173025D01*
X114073686Y-45205659D01*
X113978721Y-45341880D01*
X113978526Y-45342272D01*
X113978523Y-45342277D01*
X113968989Y-45361443D01*
X113915109Y-45469754D01*
X113875461Y-45592993D01*
X113852386Y-45715308D01*
X113852363Y-45715512D01*
X113852362Y-45715521D01*
X113838492Y-45840411D01*
X113838483Y-45840504D01*
X113826407Y-45971827D01*
X113826366Y-45972205D01*
X113808739Y-46113428D01*
X113808608Y-46114241D01*
X113778101Y-46269043D01*
X113777845Y-46270087D01*
X113729347Y-46434725D01*
X113723722Y-46441693D01*
X113718355Y-46443117D01*
X112957149Y-46457997D01*
X112635645Y-46464282D01*
X112627306Y-46461017D01*
X112623718Y-46452355D01*
X112633108Y-45972015D01*
X112644883Y-45369646D01*
X112648471Y-45361443D01*
X112653274Y-45358654D01*
X112741282Y-45332728D01*
X112817912Y-45310154D01*
X112818956Y-45309898D01*
X112973758Y-45279391D01*
X112974571Y-45279260D01*
X113115794Y-45261633D01*
X113116172Y-45261592D01*
X113170979Y-45256552D01*
X113247588Y-45249507D01*
X113248109Y-45249449D01*
X113372478Y-45235637D01*
X113372487Y-45235636D01*
X113372691Y-45235613D01*
X113372906Y-45235573D01*
X113372909Y-45235572D01*
X113405248Y-45229471D01*
X113495006Y-45212538D01*
X113495344Y-45212429D01*
X113495349Y-45212428D01*
X113549322Y-45195064D01*
X113618245Y-45172890D01*
X113682499Y-45140926D01*
X113745722Y-45109476D01*
X113745727Y-45109473D01*
X113746119Y-45109278D01*
X113882340Y-45014313D01*
X113882613Y-45014067D01*
X114022370Y-44888043D01*
X114030809Y-44885048D01*
X114038478Y-44888459D01*
G37*
%TD.AperFunction*%
%TD*%
%TA.AperFunction,Conductor*%
%TO.N,Net-(RV4-Pad1)*%
G36*
X111600591Y-73674867D02*
G01*
X111608795Y-73678455D01*
X111611599Y-73683307D01*
X111679534Y-73917593D01*
X111679805Y-73918742D01*
X111719687Y-74136357D01*
X111719818Y-74137272D01*
X111740187Y-74335890D01*
X111740224Y-74336338D01*
X111751805Y-74521165D01*
X111765348Y-74697068D01*
X111765378Y-74697262D01*
X111765379Y-74697274D01*
X111786507Y-74835438D01*
X111791629Y-74868934D01*
X111841439Y-75041870D01*
X111925567Y-75220983D01*
X111925823Y-75221360D01*
X112044799Y-75396637D01*
X112054806Y-75411380D01*
X112055071Y-75411676D01*
X112232561Y-75609921D01*
X112235526Y-75618370D01*
X112232117Y-75625998D01*
X112070998Y-75787117D01*
X112062725Y-75790544D01*
X112054921Y-75787561D01*
X111856676Y-75610071D01*
X111856380Y-75609806D01*
X111665983Y-75480567D01*
X111486870Y-75396439D01*
X111486426Y-75396311D01*
X111486423Y-75396310D01*
X111314295Y-75346733D01*
X111313934Y-75346629D01*
X111280438Y-75341507D01*
X111142274Y-75320379D01*
X111142262Y-75320378D01*
X111142068Y-75320348D01*
X111141850Y-75320331D01*
X111141848Y-75320331D01*
X110966219Y-75306809D01*
X110966165Y-75306805D01*
X110781338Y-75295224D01*
X110780904Y-75295188D01*
X110582264Y-75274817D01*
X110581365Y-75274688D01*
X110363739Y-75234804D01*
X110362593Y-75234534D01*
X110128307Y-75166599D01*
X110121315Y-75161004D01*
X110119867Y-75155591D01*
X110090581Y-73657508D01*
X110093846Y-73649169D01*
X110102508Y-73645581D01*
X111600591Y-73674867D01*
G37*
%TD.AperFunction*%
%TD*%
%TA.AperFunction,Conductor*%
%TO.N,Net-(RV4-Pad1)*%
G36*
X116538478Y-44888459D02*
G01*
X116699541Y-45049522D01*
X116702968Y-45057795D01*
X116699957Y-45065630D01*
X116603114Y-45173025D01*
X116573686Y-45205659D01*
X116478721Y-45341880D01*
X116478526Y-45342272D01*
X116478523Y-45342277D01*
X116468989Y-45361443D01*
X116415109Y-45469754D01*
X116375461Y-45592993D01*
X116352386Y-45715308D01*
X116352363Y-45715512D01*
X116352362Y-45715521D01*
X116338492Y-45840411D01*
X116338483Y-45840504D01*
X116326407Y-45971827D01*
X116326366Y-45972205D01*
X116308739Y-46113428D01*
X116308608Y-46114241D01*
X116278101Y-46269043D01*
X116277845Y-46270087D01*
X116229347Y-46434725D01*
X116223722Y-46441693D01*
X116218355Y-46443117D01*
X115457149Y-46457997D01*
X115135645Y-46464282D01*
X115127306Y-46461017D01*
X115123718Y-46452355D01*
X115133108Y-45972015D01*
X115144883Y-45369646D01*
X115148471Y-45361443D01*
X115153274Y-45358654D01*
X115241282Y-45332728D01*
X115317912Y-45310154D01*
X115318956Y-45309898D01*
X115473758Y-45279391D01*
X115474571Y-45279260D01*
X115615794Y-45261633D01*
X115616172Y-45261592D01*
X115670979Y-45256552D01*
X115747588Y-45249507D01*
X115748109Y-45249449D01*
X115872478Y-45235637D01*
X115872487Y-45235636D01*
X115872691Y-45235613D01*
X115872906Y-45235573D01*
X115872909Y-45235572D01*
X115905248Y-45229471D01*
X115995006Y-45212538D01*
X115995344Y-45212429D01*
X115995349Y-45212428D01*
X116049322Y-45195064D01*
X116118245Y-45172890D01*
X116182499Y-45140926D01*
X116245722Y-45109476D01*
X116245727Y-45109473D01*
X116246119Y-45109278D01*
X116382340Y-45014313D01*
X116382613Y-45014067D01*
X116522370Y-44888043D01*
X116530809Y-44885048D01*
X116538478Y-44888459D01*
G37*
%TD.AperFunction*%
%TD*%
%TA.AperFunction,Conductor*%
%TO.N,Net-(RV6-Pad1)*%
G36*
X129850998Y-72330883D02*
G01*
X130012117Y-72492002D01*
X130015544Y-72500275D01*
X130012561Y-72508079D01*
X129896979Y-72637176D01*
X129834806Y-72706619D01*
X129834583Y-72706947D01*
X129834581Y-72706950D01*
X129755951Y-72822789D01*
X129705567Y-72897016D01*
X129621439Y-73076129D01*
X129571629Y-73249065D01*
X129571573Y-73249432D01*
X129545379Y-73420725D01*
X129545378Y-73420737D01*
X129545348Y-73420931D01*
X129545331Y-73421149D01*
X129545331Y-73421151D01*
X129531809Y-73596780D01*
X129531805Y-73596834D01*
X129531798Y-73596946D01*
X129520225Y-73781647D01*
X129520187Y-73782109D01*
X129499818Y-73980727D01*
X129499687Y-73981642D01*
X129459805Y-74199257D01*
X129459534Y-74200406D01*
X129391599Y-74434693D01*
X129386004Y-74441685D01*
X129380591Y-74443133D01*
X127882508Y-74472419D01*
X127874169Y-74469154D01*
X127870581Y-74460492D01*
X127899867Y-72962408D01*
X127903455Y-72954204D01*
X127908306Y-72951401D01*
X128142595Y-72883464D01*
X128143739Y-72883195D01*
X128361365Y-72843311D01*
X128362264Y-72843182D01*
X128560904Y-72822811D01*
X128561338Y-72822775D01*
X128746165Y-72811194D01*
X128746219Y-72811190D01*
X128921848Y-72797668D01*
X128921850Y-72797668D01*
X128922068Y-72797651D01*
X128922262Y-72797621D01*
X128922274Y-72797620D01*
X129060438Y-72776492D01*
X129093934Y-72771370D01*
X129108518Y-72767169D01*
X129266423Y-72721689D01*
X129266426Y-72721688D01*
X129266870Y-72721560D01*
X129445983Y-72637432D01*
X129636380Y-72508193D01*
X129654464Y-72492002D01*
X129834921Y-72330439D01*
X129843370Y-72327474D01*
X129850998Y-72330883D01*
G37*
%TD.AperFunction*%
%TD*%
%TA.AperFunction,Conductor*%
%TO.N,Net-(RV6-Pad1)*%
G36*
X120802034Y-45403102D02*
G01*
X120952744Y-45485224D01*
X120953663Y-45485781D01*
X121084713Y-45573682D01*
X121085357Y-45574149D01*
X121165073Y-45636172D01*
X121197688Y-45661548D01*
X121197984Y-45661786D01*
X121299455Y-45746167D01*
X121397741Y-45824804D01*
X121500548Y-45894978D01*
X121615726Y-45954085D01*
X121686846Y-45977953D01*
X121750721Y-45999390D01*
X121750724Y-45999391D01*
X121751127Y-45999526D01*
X121860165Y-46018983D01*
X121914241Y-46028633D01*
X121914245Y-46028633D01*
X121914601Y-46028697D01*
X121914969Y-46028716D01*
X122102904Y-46038427D01*
X122110989Y-46042276D01*
X122114000Y-46050111D01*
X122114000Y-46277889D01*
X122110573Y-46286162D01*
X122102904Y-46289573D01*
X121923259Y-46298855D01*
X121914601Y-46299302D01*
X121914245Y-46299366D01*
X121914241Y-46299366D01*
X121860165Y-46309016D01*
X121751127Y-46328473D01*
X121750724Y-46328608D01*
X121750721Y-46328609D01*
X121686846Y-46350046D01*
X121615726Y-46373914D01*
X121500548Y-46433021D01*
X121397741Y-46503195D01*
X121299455Y-46581832D01*
X121299417Y-46581864D01*
X121197984Y-46666213D01*
X121197688Y-46666451D01*
X121085357Y-46753850D01*
X121084713Y-46754317D01*
X120983073Y-46822491D01*
X120953663Y-46842218D01*
X120952744Y-46842775D01*
X120805413Y-46923057D01*
X120802034Y-46924898D01*
X120793130Y-46925847D01*
X120788326Y-46923057D01*
X120521487Y-46666451D01*
X120007769Y-46172433D01*
X120004181Y-46164229D01*
X120007769Y-46155567D01*
X120117431Y-46050111D01*
X120788326Y-45404943D01*
X120796665Y-45401678D01*
X120802034Y-45403102D01*
G37*
%TD.AperFunction*%
%TD*%
%TA.AperFunction,Conductor*%
%TO.N,Net-(RV2-Pad1)*%
G36*
X86451490Y-41457502D02*
G01*
X86497983Y-41511158D01*
X86508087Y-41581432D01*
X86478593Y-41646012D01*
X86431588Y-41679908D01*
X86088678Y-41821949D01*
X85700636Y-42016193D01*
X85698710Y-42017336D01*
X85386485Y-42202592D01*
X85327441Y-42237625D01*
X84970993Y-42485117D01*
X84969252Y-42486520D01*
X84969248Y-42486523D01*
X84877093Y-42560788D01*
X84633110Y-42757407D01*
X84631477Y-42758927D01*
X84631474Y-42758930D01*
X84337855Y-43032305D01*
X84328457Y-43040170D01*
X84327815Y-43040721D01*
X84324508Y-43043204D01*
X84314960Y-43052555D01*
X84312419Y-43055796D01*
X84295746Y-43077060D01*
X84285686Y-43088409D01*
X78654022Y-48720072D01*
X78640578Y-48731738D01*
X78625413Y-48743124D01*
X78625407Y-48743129D01*
X78622104Y-48745609D01*
X78612555Y-48754960D01*
X78610006Y-48758210D01*
X78609694Y-48758559D01*
X78603231Y-48766119D01*
X78326594Y-49063243D01*
X78317407Y-49073110D01*
X78316000Y-49074856D01*
X78121921Y-49315688D01*
X78045117Y-49410993D01*
X77797625Y-49767441D01*
X77796474Y-49769381D01*
X77796472Y-49769384D01*
X77719541Y-49899042D01*
X77576193Y-50140636D01*
X77381949Y-50528678D01*
X77215883Y-50929588D01*
X77078840Y-51341324D01*
X77070218Y-51375105D01*
X76972987Y-51756037D01*
X76971519Y-51761787D01*
X76971124Y-51763974D01*
X76971122Y-51763985D01*
X76940889Y-51931549D01*
X76894468Y-52188835D01*
X76848078Y-52620292D01*
X76833728Y-53022027D01*
X76833663Y-53023839D01*
X76832757Y-53034035D01*
X76832569Y-53036503D01*
X76831987Y-53040595D01*
X76831847Y-53053959D01*
X76832342Y-53058052D01*
X76832343Y-53058065D01*
X76835587Y-53084874D01*
X76836500Y-53100011D01*
X76836500Y-63997044D01*
X76835243Y-64014797D01*
X76831987Y-64037676D01*
X76831847Y-64051040D01*
X76832343Y-64055140D01*
X76832370Y-64055624D01*
X76833145Y-64065518D01*
X76848118Y-64484704D01*
X76894507Y-64916158D01*
X76971556Y-65343204D01*
X77078874Y-65763665D01*
X77079577Y-65765778D01*
X77079582Y-65765794D01*
X77121252Y-65890990D01*
X77215914Y-66175398D01*
X77216767Y-66177458D01*
X77216771Y-66177468D01*
X77374771Y-66558912D01*
X77381976Y-66576307D01*
X77576216Y-66964347D01*
X77797643Y-67337542D01*
X77798925Y-67339388D01*
X77798926Y-67339390D01*
X78033977Y-67677926D01*
X78045130Y-67693990D01*
X78046523Y-67695718D01*
X78046533Y-67695732D01*
X78190979Y-67874978D01*
X78317414Y-68031875D01*
X78318931Y-68033504D01*
X78318948Y-68033524D01*
X78592238Y-68327059D01*
X78600460Y-68336882D01*
X78600722Y-68337187D01*
X78603198Y-68340485D01*
X78612549Y-68350033D01*
X78615791Y-68352575D01*
X78615792Y-68352576D01*
X78637056Y-68369249D01*
X78648404Y-68379308D01*
X80590409Y-70321314D01*
X80606193Y-70340577D01*
X80610373Y-70346856D01*
X80610379Y-70346863D01*
X80612866Y-70350599D01*
X80615867Y-70353950D01*
X80615867Y-70353951D01*
X80762022Y-70517197D01*
X80772400Y-70530479D01*
X80849269Y-70643724D01*
X80859064Y-70660921D01*
X80900162Y-70748421D01*
X80907192Y-70767112D01*
X80928474Y-70840995D01*
X80931525Y-70851589D01*
X80934999Y-70867419D01*
X80951429Y-70974869D01*
X80952505Y-70984241D01*
X80955998Y-71029605D01*
X80958868Y-71066878D01*
X80963860Y-71131721D01*
X80963982Y-71133473D01*
X80975279Y-71313759D01*
X80976002Y-71323741D01*
X80976040Y-71324203D01*
X80976991Y-71334496D01*
X80977017Y-71334750D01*
X80977021Y-71334791D01*
X80980978Y-71373372D01*
X80997360Y-71533114D01*
X80999864Y-71553502D01*
X80999995Y-71554417D01*
X81000091Y-71555003D01*
X81002833Y-71571810D01*
X81003224Y-71574209D01*
X81043106Y-71791824D01*
X81048407Y-71817135D01*
X81048678Y-71818284D01*
X81055280Y-71843412D01*
X81097815Y-71990101D01*
X81100374Y-72000594D01*
X81102010Y-72008818D01*
X81107091Y-72022970D01*
X81109507Y-72030426D01*
X81123215Y-72077699D01*
X81124712Y-72081209D01*
X81124713Y-72081212D01*
X81144068Y-72126596D01*
X81146756Y-72133446D01*
X81158257Y-72165478D01*
X81186314Y-72243622D01*
X81304398Y-72463386D01*
X81307193Y-72467130D01*
X81307195Y-72467132D01*
X81320048Y-72484344D01*
X81453668Y-72663283D01*
X81630844Y-72838921D01*
X81634606Y-72841679D01*
X81634609Y-72841682D01*
X81746139Y-72923458D01*
X81832036Y-72986440D01*
X81836171Y-72988616D01*
X81836175Y-72988618D01*
X81915736Y-73030477D01*
X82052823Y-73102602D01*
X82118648Y-73125589D01*
X82282550Y-73182826D01*
X82288354Y-73184853D01*
X82292947Y-73185725D01*
X82528867Y-73230516D01*
X82528870Y-73230516D01*
X82533456Y-73231387D01*
X82658099Y-73236284D01*
X82778075Y-73240999D01*
X82778081Y-73240999D01*
X82782743Y-73241182D01*
X82872181Y-73231387D01*
X83026087Y-73214532D01*
X83026092Y-73214531D01*
X83030740Y-73214022D01*
X83115106Y-73191810D01*
X83267476Y-73151694D01*
X83267478Y-73151693D01*
X83271999Y-73150503D01*
X83330014Y-73125578D01*
X83496924Y-73053868D01*
X83496926Y-73053867D01*
X83501218Y-73052023D01*
X83603679Y-72988618D01*
X83709391Y-72923202D01*
X83709395Y-72923199D01*
X83713364Y-72920743D01*
X83903775Y-72759548D01*
X83950264Y-72706538D01*
X83951100Y-72705585D01*
X91734999Y-72705585D01*
X91739572Y-72715361D01*
X92711190Y-73686980D01*
X92725131Y-73694592D01*
X92726966Y-73694461D01*
X92733580Y-73690210D01*
X93704929Y-72718860D01*
X93711313Y-72707169D01*
X93701903Y-72695061D01*
X93581873Y-72611793D01*
X93573846Y-72607065D01*
X93358540Y-72500888D01*
X93349907Y-72497400D01*
X93121265Y-72424211D01*
X93112214Y-72422038D01*
X92875269Y-72383449D01*
X92865980Y-72382637D01*
X92625950Y-72379495D01*
X92616638Y-72380065D01*
X92378776Y-72412436D01*
X92369658Y-72414374D01*
X92139203Y-72481546D01*
X92130450Y-72484818D01*
X91912454Y-72585316D01*
X91904299Y-72589836D01*
X91744136Y-72694844D01*
X91734999Y-72705585D01*
X83951100Y-72705585D01*
X84065187Y-72575494D01*
X84065191Y-72575489D01*
X84068269Y-72571979D01*
X84084803Y-72546275D01*
X84171206Y-72411945D01*
X84203231Y-72362157D01*
X84305697Y-72134691D01*
X84320780Y-72081212D01*
X84372146Y-71899082D01*
X84372147Y-71899079D01*
X84373416Y-71894578D01*
X84380397Y-71839704D01*
X84404502Y-71650222D01*
X84404502Y-71650218D01*
X84404900Y-71647092D01*
X84404984Y-71643909D01*
X84406824Y-71573629D01*
X84407207Y-71559000D01*
X84397070Y-71422591D01*
X84389064Y-71314858D01*
X84389063Y-71314854D01*
X84388718Y-71310206D01*
X84333659Y-71066878D01*
X84325244Y-71045239D01*
X84244931Y-70838714D01*
X84244930Y-70838712D01*
X84243238Y-70834361D01*
X84218494Y-70791067D01*
X84174468Y-70714038D01*
X84119442Y-70617763D01*
X83964990Y-70421842D01*
X83783276Y-70250902D01*
X83620893Y-70138253D01*
X83582130Y-70111362D01*
X83582125Y-70111359D01*
X83578292Y-70108700D01*
X83574110Y-70106637D01*
X83574102Y-70106633D01*
X83358728Y-70000423D01*
X83358725Y-70000422D01*
X83354540Y-69998358D01*
X83312242Y-69984818D01*
X83282389Y-69975262D01*
X83268847Y-69970050D01*
X83246801Y-69960072D01*
X83242703Y-69958217D01*
X83008413Y-69890280D01*
X83007596Y-69890066D01*
X83007572Y-69890059D01*
X82994399Y-69886603D01*
X82982943Y-69883597D01*
X82981799Y-69883328D01*
X82974271Y-69881754D01*
X82957627Y-69878274D01*
X82957607Y-69878270D01*
X82956827Y-69878107D01*
X82739201Y-69838223D01*
X82723044Y-69835584D01*
X82720140Y-69835110D01*
X82720131Y-69835109D01*
X82719570Y-69835017D01*
X82718671Y-69834888D01*
X82718117Y-69834820D01*
X82718088Y-69834816D01*
X82698716Y-69832434D01*
X82698700Y-69832432D01*
X82698121Y-69832361D01*
X82638571Y-69826254D01*
X82499827Y-69812025D01*
X82499751Y-69812018D01*
X82499481Y-69811990D01*
X82489544Y-69811069D01*
X82489110Y-69811033D01*
X82478773Y-69810280D01*
X82438381Y-69807749D01*
X82298525Y-69798986D01*
X82296731Y-69798861D01*
X82149241Y-69787505D01*
X82139869Y-69786429D01*
X82032419Y-69769999D01*
X82016594Y-69766526D01*
X81932112Y-69742192D01*
X81913421Y-69735162D01*
X81825921Y-69694064D01*
X81808724Y-69684269D01*
X81695479Y-69607400D01*
X81682197Y-69597022D01*
X81516511Y-69448682D01*
X81516496Y-69448669D01*
X81515599Y-69447866D01*
X81484129Y-69421868D01*
X81484351Y-69421599D01*
X81473532Y-69412627D01*
X79547112Y-67486207D01*
X79536244Y-67473815D01*
X79519736Y-67452301D01*
X79513521Y-67447322D01*
X79501546Y-67437727D01*
X79487804Y-67424924D01*
X79258847Y-67177240D01*
X79252422Y-67169717D01*
X79108771Y-66987497D01*
X79024821Y-66881007D01*
X79019012Y-66873011D01*
X78814775Y-66567348D01*
X78809605Y-66558912D01*
X78629971Y-66238152D01*
X78625480Y-66229337D01*
X78471572Y-65895486D01*
X78467786Y-65886346D01*
X78340543Y-65541441D01*
X78337486Y-65532032D01*
X78237698Y-65178216D01*
X78235388Y-65168596D01*
X78163664Y-64808025D01*
X78162117Y-64798262D01*
X78125004Y-64484704D01*
X78118904Y-64433167D01*
X78118129Y-64423317D01*
X78113242Y-64298931D01*
X78105186Y-64093928D01*
X78106167Y-64072537D01*
X78107127Y-64065248D01*
X78107127Y-64065243D01*
X78108118Y-64057715D01*
X78104261Y-64022781D01*
X78103500Y-64008954D01*
X78103500Y-61729024D01*
X78123502Y-61660903D01*
X78177158Y-61614410D01*
X78247432Y-61604306D01*
X78312012Y-61633800D01*
X78349052Y-61689233D01*
X78485904Y-62100402D01*
X78486757Y-62102462D01*
X78486761Y-62102472D01*
X78651111Y-62499245D01*
X78651967Y-62501311D01*
X78652969Y-62503312D01*
X78652970Y-62503315D01*
X78665954Y-62529254D01*
X78846207Y-62889352D01*
X78847348Y-62891276D01*
X78847354Y-62891286D01*
X78972523Y-63102246D01*
X79067635Y-63262548D01*
X79315122Y-63618996D01*
X79316515Y-63620724D01*
X79316525Y-63620738D01*
X79467020Y-63807490D01*
X79587406Y-63956881D01*
X79862308Y-64252148D01*
X79870178Y-64261553D01*
X79870718Y-64262181D01*
X79873198Y-64265485D01*
X79882549Y-64275033D01*
X79885791Y-64277575D01*
X79885792Y-64277576D01*
X79907056Y-64294249D01*
X79918404Y-64304308D01*
X83489074Y-67874978D01*
X83500738Y-67888419D01*
X83514615Y-67906901D01*
X83523966Y-67916450D01*
X83527215Y-67918997D01*
X83527601Y-67919343D01*
X83535121Y-67925769D01*
X83842117Y-68211593D01*
X83843853Y-68212992D01*
X83843860Y-68212998D01*
X84178248Y-68482465D01*
X84178256Y-68482471D01*
X84180002Y-68483878D01*
X84536451Y-68731364D01*
X84538386Y-68732512D01*
X84907713Y-68951645D01*
X84907723Y-68951651D01*
X84909647Y-68952792D01*
X85297688Y-69147032D01*
X85299749Y-69147886D01*
X85299754Y-69147888D01*
X85696527Y-69312238D01*
X85696537Y-69312242D01*
X85698597Y-69313095D01*
X85711096Y-69317255D01*
X86108202Y-69449427D01*
X86108217Y-69449432D01*
X86110331Y-69450135D01*
X86530793Y-69557453D01*
X86532988Y-69557849D01*
X86532997Y-69557851D01*
X86700223Y-69588023D01*
X86957839Y-69634503D01*
X87247665Y-69665664D01*
X87387051Y-69680651D01*
X87387055Y-69680651D01*
X87389294Y-69680892D01*
X87792566Y-69695298D01*
X87804279Y-69696338D01*
X87805508Y-69696431D01*
X87809595Y-69697013D01*
X87816398Y-69697084D01*
X87818834Y-69697110D01*
X87818837Y-69697110D01*
X87822959Y-69697153D01*
X87827052Y-69696658D01*
X87827065Y-69696657D01*
X87853874Y-69693413D01*
X87869011Y-69692500D01*
X90340147Y-69692500D01*
X90364930Y-69694961D01*
X90376734Y-69697329D01*
X90381222Y-69697577D01*
X90381223Y-69697577D01*
X90457832Y-69701808D01*
X90600009Y-69709661D01*
X90616735Y-69711714D01*
X90751168Y-69737436D01*
X90770252Y-69742670D01*
X90861187Y-69775482D01*
X90879377Y-69783728D01*
X90956310Y-69826254D01*
X90969959Y-69834989D01*
X91057553Y-69899348D01*
X91064941Y-69905215D01*
X91177316Y-70001523D01*
X91178591Y-70002632D01*
X91314061Y-70122125D01*
X91321751Y-70128774D01*
X91322105Y-70129074D01*
X91322351Y-70129279D01*
X91322403Y-70129322D01*
X91329623Y-70135319D01*
X91329691Y-70135374D01*
X91329932Y-70135575D01*
X91330266Y-70135847D01*
X91330282Y-70135860D01*
X91484299Y-70261226D01*
X91484336Y-70261256D01*
X91484774Y-70261612D01*
X91500836Y-70274164D01*
X91501576Y-70274719D01*
X91502038Y-70275052D01*
X91502055Y-70275064D01*
X91516520Y-70285474D01*
X91517980Y-70286525D01*
X91700059Y-70412202D01*
X91721637Y-70426309D01*
X91722641Y-70426930D01*
X91745146Y-70440072D01*
X91745824Y-70440445D01*
X91745836Y-70440452D01*
X91955514Y-70555865D01*
X91955518Y-70555867D01*
X91958852Y-70557702D01*
X91962384Y-70559122D01*
X91989484Y-70570018D01*
X92001148Y-70575415D01*
X92048675Y-70600420D01*
X92048679Y-70600422D01*
X92052823Y-70602602D01*
X92183347Y-70648183D01*
X92282550Y-70682826D01*
X92288354Y-70684853D01*
X92292947Y-70685725D01*
X92528867Y-70730516D01*
X92528870Y-70730516D01*
X92533456Y-70731387D01*
X92658099Y-70736284D01*
X92778075Y-70740999D01*
X92778081Y-70740999D01*
X92782743Y-70741182D01*
X92872181Y-70731387D01*
X93026087Y-70714532D01*
X93026092Y-70714531D01*
X93030740Y-70714022D01*
X93087991Y-70698949D01*
X93267476Y-70651694D01*
X93267478Y-70651693D01*
X93271999Y-70650503D01*
X93287778Y-70643724D01*
X93496924Y-70553868D01*
X93496926Y-70553867D01*
X93501218Y-70552023D01*
X93603681Y-70488617D01*
X93709391Y-70423202D01*
X93709395Y-70423199D01*
X93713364Y-70420743D01*
X93802389Y-70345378D01*
X93900209Y-70262567D01*
X93900210Y-70262566D01*
X93903775Y-70259548D01*
X93949710Y-70207169D01*
X94065187Y-70075494D01*
X94065191Y-70075489D01*
X94068269Y-70071979D01*
X94084803Y-70046275D01*
X94189530Y-69883457D01*
X94203231Y-69862157D01*
X94305697Y-69634691D01*
X94327368Y-69557851D01*
X94372146Y-69399082D01*
X94372147Y-69399079D01*
X94373416Y-69394578D01*
X94397433Y-69205790D01*
X94404502Y-69150222D01*
X94404502Y-69150218D01*
X94404900Y-69147092D01*
X94407207Y-69059000D01*
X94390448Y-68833485D01*
X94389064Y-68814858D01*
X94389063Y-68814854D01*
X94388718Y-68810206D01*
X94333659Y-68566878D01*
X94326606Y-68548741D01*
X94244931Y-68338714D01*
X94244930Y-68338712D01*
X94243238Y-68334361D01*
X94218634Y-68291312D01*
X94177104Y-68218651D01*
X94119442Y-68117763D01*
X93964990Y-67921842D01*
X93783276Y-67750902D01*
X93582751Y-67611793D01*
X93582130Y-67611362D01*
X93582125Y-67611359D01*
X93578292Y-67608700D01*
X93574110Y-67606637D01*
X93574102Y-67606633D01*
X93358728Y-67500423D01*
X93358725Y-67500422D01*
X93354540Y-67498358D01*
X93116937Y-67422300D01*
X93112330Y-67421550D01*
X93112327Y-67421549D01*
X92875312Y-67382949D01*
X92875313Y-67382949D01*
X92870701Y-67382198D01*
X92749753Y-67380615D01*
X92625920Y-67378994D01*
X92625917Y-67378994D01*
X92621243Y-67378933D01*
X92374042Y-67412575D01*
X92369556Y-67413883D01*
X92369554Y-67413883D01*
X92307954Y-67431838D01*
X92134528Y-67482387D01*
X92130275Y-67484347D01*
X92130274Y-67484348D01*
X91999513Y-67544630D01*
X91991192Y-67548111D01*
X91963063Y-67558710D01*
X91963056Y-67558713D01*
X91958853Y-67560297D01*
X91928353Y-67577085D01*
X91920395Y-67581104D01*
X91907965Y-67586834D01*
X91899519Y-67592372D01*
X91898036Y-67593344D01*
X91889708Y-67598357D01*
X91745147Y-67677926D01*
X91722641Y-67691069D01*
X91721637Y-67691690D01*
X91700059Y-67705797D01*
X91517980Y-67831474D01*
X91501576Y-67843280D01*
X91500836Y-67843835D01*
X91484774Y-67856387D01*
X91484336Y-67856743D01*
X91484299Y-67856773D01*
X91330282Y-67982139D01*
X91329932Y-67982424D01*
X91329691Y-67982625D01*
X91329623Y-67982680D01*
X91322403Y-67988677D01*
X91322351Y-67988720D01*
X91322105Y-67988925D01*
X91321751Y-67989225D01*
X91321598Y-67989357D01*
X91321541Y-67989406D01*
X91314358Y-67995617D01*
X91314061Y-67995874D01*
X91178591Y-68115367D01*
X91177316Y-68116476D01*
X91093316Y-68188466D01*
X91064941Y-68212784D01*
X91057553Y-68218651D01*
X90969959Y-68283010D01*
X90956310Y-68291745D01*
X90879377Y-68334271D01*
X90861187Y-68342517D01*
X90770252Y-68375329D01*
X90751168Y-68380563D01*
X90616734Y-68406285D01*
X90600007Y-68408338D01*
X90376732Y-68420671D01*
X90336080Y-68424542D01*
X90336047Y-68424194D01*
X90322061Y-68425500D01*
X87872984Y-68425500D01*
X87856537Y-68424422D01*
X87837180Y-68421873D01*
X87837177Y-68421873D01*
X87829650Y-68420882D01*
X87813577Y-68422656D01*
X87806342Y-68423455D01*
X87787569Y-68424119D01*
X87670274Y-68419510D01*
X87450674Y-68410880D01*
X87440830Y-68410106D01*
X87191247Y-68380564D01*
X87075733Y-68366891D01*
X87065962Y-68365343D01*
X86705400Y-68293622D01*
X86695780Y-68291312D01*
X86341964Y-68191523D01*
X86332555Y-68188466D01*
X85987649Y-68061223D01*
X85978509Y-68057437D01*
X85644647Y-67903524D01*
X85635832Y-67899032D01*
X85560106Y-67856623D01*
X85475461Y-67809220D01*
X85315091Y-67719408D01*
X85306655Y-67714239D01*
X85113051Y-67584877D01*
X85000975Y-67509990D01*
X84992986Y-67504186D01*
X84834103Y-67378933D01*
X84704276Y-67276585D01*
X84696753Y-67270160D01*
X84454680Y-67046390D01*
X84440249Y-67030572D01*
X84435775Y-67024741D01*
X84435769Y-67024735D01*
X84431149Y-67018714D01*
X84425225Y-67013968D01*
X84425223Y-67013966D01*
X84403717Y-66996737D01*
X84393402Y-66987497D01*
X80817112Y-63411207D01*
X80806244Y-63398815D01*
X80794361Y-63383328D01*
X80794359Y-63383326D01*
X80789736Y-63377301D01*
X80771495Y-63362687D01*
X80757751Y-63349882D01*
X80528840Y-63102246D01*
X80522415Y-63094723D01*
X80362037Y-62891286D01*
X80294813Y-62806013D01*
X80289004Y-62798017D01*
X80245769Y-62733310D01*
X80106223Y-62524464D01*
X80084761Y-62492344D01*
X80079592Y-62483908D01*
X79899968Y-62163167D01*
X79895476Y-62154352D01*
X79741563Y-61820490D01*
X79737777Y-61811350D01*
X79610533Y-61466444D01*
X79607476Y-61457035D01*
X79507688Y-61103219D01*
X79505378Y-61093599D01*
X79483063Y-60981418D01*
X79433654Y-60733027D01*
X79432107Y-60723263D01*
X79427453Y-60683936D01*
X79410400Y-60539866D01*
X79388896Y-60358181D01*
X79388120Y-60348319D01*
X79375178Y-60018990D01*
X79376159Y-59997597D01*
X79377127Y-59990247D01*
X79377127Y-59990242D01*
X79378118Y-59982715D01*
X79374261Y-59947781D01*
X79373500Y-59933954D01*
X79373500Y-54373984D01*
X79374578Y-54357537D01*
X79377127Y-54338180D01*
X79377127Y-54338177D01*
X79378118Y-54330650D01*
X79375552Y-54307402D01*
X79374889Y-54288638D01*
X79381347Y-54124274D01*
X79388130Y-53951676D01*
X79388906Y-53941822D01*
X79432120Y-53576739D01*
X79433667Y-53566968D01*
X79488523Y-53291197D01*
X79505391Y-53206400D01*
X79507698Y-53196790D01*
X79525608Y-53133291D01*
X79607490Y-52842969D01*
X79610545Y-52833566D01*
X79737791Y-52488662D01*
X79741577Y-52479522D01*
X79793421Y-52367065D01*
X79895499Y-52145647D01*
X79899976Y-52136862D01*
X80079621Y-51816091D01*
X80084777Y-51807677D01*
X80090780Y-51798694D01*
X80289029Y-51501999D01*
X80294844Y-51493996D01*
X80299227Y-51488437D01*
X80338902Y-51438110D01*
X80522434Y-51205306D01*
X80528859Y-51197783D01*
X80752788Y-50955543D01*
X80768608Y-50941111D01*
X80774250Y-50936782D01*
X80774255Y-50936777D01*
X80780279Y-50932155D01*
X80802265Y-50904713D01*
X80811501Y-50894402D01*
X86448789Y-45257114D01*
X86461179Y-45246247D01*
X86476680Y-45234353D01*
X86476683Y-45234350D01*
X86482704Y-45229730D01*
X86487450Y-45223806D01*
X86487453Y-45223803D01*
X86497153Y-45211695D01*
X86509957Y-45197952D01*
X86757783Y-44968859D01*
X86765306Y-44962434D01*
X87053996Y-44734844D01*
X87062000Y-44729028D01*
X87062545Y-44728664D01*
X87367682Y-44524774D01*
X87376113Y-44519608D01*
X87376142Y-44519592D01*
X87696862Y-44339976D01*
X87705653Y-44335496D01*
X87986747Y-44205907D01*
X88039522Y-44181577D01*
X88048662Y-44177791D01*
X88302357Y-44084195D01*
X88393571Y-44050543D01*
X88402969Y-44047490D01*
X88756801Y-43947695D01*
X88766400Y-43945391D01*
X88945599Y-43909744D01*
X89126968Y-43873667D01*
X89136739Y-43872120D01*
X89501822Y-43828906D01*
X89511676Y-43828130D01*
X89749614Y-43818780D01*
X89841071Y-43815186D01*
X89862462Y-43816167D01*
X89869751Y-43817127D01*
X89869756Y-43817127D01*
X89877284Y-43818118D01*
X89912218Y-43814261D01*
X89926045Y-43813500D01*
X105750351Y-43813500D01*
X105766795Y-43814578D01*
X105786156Y-43817127D01*
X105786160Y-43817127D01*
X105793688Y-43818118D01*
X105801242Y-43817284D01*
X105811320Y-43816172D01*
X105833383Y-43815681D01*
X105986630Y-43825722D01*
X106002970Y-43827873D01*
X106016043Y-43830473D01*
X106177937Y-43862673D01*
X106193858Y-43866938D01*
X106362803Y-43924285D01*
X106378022Y-43930589D01*
X106538038Y-44009498D01*
X106552293Y-44017729D01*
X106650711Y-44083489D01*
X106700636Y-44116848D01*
X106713711Y-44126881D01*
X106819082Y-44219287D01*
X106823710Y-44223346D01*
X106840596Y-44241375D01*
X106846057Y-44248492D01*
X106850171Y-44251788D01*
X106852869Y-44255304D01*
X106866782Y-44266450D01*
X106882729Y-44281704D01*
X106981926Y-44394820D01*
X106991958Y-44407895D01*
X107089383Y-44553703D01*
X107097621Y-44567971D01*
X107175182Y-44725253D01*
X107181485Y-44740469D01*
X107185164Y-44751306D01*
X107190695Y-44767601D01*
X107193651Y-44838536D01*
X107175435Y-44879158D01*
X107174354Y-44880741D01*
X107168687Y-44888401D01*
X107151311Y-44910119D01*
X107127162Y-44933211D01*
X107125246Y-44934608D01*
X107120683Y-44937377D01*
X107116653Y-44940874D01*
X106950690Y-45084889D01*
X106946555Y-45088477D01*
X106938641Y-45098129D01*
X106803760Y-45262627D01*
X106803756Y-45262633D01*
X106800376Y-45266755D01*
X106782448Y-45298250D01*
X106731368Y-45347555D01*
X106661738Y-45361417D01*
X106595667Y-45335434D01*
X106568427Y-45306284D01*
X106551765Y-45281535D01*
X106486559Y-45184681D01*
X106427918Y-45123209D01*
X106415347Y-45110032D01*
X106327424Y-45017865D01*
X106142458Y-44880246D01*
X106137707Y-44877830D01*
X106137703Y-44877828D01*
X106015731Y-44815815D01*
X105936949Y-44775760D01*
X105931855Y-44774178D01*
X105931852Y-44774177D01*
X105721871Y-44708976D01*
X105716773Y-44707393D01*
X105710654Y-44706582D01*
X105493511Y-44677802D01*
X105493506Y-44677802D01*
X105488226Y-44677102D01*
X105482897Y-44677302D01*
X105482895Y-44677302D01*
X105373034Y-44681427D01*
X105257842Y-44685751D01*
X105252623Y-44686846D01*
X105209429Y-44695909D01*
X105032209Y-44733093D01*
X105027250Y-44735051D01*
X105027248Y-44735052D01*
X104822744Y-44815815D01*
X104822742Y-44815816D01*
X104817779Y-44817776D01*
X104813220Y-44820543D01*
X104813217Y-44820544D01*
X104707543Y-44884669D01*
X104620683Y-44937377D01*
X104616653Y-44940874D01*
X104450690Y-45084889D01*
X104446555Y-45088477D01*
X104438641Y-45098129D01*
X104303760Y-45262627D01*
X104303756Y-45262633D01*
X104300376Y-45266755D01*
X104282448Y-45298250D01*
X104231368Y-45347555D01*
X104161738Y-45361417D01*
X104095667Y-45335434D01*
X104068427Y-45306284D01*
X104051765Y-45281535D01*
X103986559Y-45184681D01*
X103927918Y-45123209D01*
X103915347Y-45110032D01*
X103827424Y-45017865D01*
X103642458Y-44880246D01*
X103637707Y-44877830D01*
X103637703Y-44877828D01*
X103515731Y-44815815D01*
X103436949Y-44775760D01*
X103431855Y-44774178D01*
X103431852Y-44774177D01*
X103221871Y-44708976D01*
X103216773Y-44707393D01*
X103210654Y-44706582D01*
X102993511Y-44677802D01*
X102993506Y-44677802D01*
X102988226Y-44677102D01*
X102982897Y-44677302D01*
X102982895Y-44677302D01*
X102873034Y-44681427D01*
X102757842Y-44685751D01*
X102752623Y-44686846D01*
X102709429Y-44695909D01*
X102532209Y-44733093D01*
X102527250Y-44735051D01*
X102527248Y-44735052D01*
X102322744Y-44815815D01*
X102322742Y-44815816D01*
X102317779Y-44817776D01*
X102313220Y-44820543D01*
X102313217Y-44820544D01*
X102207543Y-44884669D01*
X102120683Y-44937377D01*
X102116653Y-44940874D01*
X101950690Y-45084889D01*
X101946555Y-45088477D01*
X101938641Y-45098129D01*
X101803760Y-45262627D01*
X101803756Y-45262633D01*
X101800376Y-45266755D01*
X101782448Y-45298250D01*
X101731368Y-45347555D01*
X101661738Y-45361417D01*
X101595667Y-45335434D01*
X101568427Y-45306284D01*
X101551765Y-45281535D01*
X101486559Y-45184681D01*
X101427918Y-45123209D01*
X101415347Y-45110032D01*
X101327424Y-45017865D01*
X101142458Y-44880246D01*
X101137707Y-44877830D01*
X101137703Y-44877828D01*
X101015731Y-44815815D01*
X100936949Y-44775760D01*
X100931855Y-44774178D01*
X100931852Y-44774177D01*
X100721871Y-44708976D01*
X100716773Y-44707393D01*
X100710654Y-44706582D01*
X100493511Y-44677802D01*
X100493506Y-44677802D01*
X100488226Y-44677102D01*
X100482897Y-44677302D01*
X100482895Y-44677302D01*
X100373034Y-44681427D01*
X100257842Y-44685751D01*
X100252623Y-44686846D01*
X100209429Y-44695909D01*
X100032209Y-44733093D01*
X100027250Y-44735051D01*
X100027248Y-44735052D01*
X99822744Y-44815815D01*
X99822742Y-44815816D01*
X99817779Y-44817776D01*
X99813220Y-44820543D01*
X99813217Y-44820544D01*
X99707543Y-44884669D01*
X99620683Y-44937377D01*
X99616653Y-44940874D01*
X99450690Y-45084889D01*
X99446555Y-45088477D01*
X99438641Y-45098129D01*
X99303760Y-45262627D01*
X99303756Y-45262633D01*
X99300376Y-45266755D01*
X99282448Y-45298250D01*
X99231368Y-45347555D01*
X99161738Y-45361417D01*
X99095667Y-45335434D01*
X99068427Y-45306284D01*
X99051765Y-45281535D01*
X98986559Y-45184681D01*
X98927918Y-45123209D01*
X98915347Y-45110032D01*
X98827424Y-45017865D01*
X98642458Y-44880246D01*
X98637707Y-44877830D01*
X98637703Y-44877828D01*
X98515731Y-44815815D01*
X98436949Y-44775760D01*
X98431855Y-44774178D01*
X98431852Y-44774177D01*
X98221871Y-44708976D01*
X98216773Y-44707393D01*
X98210654Y-44706582D01*
X97993511Y-44677802D01*
X97993506Y-44677802D01*
X97988226Y-44677102D01*
X97982897Y-44677302D01*
X97982895Y-44677302D01*
X97873034Y-44681427D01*
X97757842Y-44685751D01*
X97752623Y-44686846D01*
X97709429Y-44695909D01*
X97532209Y-44733093D01*
X97527250Y-44735051D01*
X97527248Y-44735052D01*
X97322744Y-44815815D01*
X97322742Y-44815816D01*
X97317779Y-44817776D01*
X97313220Y-44820543D01*
X97313217Y-44820544D01*
X97207543Y-44884669D01*
X97120683Y-44937377D01*
X97116653Y-44940874D01*
X96950690Y-45084889D01*
X96946555Y-45088477D01*
X96938641Y-45098129D01*
X96803760Y-45262627D01*
X96803756Y-45262633D01*
X96800376Y-45266755D01*
X96782448Y-45298250D01*
X96731368Y-45347555D01*
X96661738Y-45361417D01*
X96595667Y-45335434D01*
X96568427Y-45306284D01*
X96551765Y-45281535D01*
X96486559Y-45184681D01*
X96427918Y-45123209D01*
X96415347Y-45110032D01*
X96327424Y-45017865D01*
X96142458Y-44880246D01*
X96137707Y-44877830D01*
X96137703Y-44877828D01*
X96015731Y-44815815D01*
X95936949Y-44775760D01*
X95931855Y-44774178D01*
X95931852Y-44774177D01*
X95721871Y-44708976D01*
X95716773Y-44707393D01*
X95710654Y-44706582D01*
X95493511Y-44677802D01*
X95493506Y-44677802D01*
X95488226Y-44677102D01*
X95482897Y-44677302D01*
X95482895Y-44677302D01*
X95373034Y-44681427D01*
X95257842Y-44685751D01*
X95252623Y-44686846D01*
X95209429Y-44695909D01*
X95032209Y-44733093D01*
X95027250Y-44735051D01*
X95027248Y-44735052D01*
X94822744Y-44815815D01*
X94822742Y-44815816D01*
X94817779Y-44817776D01*
X94813220Y-44820543D01*
X94813217Y-44820544D01*
X94707543Y-44884669D01*
X94620683Y-44937377D01*
X94616653Y-44940874D01*
X94450690Y-45084889D01*
X94446555Y-45088477D01*
X94438641Y-45098129D01*
X94303760Y-45262627D01*
X94303756Y-45262633D01*
X94300376Y-45266755D01*
X94282448Y-45298250D01*
X94231368Y-45347555D01*
X94161738Y-45361417D01*
X94095667Y-45335434D01*
X94068427Y-45306284D01*
X94051765Y-45281535D01*
X93986559Y-45184681D01*
X93927918Y-45123209D01*
X93915347Y-45110032D01*
X93827424Y-45017865D01*
X93642458Y-44880246D01*
X93637707Y-44877830D01*
X93637703Y-44877828D01*
X93515731Y-44815815D01*
X93436949Y-44775760D01*
X93431855Y-44774178D01*
X93431852Y-44774177D01*
X93221871Y-44708976D01*
X93216773Y-44707393D01*
X93210654Y-44706582D01*
X92993511Y-44677802D01*
X92993506Y-44677802D01*
X92988226Y-44677102D01*
X92982897Y-44677302D01*
X92982895Y-44677302D01*
X92873034Y-44681427D01*
X92757842Y-44685751D01*
X92752623Y-44686846D01*
X92709429Y-44695909D01*
X92532209Y-44733093D01*
X92527250Y-44735051D01*
X92527248Y-44735052D01*
X92322744Y-44815815D01*
X92322742Y-44815816D01*
X92317779Y-44817776D01*
X92313220Y-44820543D01*
X92313217Y-44820544D01*
X92207543Y-44884669D01*
X92120683Y-44937377D01*
X92116653Y-44940874D01*
X91950690Y-45084889D01*
X91946555Y-45088477D01*
X91917330Y-45124120D01*
X91858671Y-45164114D01*
X91787701Y-45166046D01*
X91726952Y-45129302D01*
X91712752Y-45110532D01*
X91626332Y-44970880D01*
X91622478Y-44964652D01*
X91497303Y-44839695D01*
X91491072Y-44835854D01*
X91352968Y-44750725D01*
X91352966Y-44750724D01*
X91346738Y-44746885D01*
X91239986Y-44711477D01*
X91185389Y-44693368D01*
X91185387Y-44693368D01*
X91178861Y-44691203D01*
X91172025Y-44690503D01*
X91172022Y-44690502D01*
X91128969Y-44686091D01*
X91074400Y-44680500D01*
X89773600Y-44680500D01*
X89770354Y-44680837D01*
X89770350Y-44680837D01*
X89674692Y-44690762D01*
X89674688Y-44690763D01*
X89667834Y-44691474D01*
X89661298Y-44693655D01*
X89661296Y-44693655D01*
X89546369Y-44731998D01*
X89500054Y-44747450D01*
X89349652Y-44840522D01*
X89224695Y-44965697D01*
X89220855Y-44971927D01*
X89220854Y-44971928D01*
X89143194Y-45097916D01*
X89131885Y-45116262D01*
X89110472Y-45180822D01*
X89080432Y-45271390D01*
X89076203Y-45284139D01*
X89075503Y-45290975D01*
X89075502Y-45290978D01*
X89072473Y-45320543D01*
X89065500Y-45388600D01*
X89065500Y-46939400D01*
X89065837Y-46942646D01*
X89065837Y-46942650D01*
X89075199Y-47032876D01*
X89076474Y-47045166D01*
X89078655Y-47051702D01*
X89078655Y-47051704D01*
X89110405Y-47146870D01*
X89132450Y-47212946D01*
X89225522Y-47363348D01*
X89350697Y-47488305D01*
X89356927Y-47492145D01*
X89356928Y-47492146D01*
X89494090Y-47576694D01*
X89501262Y-47581115D01*
X89536938Y-47592948D01*
X89662610Y-47634632D01*
X89662615Y-47634633D01*
X89669139Y-47636797D01*
X89675977Y-47637498D01*
X89680289Y-47638422D01*
X89742703Y-47672261D01*
X89776914Y-47734471D01*
X89779706Y-47755119D01*
X89785611Y-47869402D01*
X89785730Y-47870684D01*
X89789455Y-47910949D01*
X89789179Y-47910975D01*
X89790500Y-47925292D01*
X89790500Y-50281576D01*
X89789243Y-50299332D01*
X89788105Y-50307330D01*
X89785987Y-50322207D01*
X89785847Y-50335571D01*
X89786760Y-50343117D01*
X89787080Y-50345763D01*
X89787794Y-50353832D01*
X89801679Y-50601114D01*
X89846226Y-50863318D01*
X89862221Y-50918840D01*
X89904351Y-51065077D01*
X89919852Y-51118885D01*
X89983958Y-51273654D01*
X90011988Y-51341324D01*
X90021629Y-51364601D01*
X90150278Y-51597377D01*
X90304182Y-51814285D01*
X90376782Y-51895524D01*
X90425479Y-51950016D01*
X90424219Y-51951142D01*
X90427287Y-51953533D01*
X90427458Y-51953362D01*
X90434458Y-51960362D01*
X90439312Y-51965495D01*
X90456129Y-51984312D01*
X90457092Y-51985390D01*
X90463901Y-51993696D01*
X90471407Y-52003694D01*
X90480758Y-52013242D01*
X90486519Y-52017759D01*
X90505260Y-52032454D01*
X90516609Y-52042513D01*
X90772174Y-52298078D01*
X90806200Y-52360390D01*
X90808691Y-52377286D01*
X90817561Y-52489987D01*
X90818715Y-52494794D01*
X90818716Y-52494800D01*
X90836975Y-52570854D01*
X90861464Y-52672858D01*
X90863354Y-52677420D01*
X90863354Y-52677421D01*
X90929955Y-52838207D01*
X90933435Y-52846609D01*
X90936023Y-52850833D01*
X90936025Y-52850836D01*
X90950447Y-52874370D01*
X91031700Y-53006962D01*
X91060426Y-53040595D01*
X91068928Y-53050549D01*
X91097960Y-53115338D01*
X91096916Y-53155836D01*
X91088254Y-53201557D01*
X91087478Y-53205651D01*
X91085862Y-53214615D01*
X91051402Y-53415966D01*
X91048076Y-53438354D01*
X91047945Y-53439393D01*
X91045556Y-53462576D01*
X91028442Y-53675964D01*
X91026809Y-53713711D01*
X91026798Y-53715420D01*
X91027911Y-53752687D01*
X91043152Y-53982626D01*
X91048194Y-54028004D01*
X91048516Y-54030063D01*
X91048795Y-54031441D01*
X91048798Y-54031457D01*
X91053073Y-54052560D01*
X91057630Y-54075057D01*
X91057974Y-54076434D01*
X91057975Y-54076440D01*
X91085667Y-54187406D01*
X91086995Y-54193332D01*
X91101099Y-54264239D01*
X91102010Y-54268818D01*
X91103588Y-54273212D01*
X91112910Y-54299178D01*
X91116571Y-54311241D01*
X91118410Y-54318609D01*
X91134595Y-54359738D01*
X91135890Y-54363182D01*
X91186314Y-54503622D01*
X91304398Y-54723386D01*
X91307193Y-54727130D01*
X91307195Y-54727132D01*
X91320051Y-54744348D01*
X91453668Y-54923283D01*
X91630844Y-55098921D01*
X91634606Y-55101679D01*
X91634609Y-55101682D01*
X91782395Y-55210042D01*
X91832036Y-55246440D01*
X91836171Y-55248616D01*
X91836175Y-55248618D01*
X91923217Y-55294413D01*
X92052823Y-55362602D01*
X92276018Y-55440545D01*
X92333736Y-55481887D01*
X92359939Y-55547871D01*
X92346310Y-55617547D01*
X92297174Y-55668794D01*
X92234477Y-55685500D01*
X85107856Y-55685500D01*
X85083073Y-55683039D01*
X85075686Y-55681557D01*
X85075682Y-55681556D01*
X85071268Y-55680671D01*
X85066772Y-55680423D01*
X85066767Y-55680422D01*
X84877594Y-55669973D01*
X84847992Y-55668338D01*
X84831265Y-55666285D01*
X84696831Y-55640563D01*
X84677747Y-55635329D01*
X84586812Y-55602517D01*
X84568622Y-55594271D01*
X84491689Y-55551745D01*
X84478040Y-55543010D01*
X84390446Y-55478651D01*
X84383058Y-55472784D01*
X84350919Y-55445240D01*
X84270683Y-55376476D01*
X84269408Y-55375367D01*
X84133938Y-55255874D01*
X84128823Y-55251451D01*
X84126458Y-55249406D01*
X84126401Y-55249357D01*
X84126248Y-55249225D01*
X84125894Y-55248925D01*
X84125648Y-55248720D01*
X84125596Y-55248677D01*
X84118376Y-55242680D01*
X84118308Y-55242625D01*
X84118067Y-55242424D01*
X84104004Y-55230977D01*
X83963700Y-55116773D01*
X83963663Y-55116743D01*
X83963225Y-55116387D01*
X83947163Y-55103835D01*
X83946423Y-55103280D01*
X83940367Y-55098921D01*
X83930536Y-55091846D01*
X83930530Y-55091842D01*
X83930019Y-55091474D01*
X83747940Y-54965797D01*
X83726362Y-54951690D01*
X83725358Y-54951069D01*
X83702853Y-54937926D01*
X83669459Y-54919545D01*
X83586708Y-54873996D01*
X83583522Y-54872182D01*
X83582127Y-54871360D01*
X83578292Y-54868700D01*
X83574104Y-54866635D01*
X83574098Y-54866631D01*
X83569243Y-54864237D01*
X83564220Y-54861618D01*
X83492483Y-54822132D01*
X83492474Y-54822128D01*
X83489148Y-54820297D01*
X83485621Y-54818879D01*
X83485617Y-54818877D01*
X83444814Y-54802472D01*
X83436089Y-54798573D01*
X83358728Y-54760423D01*
X83358725Y-54760422D01*
X83354540Y-54758358D01*
X83116937Y-54682300D01*
X83112330Y-54681550D01*
X83112327Y-54681549D01*
X82875312Y-54642949D01*
X82875313Y-54642949D01*
X82870701Y-54642198D01*
X82749753Y-54640615D01*
X82625920Y-54638994D01*
X82625917Y-54638994D01*
X82621243Y-54638933D01*
X82374042Y-54672575D01*
X82369556Y-54673883D01*
X82369554Y-54673883D01*
X82340677Y-54682300D01*
X82134528Y-54742387D01*
X81907965Y-54846834D01*
X81883337Y-54862981D01*
X81703242Y-54981056D01*
X81703237Y-54981060D01*
X81699329Y-54983622D01*
X81649222Y-55028344D01*
X81564962Y-55103549D01*
X81513202Y-55149746D01*
X81353675Y-55341557D01*
X81224252Y-55554840D01*
X81222443Y-55559154D01*
X81222442Y-55559156D01*
X81133777Y-55770599D01*
X81127775Y-55784911D01*
X81126624Y-55789443D01*
X81126623Y-55789446D01*
X81117117Y-55826878D01*
X81066365Y-56026714D01*
X81041370Y-56274939D01*
X81041594Y-56279606D01*
X81041594Y-56279611D01*
X81043335Y-56315851D01*
X81053339Y-56524131D01*
X81102010Y-56768818D01*
X81186314Y-57003622D01*
X81304398Y-57223386D01*
X81307193Y-57227130D01*
X81307195Y-57227132D01*
X81320051Y-57244348D01*
X81453668Y-57423283D01*
X81630844Y-57598921D01*
X81634606Y-57601679D01*
X81634609Y-57601682D01*
X81769302Y-57700442D01*
X81832036Y-57746440D01*
X81836171Y-57748616D01*
X81836175Y-57748618D01*
X81927937Y-57796896D01*
X82052823Y-57862602D01*
X82288354Y-57944853D01*
X82292947Y-57945725D01*
X82528867Y-57990516D01*
X82528870Y-57990516D01*
X82533456Y-57991387D01*
X82658100Y-57996285D01*
X82778075Y-58000999D01*
X82778081Y-58000999D01*
X82782743Y-58001182D01*
X82880134Y-57990516D01*
X83026087Y-57974532D01*
X83026092Y-57974531D01*
X83030740Y-57974022D01*
X83271999Y-57910503D01*
X83393285Y-57858395D01*
X83477173Y-57822354D01*
X83482473Y-57820218D01*
X83484935Y-57819290D01*
X83484934Y-57819290D01*
X83489149Y-57817702D01*
X83492953Y-57815608D01*
X83495163Y-57814624D01*
X83496930Y-57813865D01*
X83501218Y-57812023D01*
X83512590Y-57804986D01*
X83518134Y-57801748D01*
X83702182Y-57700442D01*
X83702188Y-57700438D01*
X83702854Y-57700072D01*
X83713959Y-57693587D01*
X83724676Y-57687329D01*
X83724715Y-57687306D01*
X83725358Y-57686930D01*
X83726362Y-57686309D01*
X83747940Y-57672202D01*
X83930019Y-57546525D01*
X83939306Y-57539841D01*
X83945944Y-57535064D01*
X83945961Y-57535052D01*
X83946423Y-57534719D01*
X83947163Y-57534164D01*
X83963225Y-57521612D01*
X83963663Y-57521256D01*
X83963700Y-57521226D01*
X84117717Y-57395860D01*
X84117733Y-57395847D01*
X84118067Y-57395575D01*
X84118308Y-57395374D01*
X84118376Y-57395319D01*
X84125596Y-57389322D01*
X84125658Y-57389270D01*
X84125894Y-57389074D01*
X84126248Y-57388774D01*
X84133937Y-57382125D01*
X84211024Y-57314130D01*
X84269319Y-57262711D01*
X84270672Y-57261535D01*
X84324106Y-57215739D01*
X84383064Y-57165208D01*
X84390426Y-57159361D01*
X84478048Y-57094983D01*
X84491685Y-57086256D01*
X84568622Y-57043728D01*
X84586812Y-57035482D01*
X84677747Y-57002670D01*
X84696831Y-56997436D01*
X84831264Y-56971714D01*
X84847990Y-56969661D01*
X84901277Y-56966718D01*
X85070023Y-56957398D01*
X85070040Y-56957397D01*
X85071266Y-56957329D01*
X85111920Y-56953458D01*
X85111953Y-56953806D01*
X85125938Y-56952500D01*
X92246525Y-56952500D01*
X92314646Y-56972502D01*
X92361139Y-57026158D01*
X92371243Y-57096432D01*
X92341749Y-57161012D01*
X92281785Y-57199466D01*
X92134528Y-57242387D01*
X92130275Y-57244347D01*
X92130274Y-57244348D01*
X92102971Y-57256935D01*
X91907965Y-57346834D01*
X91904056Y-57349397D01*
X91703242Y-57481056D01*
X91703237Y-57481060D01*
X91699329Y-57483622D01*
X91641693Y-57535064D01*
X91529008Y-57635639D01*
X91513202Y-57649746D01*
X91353675Y-57841557D01*
X91224252Y-58054840D01*
X91222443Y-58059154D01*
X91222442Y-58059156D01*
X91170984Y-58181870D01*
X91127775Y-58284911D01*
X91126625Y-58289441D01*
X91126623Y-58289446D01*
X91112454Y-58345239D01*
X91066365Y-58526714D01*
X91041370Y-58774939D01*
X91041594Y-58779606D01*
X91041594Y-58779611D01*
X91044824Y-58846850D01*
X91053339Y-59024131D01*
X91102010Y-59268818D01*
X91186314Y-59503622D01*
X91304398Y-59723386D01*
X91453668Y-59923283D01*
X91630844Y-60098921D01*
X91634606Y-60101679D01*
X91634609Y-60101682D01*
X91777015Y-60206097D01*
X91832036Y-60246440D01*
X91836171Y-60248616D01*
X91836175Y-60248618D01*
X91881045Y-60272225D01*
X92052823Y-60362602D01*
X92183347Y-60408183D01*
X92282550Y-60442826D01*
X92288354Y-60444853D01*
X92292947Y-60445725D01*
X92528867Y-60490516D01*
X92528870Y-60490516D01*
X92533456Y-60491387D01*
X92658100Y-60496285D01*
X92778075Y-60500999D01*
X92778081Y-60500999D01*
X92782743Y-60501182D01*
X92872181Y-60491387D01*
X93026087Y-60474532D01*
X93026092Y-60474531D01*
X93030740Y-60474022D01*
X93037140Y-60472337D01*
X93267476Y-60411694D01*
X93267478Y-60411693D01*
X93271999Y-60410503D01*
X93277399Y-60408183D01*
X93496924Y-60313868D01*
X93496926Y-60313867D01*
X93501218Y-60312023D01*
X93603679Y-60248618D01*
X93709391Y-60183202D01*
X93709395Y-60183199D01*
X93713364Y-60180743D01*
X93892048Y-60029476D01*
X93895309Y-60026847D01*
X93898541Y-60024715D01*
X93904363Y-60019548D01*
X94022413Y-59914766D01*
X94035484Y-59904618D01*
X94118405Y-59848564D01*
X94132503Y-59840314D01*
X94211629Y-59800671D01*
X94223467Y-59795483D01*
X94319141Y-59759278D01*
X94325354Y-59757110D01*
X94450562Y-59717066D01*
X94450852Y-59716972D01*
X94451177Y-59716866D01*
X94455129Y-59715583D01*
X94598115Y-59668419D01*
X94613704Y-59662997D01*
X94614431Y-59662731D01*
X94614892Y-59662553D01*
X94614925Y-59662541D01*
X94622912Y-59659464D01*
X94630724Y-59656454D01*
X94778154Y-59596753D01*
X94783730Y-59594321D01*
X94802293Y-59586226D01*
X94802319Y-59586214D01*
X94803090Y-59585878D01*
X94804216Y-59585351D01*
X94805000Y-59584958D01*
X94805015Y-59584951D01*
X94827930Y-59573472D01*
X94827948Y-59573463D01*
X94828670Y-59573101D01*
X94966849Y-59499218D01*
X94982901Y-59490635D01*
X94982907Y-59490632D01*
X94983748Y-59490182D01*
X95011265Y-59474357D01*
X95012487Y-59473603D01*
X95026741Y-59464196D01*
X95037812Y-59456890D01*
X95037832Y-59456876D01*
X95038625Y-59456353D01*
X95204502Y-59339468D01*
X95228825Y-59321228D01*
X95229910Y-59320363D01*
X95253197Y-59300638D01*
X95424221Y-59146816D01*
X95471997Y-59097696D01*
X95484624Y-59077644D01*
X95507632Y-59041104D01*
X95549876Y-58974016D01*
X95553752Y-58965317D01*
X95554867Y-58961698D01*
X95554874Y-58961679D01*
X95556952Y-58954932D01*
X95596123Y-58895719D01*
X95602308Y-58890824D01*
X95818172Y-58730726D01*
X95818175Y-58730724D01*
X95820654Y-58728885D01*
X95964886Y-58598160D01*
X95994065Y-58571713D01*
X95995076Y-58572828D01*
X95996205Y-58571369D01*
X95995411Y-58570493D01*
X96000332Y-58566033D01*
X96029034Y-58540019D01*
X96037995Y-58532620D01*
X96041400Y-58530064D01*
X96041412Y-58530054D01*
X96044704Y-58527582D01*
X96054252Y-58518231D01*
X96073464Y-58493729D01*
X96083523Y-58482380D01*
X96095270Y-58470633D01*
X96108712Y-58458968D01*
X96123890Y-58447572D01*
X96127193Y-58445092D01*
X96136741Y-58435741D01*
X96139286Y-58432495D01*
X96140954Y-58430633D01*
X96143801Y-58427257D01*
X96230516Y-58331582D01*
X96366206Y-58181870D01*
X96396522Y-58140995D01*
X96568211Y-57909501D01*
X96568212Y-57909499D01*
X96570045Y-57907028D01*
X96704202Y-57683202D01*
X96744376Y-57616177D01*
X96744377Y-57616174D01*
X96745963Y-57613529D01*
X96747281Y-57610743D01*
X96747285Y-57610735D01*
X96890942Y-57307002D01*
X96890944Y-57306997D01*
X96892267Y-57304200D01*
X96970250Y-57086256D01*
X97006504Y-56984937D01*
X97006506Y-56984930D01*
X97007547Y-56982021D01*
X97042276Y-56843378D01*
X97078231Y-56782161D01*
X97141576Y-56750099D01*
X97212199Y-56757374D01*
X97267678Y-56801675D01*
X97290500Y-56873996D01*
X97290500Y-59968739D01*
X97289243Y-59986491D01*
X97287211Y-60000772D01*
X97285987Y-60009371D01*
X97285847Y-60022735D01*
X97286344Y-60026839D01*
X97286478Y-60027950D01*
X97287192Y-60036018D01*
X97293757Y-60152884D01*
X97302652Y-60311246D01*
X97351059Y-60596128D01*
X97352037Y-60599524D01*
X97352039Y-60599531D01*
X97402690Y-60775340D01*
X97431057Y-60873800D01*
X97450763Y-60921374D01*
X97527944Y-61107700D01*
X97541641Y-61140768D01*
X97681421Y-61393677D01*
X97848637Y-61629346D01*
X97850982Y-61631970D01*
X97986275Y-61783362D01*
X97985163Y-61784356D01*
X97987018Y-61785802D01*
X97987458Y-61785362D01*
X97990631Y-61788535D01*
X97990937Y-61788859D01*
X97991019Y-61788923D01*
X97993064Y-61790968D01*
X97993669Y-61791748D01*
X97995487Y-61793670D01*
X98019236Y-61820245D01*
X98026040Y-61828545D01*
X98031407Y-61835694D01*
X98040758Y-61845242D01*
X98065260Y-61864454D01*
X98076609Y-61874513D01*
X98410520Y-62208424D01*
X98442000Y-62260943D01*
X98481491Y-62391131D01*
X98552759Y-62524464D01*
X98648669Y-62641331D01*
X98765536Y-62737241D01*
X98898869Y-62808509D01*
X98934975Y-62819462D01*
X99037618Y-62850598D01*
X99037624Y-62850599D01*
X99043544Y-62852395D01*
X99056669Y-62853688D01*
X99078012Y-62855790D01*
X99096992Y-62859141D01*
X99100670Y-62860085D01*
X99113970Y-62863500D01*
X99140005Y-62863500D01*
X99157759Y-62864757D01*
X99180636Y-62868013D01*
X99187548Y-62868085D01*
X99189880Y-62868110D01*
X99189882Y-62868110D01*
X99194000Y-62868153D01*
X99198090Y-62867658D01*
X99198091Y-62867658D01*
X99205747Y-62866731D01*
X99224907Y-62864413D01*
X99240042Y-62863500D01*
X104785044Y-62863500D01*
X104802797Y-62864757D01*
X104821592Y-62867432D01*
X104821595Y-62867432D01*
X104825676Y-62868013D01*
X104832181Y-62868081D01*
X104834912Y-62868110D01*
X104834916Y-62868110D01*
X104839040Y-62868153D01*
X104843133Y-62867658D01*
X104843803Y-62867621D01*
X104853397Y-62866871D01*
X105058998Y-62859526D01*
X105272705Y-62851892D01*
X105274944Y-62851651D01*
X105274948Y-62851651D01*
X105414334Y-62836664D01*
X105704160Y-62805503D01*
X105961255Y-62759117D01*
X106129002Y-62728852D01*
X106129011Y-62728850D01*
X106131206Y-62728454D01*
X106551668Y-62621135D01*
X106905853Y-62503250D01*
X106961275Y-62484804D01*
X106961277Y-62484803D01*
X106963402Y-62484096D01*
X106965462Y-62483243D01*
X106965472Y-62483239D01*
X107362246Y-62318889D01*
X107362251Y-62318887D01*
X107364312Y-62318033D01*
X107507304Y-62246456D01*
X107673692Y-62163167D01*
X107752353Y-62123792D01*
X108125548Y-61902365D01*
X108207821Y-61845242D01*
X108480161Y-61656153D01*
X108480165Y-61656150D01*
X108481997Y-61654878D01*
X108819882Y-61382593D01*
X108821521Y-61381067D01*
X108821528Y-61381061D01*
X109115140Y-61107700D01*
X109124611Y-61099772D01*
X109125187Y-61099278D01*
X109128485Y-61096801D01*
X109131755Y-61093599D01*
X109135085Y-61090337D01*
X109138033Y-61087450D01*
X109140575Y-61084208D01*
X109140584Y-61084198D01*
X109157247Y-61062947D01*
X109167305Y-61051598D01*
X109266316Y-60952588D01*
X109285577Y-60936807D01*
X109285757Y-60936687D01*
X109295600Y-60930133D01*
X109462195Y-60780978D01*
X109475477Y-60770599D01*
X109588721Y-60693731D01*
X109605919Y-60683936D01*
X109693422Y-60642837D01*
X109712113Y-60635806D01*
X109796594Y-60611473D01*
X109812419Y-60608000D01*
X109919869Y-60591570D01*
X109929241Y-60590494D01*
X110005517Y-60584621D01*
X110076716Y-60579139D01*
X110078417Y-60579021D01*
X110258775Y-60567719D01*
X110259095Y-60567696D01*
X110259135Y-60567693D01*
X110268753Y-60566992D01*
X110268751Y-60566992D01*
X110269110Y-60566966D01*
X110269544Y-60566930D01*
X110279481Y-60566009D01*
X110279751Y-60565981D01*
X110279827Y-60565974D01*
X110425476Y-60551037D01*
X110478121Y-60545638D01*
X110478700Y-60545567D01*
X110478716Y-60545565D01*
X110498088Y-60543183D01*
X110498117Y-60543179D01*
X110498671Y-60543111D01*
X110499570Y-60542982D01*
X110500131Y-60542890D01*
X110500140Y-60542889D01*
X110503044Y-60542415D01*
X110519201Y-60539776D01*
X110732566Y-60500673D01*
X110736085Y-60500028D01*
X110736086Y-60500028D01*
X110736827Y-60499892D01*
X110762018Y-60494619D01*
X110763164Y-60494349D01*
X110788412Y-60487719D01*
X110789221Y-60487484D01*
X110789237Y-60487480D01*
X111019034Y-60420847D01*
X111019038Y-60420846D01*
X111022699Y-60419784D01*
X111026207Y-60418288D01*
X111029794Y-60417008D01*
X111029873Y-60417230D01*
X111041192Y-60413348D01*
X111051999Y-60410503D01*
X111196737Y-60348319D01*
X111276924Y-60313868D01*
X111276926Y-60313867D01*
X111281218Y-60312023D01*
X111383679Y-60248618D01*
X111489391Y-60183202D01*
X111489395Y-60183199D01*
X111493364Y-60180743D01*
X111664320Y-60036018D01*
X111680209Y-60022567D01*
X111680210Y-60022566D01*
X111683775Y-60019548D01*
X111716077Y-59982715D01*
X111845187Y-59835494D01*
X111845191Y-59835489D01*
X111848269Y-59831979D01*
X111864803Y-59806275D01*
X111938279Y-59692042D01*
X111983231Y-59622157D01*
X112085697Y-59394691D01*
X112101272Y-59339468D01*
X112152146Y-59159082D01*
X112152147Y-59159079D01*
X112153416Y-59154578D01*
X112166078Y-59055048D01*
X112184502Y-58910222D01*
X112184502Y-58910218D01*
X112184900Y-58907092D01*
X112187207Y-58819000D01*
X112172825Y-58625470D01*
X112169064Y-58574858D01*
X112169063Y-58574854D01*
X112168718Y-58570206D01*
X112113659Y-58326878D01*
X112104692Y-58303820D01*
X112024931Y-58098714D01*
X112024930Y-58098712D01*
X112023238Y-58094361D01*
X112010564Y-58072185D01*
X111954750Y-57974532D01*
X111899442Y-57877763D01*
X111744990Y-57681842D01*
X111563276Y-57510902D01*
X111424974Y-57414959D01*
X111362130Y-57371362D01*
X111362125Y-57371359D01*
X111358292Y-57368700D01*
X111354105Y-57366635D01*
X111354102Y-57366633D01*
X111138728Y-57260423D01*
X111138725Y-57260422D01*
X111134540Y-57258358D01*
X110896937Y-57182300D01*
X110892330Y-57181550D01*
X110892327Y-57181549D01*
X110655312Y-57142949D01*
X110655313Y-57142949D01*
X110650701Y-57142198D01*
X110529753Y-57140615D01*
X110405920Y-57138994D01*
X110405917Y-57138994D01*
X110401243Y-57138933D01*
X110154042Y-57172575D01*
X110149556Y-57173883D01*
X110149554Y-57173883D01*
X110121576Y-57182038D01*
X109914528Y-57242387D01*
X109910275Y-57244347D01*
X109910274Y-57244348D01*
X109882971Y-57256935D01*
X109687965Y-57346834D01*
X109684056Y-57349397D01*
X109483242Y-57481056D01*
X109483237Y-57481060D01*
X109479329Y-57483622D01*
X109421693Y-57535064D01*
X109309008Y-57635639D01*
X109293202Y-57649746D01*
X109133675Y-57841557D01*
X109004252Y-58054840D01*
X109002443Y-58059154D01*
X109002442Y-58059156D01*
X108950984Y-58181870D01*
X108907775Y-58284911D01*
X108906583Y-58289605D01*
X108906179Y-58291197D01*
X108903650Y-58299339D01*
X108903215Y-58300300D01*
X108901962Y-58304622D01*
X108901961Y-58304624D01*
X108836601Y-58530032D01*
X108835280Y-58534586D01*
X108835074Y-58535371D01*
X108829444Y-58556801D01*
X108828678Y-58559715D01*
X108828407Y-58560864D01*
X108828243Y-58561646D01*
X108828241Y-58561656D01*
X108827775Y-58563884D01*
X108823106Y-58586175D01*
X108783224Y-58803790D01*
X108779995Y-58823582D01*
X108779864Y-58824497D01*
X108777360Y-58844885D01*
X108770124Y-58915440D01*
X108757171Y-59041752D01*
X108756991Y-59043503D01*
X108756973Y-59043701D01*
X108756124Y-59052873D01*
X108756054Y-59053624D01*
X108756017Y-59054072D01*
X108755280Y-59064226D01*
X108755255Y-59064630D01*
X108755253Y-59064655D01*
X108743986Y-59244474D01*
X108743861Y-59246268D01*
X108732505Y-59393758D01*
X108731429Y-59403130D01*
X108714999Y-59510580D01*
X108711526Y-59526405D01*
X108694997Y-59583792D01*
X108687193Y-59610886D01*
X108680162Y-59629578D01*
X108639064Y-59717078D01*
X108629269Y-59734275D01*
X108552400Y-59847520D01*
X108542022Y-59860802D01*
X108393681Y-60026490D01*
X108393669Y-60026504D01*
X108392865Y-60027402D01*
X108366868Y-60058871D01*
X108366598Y-60058648D01*
X108357628Y-60069467D01*
X108274211Y-60152884D01*
X108261820Y-60163751D01*
X108240301Y-60180263D01*
X108225677Y-60198516D01*
X108212877Y-60212254D01*
X108173539Y-60248618D01*
X107981406Y-60426224D01*
X107965248Y-60441160D01*
X107957728Y-60447583D01*
X107669014Y-60675185D01*
X107661024Y-60680990D01*
X107486246Y-60797773D01*
X107355344Y-60885239D01*
X107346908Y-60890408D01*
X107026167Y-61070032D01*
X107017352Y-61074524D01*
X106683490Y-61228437D01*
X106674350Y-61232223D01*
X106329444Y-61359467D01*
X106320035Y-61362524D01*
X106119964Y-61418951D01*
X105966213Y-61462314D01*
X105956606Y-61464620D01*
X105816182Y-61492553D01*
X105596037Y-61536343D01*
X105586266Y-61537890D01*
X105221180Y-61581104D01*
X105211326Y-61581880D01*
X104935583Y-61592716D01*
X104881989Y-61594822D01*
X104860597Y-61593841D01*
X104853247Y-61592873D01*
X104853242Y-61592873D01*
X104845715Y-61591882D01*
X104810782Y-61595739D01*
X104796954Y-61596500D01*
X99623365Y-61596500D01*
X99555244Y-61576498D01*
X99519121Y-61539595D01*
X99518612Y-61539965D01*
X99516103Y-61536512D01*
X99515937Y-61536342D01*
X99515705Y-61535964D01*
X99513118Y-61531742D01*
X99509906Y-61527981D01*
X99509900Y-61527973D01*
X99486736Y-61500852D01*
X99474092Y-61483160D01*
X99473823Y-61482705D01*
X99469789Y-61475884D01*
X99451379Y-61457474D01*
X99439715Y-61444034D01*
X99428314Y-61428850D01*
X99425834Y-61425547D01*
X99416483Y-61415999D01*
X99391987Y-61396792D01*
X99380638Y-61386733D01*
X98975323Y-60981418D01*
X98964455Y-60969027D01*
X98952565Y-60953531D01*
X98952563Y-60953529D01*
X98947943Y-60947508D01*
X98942014Y-60942758D01*
X98942012Y-60942756D01*
X98935924Y-60937878D01*
X98918893Y-60921374D01*
X98813328Y-60797773D01*
X98801707Y-60781778D01*
X98705012Y-60623987D01*
X98696035Y-60606371D01*
X98625207Y-60435380D01*
X98619098Y-60416577D01*
X98596933Y-60324256D01*
X98575894Y-60236627D01*
X98572801Y-60217101D01*
X98564531Y-60112042D01*
X98560596Y-60062054D01*
X98561055Y-60044527D01*
X98561047Y-60044527D01*
X98561126Y-60036932D01*
X98562118Y-60029400D01*
X98558261Y-59994468D01*
X98557500Y-59980640D01*
X98557500Y-47906516D01*
X98559874Y-47882174D01*
X98561518Y-47873823D01*
X98562389Y-47869400D01*
X98570053Y-47721058D01*
X98571844Y-47705425D01*
X98572186Y-47703512D01*
X98585705Y-47627747D01*
X98590293Y-47609796D01*
X98605405Y-47564766D01*
X98612758Y-47547326D01*
X98631634Y-47510544D01*
X98639666Y-47497038D01*
X98645896Y-47487911D01*
X98673636Y-47447270D01*
X98679300Y-47439612D01*
X98696689Y-47417880D01*
X98720834Y-47394792D01*
X98722757Y-47393390D01*
X98727317Y-47390623D01*
X98767134Y-47356072D01*
X98897412Y-47243023D01*
X98897414Y-47243021D01*
X98901445Y-47239523D01*
X98953090Y-47176537D01*
X99044240Y-47065373D01*
X99044244Y-47065367D01*
X99047624Y-47061245D01*
X99065552Y-47029750D01*
X99116632Y-46980445D01*
X99186262Y-46966583D01*
X99252333Y-46992566D01*
X99279573Y-47021716D01*
X99284983Y-47029752D01*
X99361441Y-47143319D01*
X99365120Y-47147176D01*
X99365122Y-47147178D01*
X99393129Y-47176537D01*
X99520576Y-47310135D01*
X99524854Y-47313318D01*
X99617575Y-47382305D01*
X99640746Y-47404676D01*
X99668685Y-47439595D01*
X99674363Y-47447270D01*
X99702103Y-47487911D01*
X99708333Y-47497038D01*
X99716365Y-47510544D01*
X99735241Y-47547326D01*
X99742594Y-47564766D01*
X99757706Y-47609796D01*
X99762294Y-47627750D01*
X99776155Y-47705427D01*
X99777946Y-47721058D01*
X99785611Y-47869402D01*
X99785730Y-47870684D01*
X99789455Y-47910949D01*
X99789179Y-47910975D01*
X99790500Y-47925292D01*
X99790500Y-53925756D01*
X99788079Y-53950337D01*
X99785642Y-53962589D01*
X99773185Y-54195007D01*
X99773180Y-54195091D01*
X99771275Y-54211178D01*
X99748602Y-54334205D01*
X99744486Y-54356542D01*
X99739718Y-54374697D01*
X99731541Y-54398464D01*
X99704486Y-54477099D01*
X99697106Y-54494284D01*
X99651271Y-54582337D01*
X99643625Y-54595117D01*
X99576726Y-54693256D01*
X99571877Y-54699892D01*
X99514160Y-54773669D01*
X99475421Y-54823187D01*
X99474967Y-54823763D01*
X99359748Y-54969273D01*
X99352198Y-54979047D01*
X99351868Y-54979485D01*
X99344926Y-54988921D01*
X99344745Y-54989173D01*
X99344721Y-54989206D01*
X99229412Y-55149746D01*
X99226959Y-55153161D01*
X99214618Y-55171136D01*
X99214077Y-55171961D01*
X99202657Y-55190199D01*
X99202348Y-55190716D01*
X99202331Y-55190744D01*
X99167722Y-55248677D01*
X99087290Y-55383315D01*
X99074303Y-55406384D01*
X99073737Y-55407453D01*
X99073403Y-55408126D01*
X99073393Y-55408145D01*
X99062250Y-55430581D01*
X99061885Y-55431316D01*
X99061552Y-55432032D01*
X99061533Y-55432072D01*
X99005216Y-55553251D01*
X99004437Y-55552889D01*
X99003987Y-55554736D01*
X99004250Y-55554846D01*
X99002449Y-55559139D01*
X99002188Y-55559652D01*
X99001157Y-55561985D01*
X98960434Y-55649610D01*
X98956626Y-55657803D01*
X98955452Y-55661417D01*
X98955448Y-55661427D01*
X98942937Y-55699940D01*
X98939305Y-55709720D01*
X98907775Y-55784911D01*
X98846365Y-56026714D01*
X98821370Y-56274939D01*
X98821594Y-56279606D01*
X98821594Y-56279611D01*
X98823335Y-56315851D01*
X98833339Y-56524131D01*
X98882010Y-56768818D01*
X98966314Y-57003622D01*
X99084398Y-57223386D01*
X99087193Y-57227130D01*
X99087195Y-57227132D01*
X99100051Y-57244348D01*
X99233668Y-57423283D01*
X99410844Y-57598921D01*
X99414606Y-57601679D01*
X99414609Y-57601682D01*
X99549302Y-57700442D01*
X99612036Y-57746440D01*
X99616171Y-57748616D01*
X99616175Y-57748618D01*
X99707937Y-57796896D01*
X99832823Y-57862602D01*
X100068354Y-57944853D01*
X100072947Y-57945725D01*
X100308867Y-57990516D01*
X100308870Y-57990516D01*
X100313456Y-57991387D01*
X100438100Y-57996285D01*
X100558075Y-58000999D01*
X100558081Y-58000999D01*
X100562743Y-58001182D01*
X100660134Y-57990516D01*
X100806087Y-57974532D01*
X100806092Y-57974531D01*
X100810740Y-57974022D01*
X100815264Y-57972831D01*
X101047476Y-57911694D01*
X101047478Y-57911693D01*
X101051999Y-57910503D01*
X101058791Y-57907585D01*
X101276924Y-57813868D01*
X101276926Y-57813867D01*
X101281218Y-57812023D01*
X101413160Y-57730375D01*
X101489391Y-57683202D01*
X101489395Y-57683199D01*
X101493364Y-57680743D01*
X101633404Y-57562190D01*
X101680209Y-57522567D01*
X101680210Y-57522566D01*
X101683775Y-57519548D01*
X101717532Y-57481056D01*
X101845187Y-57335494D01*
X101845191Y-57335489D01*
X101848269Y-57331979D01*
X101905897Y-57242387D01*
X101966202Y-57148631D01*
X101983231Y-57122157D01*
X102085697Y-56894691D01*
X102117434Y-56782161D01*
X102152146Y-56659082D01*
X102152147Y-56659079D01*
X102153416Y-56654578D01*
X102174731Y-56487030D01*
X102184502Y-56410222D01*
X102184502Y-56410218D01*
X102184900Y-56407092D01*
X102187207Y-56319000D01*
X102168718Y-56070206D01*
X102113659Y-55826878D01*
X102111966Y-55822524D01*
X102024931Y-55598714D01*
X102024930Y-55598712D01*
X102023238Y-55594361D01*
X102007581Y-55566966D01*
X101967600Y-55497015D01*
X101962306Y-55486674D01*
X101949354Y-55458207D01*
X101949352Y-55458203D01*
X101947490Y-55454111D01*
X101941807Y-55445240D01*
X101908330Y-55392990D01*
X101905036Y-55387552D01*
X101899442Y-55377763D01*
X101896544Y-55374087D01*
X101893932Y-55370215D01*
X101893971Y-55370189D01*
X101891484Y-55366696D01*
X101818087Y-55252136D01*
X101818082Y-55252128D01*
X101817648Y-55251451D01*
X101803825Y-55230977D01*
X101803191Y-55230085D01*
X101788637Y-55210602D01*
X101757483Y-55170895D01*
X109516851Y-55170895D01*
X109525563Y-55182415D01*
X109608529Y-55243249D01*
X109616444Y-55248194D01*
X109828873Y-55359959D01*
X109837447Y-55363687D01*
X110064067Y-55442826D01*
X110073077Y-55445240D01*
X110308923Y-55490017D01*
X110318180Y-55491071D01*
X110558058Y-55500497D01*
X110567372Y-55500171D01*
X110805996Y-55474038D01*
X110815173Y-55472337D01*
X111047312Y-55411220D01*
X111056132Y-55408183D01*
X111276693Y-55313423D01*
X111284965Y-55309116D01*
X111488026Y-55183458D01*
X111494751Y-55173253D01*
X111488688Y-55162899D01*
X110516810Y-54191020D01*
X110502869Y-54183408D01*
X110501034Y-54183539D01*
X110494420Y-54187790D01*
X109523509Y-55158702D01*
X109516851Y-55170895D01*
X101757483Y-55170895D01*
X101653019Y-55037751D01*
X101652441Y-55037042D01*
X101641750Y-55023907D01*
X101641722Y-55023873D01*
X101641375Y-55023447D01*
X101640838Y-55022811D01*
X101640545Y-55022476D01*
X101640520Y-55022447D01*
X101629265Y-55009585D01*
X101628917Y-55009187D01*
X101495371Y-54861884D01*
X101490720Y-54856823D01*
X101490476Y-54856561D01*
X101484415Y-54850163D01*
X101483677Y-54849397D01*
X101361765Y-54722914D01*
X101359727Y-54720750D01*
X101264602Y-54617281D01*
X101257753Y-54609171D01*
X101196146Y-54529650D01*
X101186490Y-54515235D01*
X101146851Y-54446217D01*
X101137964Y-54427247D01*
X101124168Y-54390018D01*
X101107050Y-54343824D01*
X101101524Y-54324133D01*
X101100190Y-54317284D01*
X101076613Y-54196235D01*
X101074486Y-54179181D01*
X101073941Y-54169417D01*
X101067514Y-54054402D01*
X101062386Y-53962625D01*
X101062384Y-53962603D01*
X101062317Y-53961398D01*
X101058440Y-53920899D01*
X101058803Y-53920864D01*
X101057500Y-53906949D01*
X101057500Y-53779624D01*
X108822096Y-53779624D01*
X108833614Y-54019398D01*
X108834751Y-54028658D01*
X108881581Y-54264095D01*
X108884075Y-54273088D01*
X108965189Y-54499009D01*
X108968989Y-54507544D01*
X109082607Y-54718996D01*
X109087618Y-54726863D01*
X109140609Y-54797826D01*
X109151867Y-54806275D01*
X109164286Y-54799503D01*
X110131980Y-53831810D01*
X110138357Y-53820131D01*
X110868408Y-53820131D01*
X110868539Y-53821966D01*
X110872790Y-53828580D01*
X111846024Y-54801813D01*
X111858404Y-54808573D01*
X111866745Y-54802330D01*
X111980265Y-54625843D01*
X111984708Y-54617659D01*
X112083304Y-54398783D01*
X112086494Y-54390018D01*
X112151654Y-54158981D01*
X112153514Y-54149839D01*
X112184001Y-53910196D01*
X112184482Y-53903909D01*
X112186622Y-53822160D01*
X112186471Y-53815851D01*
X112168568Y-53574932D01*
X112167191Y-53565726D01*
X112114210Y-53331582D01*
X112111486Y-53322671D01*
X112024478Y-53098930D01*
X112020467Y-53090521D01*
X111901347Y-52882105D01*
X111896130Y-52874370D01*
X111868425Y-52839227D01*
X111856501Y-52830758D01*
X111844965Y-52837246D01*
X110876020Y-53806190D01*
X110868408Y-53820131D01*
X110138357Y-53820131D01*
X110139592Y-53817869D01*
X110139461Y-53816034D01*
X110135210Y-53809420D01*
X109162131Y-52836342D01*
X109148823Y-52829075D01*
X109138786Y-52836195D01*
X109137076Y-52838251D01*
X109131655Y-52845851D01*
X109007127Y-53051067D01*
X109002889Y-53059384D01*
X108910060Y-53280755D01*
X108907099Y-53289605D01*
X108848011Y-53522264D01*
X108846390Y-53531458D01*
X108822341Y-53770297D01*
X108822096Y-53779624D01*
X101057500Y-53779624D01*
X101057500Y-52465585D01*
X109514999Y-52465585D01*
X109519572Y-52475361D01*
X110491190Y-53446980D01*
X110505131Y-53454592D01*
X110506966Y-53454461D01*
X110513580Y-53450210D01*
X111484929Y-52478860D01*
X111491313Y-52467169D01*
X111481903Y-52455061D01*
X111361873Y-52371793D01*
X111353846Y-52367065D01*
X111138540Y-52260888D01*
X111129907Y-52257400D01*
X110901265Y-52184211D01*
X110892214Y-52182038D01*
X110655269Y-52143449D01*
X110645980Y-52142637D01*
X110405950Y-52139495D01*
X110396638Y-52140065D01*
X110158776Y-52172436D01*
X110149658Y-52174374D01*
X109919203Y-52241546D01*
X109910450Y-52244818D01*
X109692454Y-52345316D01*
X109684299Y-52349836D01*
X109524136Y-52454844D01*
X109514999Y-52465585D01*
X101057500Y-52465585D01*
X101057500Y-47906516D01*
X101059874Y-47882174D01*
X101061518Y-47873823D01*
X101062389Y-47869400D01*
X101070053Y-47721058D01*
X101071844Y-47705425D01*
X101072186Y-47703512D01*
X101085705Y-47627747D01*
X101090293Y-47609796D01*
X101105405Y-47564766D01*
X101112758Y-47547326D01*
X101131634Y-47510544D01*
X101139666Y-47497038D01*
X101145896Y-47487911D01*
X101173636Y-47447270D01*
X101179300Y-47439612D01*
X101196689Y-47417880D01*
X101220834Y-47394792D01*
X101222757Y-47393390D01*
X101227317Y-47390623D01*
X101267134Y-47356072D01*
X101397412Y-47243023D01*
X101397414Y-47243021D01*
X101401445Y-47239523D01*
X101453090Y-47176537D01*
X101544240Y-47065373D01*
X101544244Y-47065367D01*
X101547624Y-47061245D01*
X101565552Y-47029750D01*
X101616632Y-46980445D01*
X101686262Y-46966583D01*
X101752333Y-46992566D01*
X101779573Y-47021716D01*
X101784983Y-47029752D01*
X101861441Y-47143319D01*
X101865120Y-47147176D01*
X101865122Y-47147178D01*
X101893129Y-47176537D01*
X102020576Y-47310135D01*
X102024854Y-47313318D01*
X102037984Y-47323087D01*
X102205542Y-47447754D01*
X102210293Y-47450170D01*
X102210297Y-47450172D01*
X102283673Y-47487478D01*
X102411051Y-47552240D01*
X102416147Y-47553822D01*
X102416146Y-47553822D01*
X102439932Y-47561208D01*
X102479119Y-47581462D01*
X102534171Y-47623575D01*
X102621950Y-47691120D01*
X102623880Y-47692635D01*
X102710831Y-47762282D01*
X102713706Y-47764657D01*
X102807779Y-47844752D01*
X102810948Y-47847542D01*
X102919455Y-47946385D01*
X102922390Y-47949146D01*
X103049362Y-48072495D01*
X103050532Y-48073523D01*
X103050535Y-48073526D01*
X103078793Y-48098359D01*
X103087872Y-48106338D01*
X103089771Y-48107446D01*
X103101651Y-48117555D01*
X104600077Y-49615982D01*
X104611741Y-49629423D01*
X104625615Y-49647901D01*
X104628498Y-49650845D01*
X104630313Y-49652698D01*
X104634966Y-49657450D01*
X104638215Y-49659997D01*
X104638601Y-49660343D01*
X104646121Y-49666769D01*
X104953117Y-49952593D01*
X104954853Y-49953992D01*
X104954860Y-49953998D01*
X105289248Y-50223465D01*
X105289256Y-50223471D01*
X105291002Y-50224878D01*
X105647451Y-50472364D01*
X105690528Y-50497923D01*
X106018713Y-50692645D01*
X106018723Y-50692651D01*
X106020647Y-50693792D01*
X106116998Y-50742022D01*
X106406261Y-50886817D01*
X106408688Y-50888032D01*
X106410749Y-50888886D01*
X106410754Y-50888888D01*
X106807527Y-51053238D01*
X106807537Y-51053242D01*
X106809597Y-51054095D01*
X106915397Y-51089309D01*
X107219202Y-51190427D01*
X107219217Y-51190432D01*
X107221331Y-51191135D01*
X107223502Y-51191689D01*
X107223505Y-51191690D01*
X107329120Y-51218647D01*
X107641793Y-51298453D01*
X107643988Y-51298849D01*
X107643997Y-51298851D01*
X107775017Y-51322490D01*
X108068839Y-51375503D01*
X108358665Y-51406664D01*
X108498051Y-51421651D01*
X108498055Y-51421651D01*
X108500294Y-51421892D01*
X108903566Y-51436298D01*
X108915279Y-51437338D01*
X108916508Y-51437431D01*
X108920595Y-51438013D01*
X108927398Y-51438084D01*
X108929834Y-51438110D01*
X108929837Y-51438110D01*
X108933959Y-51438153D01*
X108938052Y-51437658D01*
X108938065Y-51437657D01*
X108964874Y-51434413D01*
X108980011Y-51433500D01*
X112081963Y-51433500D01*
X112098408Y-51434578D01*
X112117767Y-51437127D01*
X112117771Y-51437127D01*
X112125299Y-51438118D01*
X112136483Y-51436883D01*
X112143025Y-51436161D01*
X112165092Y-51435670D01*
X112324035Y-51446086D01*
X112340376Y-51448237D01*
X112371115Y-51454351D01*
X112512073Y-51482388D01*
X112521042Y-51484172D01*
X112536961Y-51488437D01*
X112711404Y-51547650D01*
X112726627Y-51553956D01*
X112891845Y-51635432D01*
X112906105Y-51643665D01*
X113059276Y-51746009D01*
X113072345Y-51756037D01*
X113135916Y-51811787D01*
X113186683Y-51856309D01*
X113203565Y-51874335D01*
X113209057Y-51881492D01*
X113214982Y-51886239D01*
X113214984Y-51886241D01*
X113223022Y-51892681D01*
X113238970Y-51907935D01*
X113343959Y-52027652D01*
X113353992Y-52040728D01*
X113456331Y-52193889D01*
X113464572Y-52208163D01*
X113546043Y-52373370D01*
X113552350Y-52388595D01*
X113602642Y-52536756D01*
X113611563Y-52563038D01*
X113615828Y-52578958D01*
X113651763Y-52759623D01*
X113653914Y-52775964D01*
X113663861Y-52927752D01*
X113663053Y-52952435D01*
X113662873Y-52953799D01*
X113662873Y-52953809D01*
X113661882Y-52961335D01*
X113663985Y-52980386D01*
X113665739Y-52996275D01*
X113666500Y-53010100D01*
X113666500Y-57467971D01*
X113665243Y-57485727D01*
X113662917Y-57502071D01*
X113661987Y-57508602D01*
X113661847Y-57521966D01*
X113662342Y-57526056D01*
X113662342Y-57526058D01*
X113663471Y-57535387D01*
X113664231Y-57544342D01*
X113676318Y-57790434D01*
X113676635Y-57796896D01*
X113717022Y-58069178D01*
X113783903Y-58336190D01*
X113824699Y-58450210D01*
X113871889Y-58582101D01*
X113876633Y-58595361D01*
X113994321Y-58844194D01*
X114135833Y-59080294D01*
X114137676Y-59082779D01*
X114278911Y-59273213D01*
X114299805Y-59301386D01*
X114301887Y-59303683D01*
X114458842Y-59476857D01*
X114466240Y-59485817D01*
X114474407Y-59496694D01*
X114483758Y-59506242D01*
X114494279Y-59514492D01*
X114501129Y-59520269D01*
X114688614Y-59690195D01*
X114691100Y-59692039D01*
X114691104Y-59692042D01*
X114839114Y-59801813D01*
X114909706Y-59854167D01*
X115145805Y-59995678D01*
X115394638Y-60113366D01*
X115397553Y-60114409D01*
X115650898Y-60205056D01*
X115650908Y-60205059D01*
X115653809Y-60206097D01*
X115838433Y-60252342D01*
X115917814Y-60272225D01*
X115917818Y-60272226D01*
X115920821Y-60272978D01*
X116155005Y-60307714D01*
X116183712Y-60311972D01*
X116193103Y-60313365D01*
X116196188Y-60313517D01*
X116196193Y-60313517D01*
X116385283Y-60322804D01*
X116385194Y-60324616D01*
X116387995Y-60324256D01*
X116387995Y-60323500D01*
X116396377Y-60323500D01*
X116402556Y-60323652D01*
X116409641Y-60324000D01*
X116429527Y-60324977D01*
X116441099Y-60326082D01*
X116450580Y-60327432D01*
X116450592Y-60327433D01*
X116454668Y-60328013D01*
X116460821Y-60328077D01*
X116463898Y-60328110D01*
X116463903Y-60328110D01*
X116468032Y-60328153D01*
X116498934Y-60324413D01*
X116514073Y-60323500D01*
X120105044Y-60323500D01*
X120122797Y-60324757D01*
X120141592Y-60327432D01*
X120141595Y-60327432D01*
X120145676Y-60328013D01*
X120152181Y-60328081D01*
X120154912Y-60328110D01*
X120154916Y-60328110D01*
X120159040Y-60328153D01*
X120163133Y-60327658D01*
X120163803Y-60327621D01*
X120173397Y-60326871D01*
X120378998Y-60319526D01*
X120592705Y-60311892D01*
X120594944Y-60311651D01*
X120594948Y-60311651D01*
X120734334Y-60296664D01*
X121024160Y-60265503D01*
X121319294Y-60212254D01*
X121449002Y-60188852D01*
X121449011Y-60188850D01*
X121451206Y-60188454D01*
X121520000Y-60170895D01*
X127296851Y-60170895D01*
X127305563Y-60182415D01*
X127388529Y-60243249D01*
X127396444Y-60248194D01*
X127608873Y-60359959D01*
X127617447Y-60363687D01*
X127844067Y-60442826D01*
X127853077Y-60445240D01*
X128088923Y-60490017D01*
X128098180Y-60491071D01*
X128338058Y-60500497D01*
X128347372Y-60500171D01*
X128585996Y-60474038D01*
X128595173Y-60472337D01*
X128827312Y-60411220D01*
X128836132Y-60408183D01*
X129056693Y-60313423D01*
X129064965Y-60309116D01*
X129268026Y-60183458D01*
X129274751Y-60173253D01*
X129268688Y-60162899D01*
X128296810Y-59191020D01*
X128282869Y-59183408D01*
X128281034Y-59183539D01*
X128274420Y-59187790D01*
X127303509Y-60158702D01*
X127296851Y-60170895D01*
X121520000Y-60170895D01*
X121745391Y-60113366D01*
X121869494Y-60081690D01*
X121869497Y-60081689D01*
X121871668Y-60081135D01*
X122259519Y-59952045D01*
X122281275Y-59944804D01*
X122281277Y-59944803D01*
X122283402Y-59944096D01*
X122285462Y-59943243D01*
X122285472Y-59943239D01*
X122682246Y-59778889D01*
X122682251Y-59778887D01*
X122684312Y-59778033D01*
X122721780Y-59759278D01*
X122914123Y-59662997D01*
X123072353Y-59583792D01*
X123445548Y-59362365D01*
X123505435Y-59320785D01*
X123800161Y-59116153D01*
X123800165Y-59116150D01*
X123801997Y-59114878D01*
X124139882Y-58842593D01*
X124141521Y-58841067D01*
X124141528Y-58841061D01*
X124207516Y-58779624D01*
X126602096Y-58779624D01*
X126613614Y-59019398D01*
X126614751Y-59028658D01*
X126661581Y-59264095D01*
X126664075Y-59273088D01*
X126745189Y-59499009D01*
X126748989Y-59507544D01*
X126862607Y-59718996D01*
X126867618Y-59726863D01*
X126920609Y-59797826D01*
X126931867Y-59806275D01*
X126944286Y-59799503D01*
X127911980Y-58831810D01*
X127919592Y-58817869D01*
X127919461Y-58816034D01*
X127915210Y-58809420D01*
X126942131Y-57836342D01*
X126928823Y-57829075D01*
X126918786Y-57836195D01*
X126917076Y-57838251D01*
X126911655Y-57845851D01*
X126787127Y-58051067D01*
X126782889Y-58059384D01*
X126690060Y-58280755D01*
X126687099Y-58289605D01*
X126628011Y-58522264D01*
X126626390Y-58531458D01*
X126602341Y-58770297D01*
X126602096Y-58779624D01*
X124207516Y-58779624D01*
X124435140Y-58567700D01*
X124444611Y-58559772D01*
X124445187Y-58559278D01*
X124448485Y-58556801D01*
X124458033Y-58547450D01*
X124477250Y-58522942D01*
X124487308Y-58511595D01*
X125533318Y-57465585D01*
X127294999Y-57465585D01*
X127299572Y-57475361D01*
X128271190Y-58446980D01*
X128285131Y-58454592D01*
X128286966Y-58454461D01*
X128293580Y-58450210D01*
X129264929Y-57478860D01*
X129271313Y-57467169D01*
X129261903Y-57455061D01*
X129141873Y-57371793D01*
X129133846Y-57367065D01*
X128918540Y-57260888D01*
X128909907Y-57257400D01*
X128681265Y-57184211D01*
X128672214Y-57182038D01*
X128435269Y-57143449D01*
X128425980Y-57142637D01*
X128185950Y-57139495D01*
X128176638Y-57140065D01*
X127938776Y-57172436D01*
X127929658Y-57174374D01*
X127699203Y-57241546D01*
X127690450Y-57244818D01*
X127472454Y-57345316D01*
X127464299Y-57349836D01*
X127304136Y-57454844D01*
X127294999Y-57465585D01*
X125533318Y-57465585D01*
X127046314Y-55952590D01*
X127065574Y-55936809D01*
X127075600Y-55930133D01*
X127242195Y-55780978D01*
X127255477Y-55770599D01*
X127368721Y-55693731D01*
X127385919Y-55683936D01*
X127473422Y-55642837D01*
X127492113Y-55635806D01*
X127520780Y-55627549D01*
X127576594Y-55611473D01*
X127592419Y-55608000D01*
X127699869Y-55591570D01*
X127709241Y-55590494D01*
X127785517Y-55584621D01*
X127856716Y-55579139D01*
X127858417Y-55579021D01*
X128038775Y-55567719D01*
X128039095Y-55567696D01*
X128039135Y-55567693D01*
X128048753Y-55566992D01*
X128048751Y-55566992D01*
X128049110Y-55566966D01*
X128049544Y-55566930D01*
X128059481Y-55566009D01*
X128059751Y-55565981D01*
X128059827Y-55565974D01*
X128216464Y-55549910D01*
X128258121Y-55545638D01*
X128258700Y-55545567D01*
X128258716Y-55545565D01*
X128278088Y-55543183D01*
X128278117Y-55543179D01*
X128278671Y-55543111D01*
X128279570Y-55542982D01*
X128280131Y-55542890D01*
X128280140Y-55542889D01*
X128283044Y-55542415D01*
X128299201Y-55539776D01*
X128346422Y-55531122D01*
X128516085Y-55500028D01*
X128516086Y-55500028D01*
X128516827Y-55499892D01*
X128542018Y-55494619D01*
X128543164Y-55494349D01*
X128568412Y-55487719D01*
X128569221Y-55487484D01*
X128569237Y-55487480D01*
X128799034Y-55420847D01*
X128799038Y-55420846D01*
X128802699Y-55419784D01*
X128806207Y-55418288D01*
X128809794Y-55417008D01*
X128809873Y-55417230D01*
X128821192Y-55413348D01*
X128831999Y-55410503D01*
X128994154Y-55340836D01*
X129056924Y-55313868D01*
X129056926Y-55313867D01*
X129061218Y-55312023D01*
X129163679Y-55248618D01*
X129269391Y-55183202D01*
X129269395Y-55183199D01*
X129273364Y-55180743D01*
X129353409Y-55112980D01*
X129460209Y-55022567D01*
X129460210Y-55022566D01*
X129463775Y-55019548D01*
X129510522Y-54966243D01*
X129625187Y-54835494D01*
X129625191Y-54835489D01*
X129628269Y-54831979D01*
X129633551Y-54823768D01*
X129731206Y-54671945D01*
X129763231Y-54622157D01*
X129865697Y-54394691D01*
X129873846Y-54365799D01*
X129924051Y-54187782D01*
X129925003Y-54184408D01*
X129962744Y-54124274D01*
X130027006Y-54094091D01*
X130097384Y-54103441D01*
X130151534Y-54149357D01*
X130172175Y-54213661D01*
X130174822Y-54281009D01*
X130173841Y-54302402D01*
X130172873Y-54309752D01*
X130172873Y-54309757D01*
X130171882Y-54317284D01*
X130175071Y-54346165D01*
X130175739Y-54352217D01*
X130176500Y-54366045D01*
X130176500Y-58451367D01*
X130156498Y-58519488D01*
X130102842Y-58565981D01*
X130032568Y-58576085D01*
X129967988Y-58546591D01*
X129929604Y-58486865D01*
X129927607Y-58479175D01*
X129894210Y-58331582D01*
X129891486Y-58322671D01*
X129804478Y-58098930D01*
X129800467Y-58090521D01*
X129681347Y-57882105D01*
X129676130Y-57874370D01*
X129648425Y-57839227D01*
X129636501Y-57830758D01*
X129624965Y-57837246D01*
X128656020Y-58806190D01*
X128648408Y-58820131D01*
X128648539Y-58821966D01*
X128652790Y-58828580D01*
X129626024Y-59801813D01*
X129638404Y-59808573D01*
X129646745Y-59802330D01*
X129760265Y-59625843D01*
X129764708Y-59617659D01*
X129863304Y-59398783D01*
X129866494Y-59390018D01*
X129929231Y-59167571D01*
X129966972Y-59107438D01*
X130031234Y-59077255D01*
X130101612Y-59086605D01*
X130155762Y-59132521D01*
X130176500Y-59201773D01*
X130176500Y-68691367D01*
X130156498Y-68759488D01*
X130102842Y-68805981D01*
X130032568Y-68816085D01*
X129967988Y-68786591D01*
X129929604Y-68726865D01*
X129927607Y-68719175D01*
X129894210Y-68571582D01*
X129891486Y-68562671D01*
X129804478Y-68338930D01*
X129800467Y-68330521D01*
X129681347Y-68122105D01*
X129676130Y-68114370D01*
X129648425Y-68079227D01*
X129636501Y-68070758D01*
X129624965Y-68077246D01*
X128656020Y-69046190D01*
X128648408Y-69060131D01*
X128648539Y-69061966D01*
X128652790Y-69068580D01*
X129626024Y-70041813D01*
X129638404Y-70048573D01*
X129646745Y-70042330D01*
X129760265Y-69865843D01*
X129764708Y-69857659D01*
X129863304Y-69638783D01*
X129866494Y-69630018D01*
X129929231Y-69407571D01*
X129966972Y-69347438D01*
X130031234Y-69317255D01*
X130101612Y-69326605D01*
X130155762Y-69372521D01*
X130176500Y-69441773D01*
X130176500Y-69696824D01*
X130175422Y-69713272D01*
X130171882Y-69740158D01*
X130172716Y-69747708D01*
X130174350Y-69762513D01*
X130174991Y-69781837D01*
X130174245Y-69798929D01*
X130162757Y-70061961D01*
X130161799Y-70072910D01*
X130151022Y-70154766D01*
X130124797Y-70353951D01*
X130121343Y-70380183D01*
X130119436Y-70390999D01*
X130082163Y-70559122D01*
X130052354Y-70693576D01*
X130049509Y-70704194D01*
X129956313Y-70999765D01*
X129952554Y-71010094D01*
X129833947Y-71296433D01*
X129829301Y-71306395D01*
X129686196Y-71581293D01*
X129680700Y-71590812D01*
X129514179Y-71852197D01*
X129507874Y-71861201D01*
X129338332Y-72082150D01*
X129309135Y-72109697D01*
X129199276Y-72184268D01*
X129182078Y-72194064D01*
X129094578Y-72235162D01*
X129075887Y-72242192D01*
X128991405Y-72266526D01*
X128975580Y-72269999D01*
X128868130Y-72286429D01*
X128858758Y-72287505D01*
X128782482Y-72293378D01*
X128711283Y-72298860D01*
X128709582Y-72298978D01*
X128529224Y-72310280D01*
X128528904Y-72310303D01*
X128528864Y-72310306D01*
X128519676Y-72310976D01*
X128518889Y-72311033D01*
X128518455Y-72311069D01*
X128508518Y-72311990D01*
X128508248Y-72312018D01*
X128508172Y-72312025D01*
X128362523Y-72326962D01*
X128309878Y-72332361D01*
X128309299Y-72332432D01*
X128309283Y-72332434D01*
X128289911Y-72334816D01*
X128289882Y-72334820D01*
X128289328Y-72334888D01*
X128288429Y-72335017D01*
X128287868Y-72335109D01*
X128287859Y-72335110D01*
X128284955Y-72335584D01*
X128268798Y-72338223D01*
X128051172Y-72378107D01*
X128050392Y-72378270D01*
X128050372Y-72378274D01*
X128033728Y-72381754D01*
X128026200Y-72383328D01*
X128025056Y-72383597D01*
X128013600Y-72386603D01*
X128000427Y-72390059D01*
X128000402Y-72390066D01*
X127999586Y-72390280D01*
X127998806Y-72390506D01*
X127998774Y-72390515D01*
X127768951Y-72457157D01*
X127768944Y-72457159D01*
X127765297Y-72458217D01*
X127761796Y-72459710D01*
X127745984Y-72466453D01*
X127731816Y-72471518D01*
X127699024Y-72481076D01*
X127699017Y-72481079D01*
X127694528Y-72482387D01*
X127690287Y-72484342D01*
X127690282Y-72484344D01*
X127594614Y-72528448D01*
X127467965Y-72586834D01*
X127464056Y-72589397D01*
X127263242Y-72721056D01*
X127263237Y-72721060D01*
X127259329Y-72723622D01*
X127223011Y-72756037D01*
X127091706Y-72873231D01*
X127073202Y-72889746D01*
X126913675Y-73081557D01*
X126784252Y-73294840D01*
X126782443Y-73299154D01*
X126782442Y-73299156D01*
X126696830Y-73503318D01*
X126687775Y-73524911D01*
X126686624Y-73529443D01*
X126686623Y-73529446D01*
X126662033Y-73626269D01*
X126626365Y-73766714D01*
X126601370Y-74014939D01*
X126601594Y-74019606D01*
X126601594Y-74019611D01*
X126604758Y-74085474D01*
X126613339Y-74264131D01*
X126662010Y-74508818D01*
X126746314Y-74743622D01*
X126864398Y-74963386D01*
X127013668Y-75163283D01*
X127190844Y-75338921D01*
X127194606Y-75341679D01*
X127194609Y-75341682D01*
X127384265Y-75480742D01*
X127392036Y-75486440D01*
X127396171Y-75488616D01*
X127396175Y-75488618D01*
X127511163Y-75549116D01*
X127612823Y-75602602D01*
X127721945Y-75640709D01*
X127842550Y-75682826D01*
X127848354Y-75684853D01*
X127852947Y-75685725D01*
X128088867Y-75730516D01*
X128088870Y-75730516D01*
X128093456Y-75731387D01*
X128218100Y-75736285D01*
X128338075Y-75740999D01*
X128338081Y-75740999D01*
X128342743Y-75741182D01*
X128432181Y-75731387D01*
X128586087Y-75714532D01*
X128586092Y-75714531D01*
X128590740Y-75714022D01*
X128600316Y-75711501D01*
X128667597Y-75693787D01*
X128771311Y-75666481D01*
X128842278Y-75668480D01*
X128900900Y-75708530D01*
X128928563Y-75773916D01*
X128916485Y-75843877D01*
X128881397Y-75887278D01*
X128846016Y-75915171D01*
X128838018Y-75920982D01*
X128609344Y-76073778D01*
X128532348Y-76125225D01*
X128523912Y-76130395D01*
X128203157Y-76310026D01*
X128194343Y-76314517D01*
X127860483Y-76468430D01*
X127851342Y-76472216D01*
X127506441Y-76599457D01*
X127497032Y-76602514D01*
X127143217Y-76702302D01*
X127133598Y-76704612D01*
X126773025Y-76776336D01*
X126763271Y-76777882D01*
X126398167Y-76821096D01*
X126388329Y-76821870D01*
X126139960Y-76831630D01*
X126058928Y-76834814D01*
X126037537Y-76833833D01*
X126030248Y-76832873D01*
X126030243Y-76832873D01*
X126022715Y-76831882D01*
X125987782Y-76835739D01*
X125973954Y-76836500D01*
X116218984Y-76836500D01*
X116202537Y-76835422D01*
X116183180Y-76832873D01*
X116183177Y-76832873D01*
X116175650Y-76831882D01*
X116159577Y-76833656D01*
X116152342Y-76834455D01*
X116133569Y-76835119D01*
X116016274Y-76830510D01*
X115796674Y-76821880D01*
X115786830Y-76821106D01*
X115573124Y-76795811D01*
X115421733Y-76777891D01*
X115411962Y-76776343D01*
X115051400Y-76704622D01*
X115041780Y-76702312D01*
X114687964Y-76602523D01*
X114678555Y-76599466D01*
X114333649Y-76472223D01*
X114324509Y-76468437D01*
X113990647Y-76314524D01*
X113981832Y-76310032D01*
X113661091Y-76130408D01*
X113652655Y-76125239D01*
X113559843Y-76063224D01*
X113346971Y-75920987D01*
X113338986Y-75915186D01*
X113174655Y-75785638D01*
X113050276Y-75687585D01*
X113042753Y-75681160D01*
X112800680Y-75457390D01*
X112786249Y-75441572D01*
X112781775Y-75435741D01*
X112781769Y-75435735D01*
X112777149Y-75429714D01*
X112771225Y-75424968D01*
X112771223Y-75424966D01*
X112749712Y-75407733D01*
X112739397Y-75398493D01*
X112637590Y-75296686D01*
X112621805Y-75277420D01*
X112617631Y-75271151D01*
X112617630Y-75271149D01*
X112615134Y-75267401D01*
X112465977Y-75100802D01*
X112455599Y-75087520D01*
X112378730Y-74974275D01*
X112368935Y-74957078D01*
X112327837Y-74869578D01*
X112320806Y-74850886D01*
X112296474Y-74766410D01*
X112293000Y-74750580D01*
X112276570Y-74643130D01*
X112275494Y-74633758D01*
X112264138Y-74486268D01*
X112264013Y-74484474D01*
X112252746Y-74304655D01*
X112252744Y-74304630D01*
X112252719Y-74304226D01*
X112251982Y-74294072D01*
X112251945Y-74293624D01*
X112251008Y-74283503D01*
X112249022Y-74264131D01*
X112230699Y-74085474D01*
X112230639Y-74084885D01*
X112228135Y-74064497D01*
X112228004Y-74063582D01*
X112224775Y-74043790D01*
X112184893Y-73826175D01*
X112184428Y-73823951D01*
X112179758Y-73801656D01*
X112179756Y-73801646D01*
X112179592Y-73800864D01*
X112179321Y-73799715D01*
X112172719Y-73774586D01*
X112170437Y-73766714D01*
X112118860Y-73588842D01*
X112116982Y-73581563D01*
X112113659Y-73566878D01*
X112111092Y-73560276D01*
X112107510Y-73549701D01*
X112105842Y-73543948D01*
X112105841Y-73543945D01*
X112104784Y-73540300D01*
X112100562Y-73530399D01*
X112089012Y-73503318D01*
X112087489Y-73499583D01*
X112036094Y-73367420D01*
X112024931Y-73338714D01*
X112024930Y-73338712D01*
X112023238Y-73334361D01*
X111998494Y-73291067D01*
X111977285Y-73253959D01*
X111899442Y-73117763D01*
X111744990Y-72921842D01*
X111733353Y-72910895D01*
X117296851Y-72910895D01*
X117305563Y-72922415D01*
X117388529Y-72983249D01*
X117396444Y-72988194D01*
X117608873Y-73099959D01*
X117617447Y-73103687D01*
X117844067Y-73182826D01*
X117853077Y-73185240D01*
X118088923Y-73230017D01*
X118098180Y-73231071D01*
X118338058Y-73240497D01*
X118347372Y-73240171D01*
X118585996Y-73214038D01*
X118595173Y-73212337D01*
X118827312Y-73151220D01*
X118836132Y-73148183D01*
X119056693Y-73053423D01*
X119064965Y-73049116D01*
X119268026Y-72923458D01*
X119274751Y-72913253D01*
X119268688Y-72902899D01*
X118296810Y-71931020D01*
X118282869Y-71923408D01*
X118281034Y-71923539D01*
X118274420Y-71927790D01*
X117303509Y-72898702D01*
X117296851Y-72910895D01*
X111733353Y-72910895D01*
X111563276Y-72750902D01*
X111362751Y-72611793D01*
X111362130Y-72611362D01*
X111362125Y-72611359D01*
X111358292Y-72608700D01*
X111354110Y-72606637D01*
X111354102Y-72606633D01*
X111138728Y-72500423D01*
X111138725Y-72500422D01*
X111134540Y-72498358D01*
X110896937Y-72422300D01*
X110892330Y-72421550D01*
X110892327Y-72421549D01*
X110698969Y-72390059D01*
X110650701Y-72382198D01*
X110529753Y-72380615D01*
X110405920Y-72378994D01*
X110405917Y-72378994D01*
X110401243Y-72378933D01*
X110154042Y-72412575D01*
X110149556Y-72413883D01*
X110149554Y-72413883D01*
X110121576Y-72422038D01*
X109914528Y-72482387D01*
X109910275Y-72484347D01*
X109910274Y-72484348D01*
X109882971Y-72496935D01*
X109687965Y-72586834D01*
X109684056Y-72589397D01*
X109483242Y-72721056D01*
X109483237Y-72721060D01*
X109479329Y-72723622D01*
X109443011Y-72756037D01*
X109311706Y-72873231D01*
X109293202Y-72889746D01*
X109133675Y-73081557D01*
X109004252Y-73294840D01*
X109002443Y-73299154D01*
X109002442Y-73299156D01*
X108916830Y-73503318D01*
X108907775Y-73524911D01*
X108906624Y-73529443D01*
X108906623Y-73529446D01*
X108882033Y-73626269D01*
X108846365Y-73766714D01*
X108821370Y-74014939D01*
X108821594Y-74019606D01*
X108821594Y-74019611D01*
X108824758Y-74085474D01*
X108833339Y-74264131D01*
X108882010Y-74508818D01*
X108966314Y-74743622D01*
X109084398Y-74963386D01*
X109233668Y-75163283D01*
X109410844Y-75338921D01*
X109414606Y-75341679D01*
X109414609Y-75341682D01*
X109604265Y-75480742D01*
X109612036Y-75486440D01*
X109616171Y-75488616D01*
X109616175Y-75488618D01*
X109731163Y-75549116D01*
X109832823Y-75602602D01*
X109837242Y-75604145D01*
X109941946Y-75640709D01*
X109952358Y-75644874D01*
X109985300Y-75659784D01*
X110015289Y-75668480D01*
X110048458Y-75678098D01*
X110054906Y-75680157D01*
X110063940Y-75683312D01*
X110063944Y-75683313D01*
X110068354Y-75684853D01*
X110072954Y-75685726D01*
X110074006Y-75686008D01*
X110083931Y-75688384D01*
X110218810Y-75727494D01*
X110219586Y-75727719D01*
X110244835Y-75734349D01*
X110245981Y-75734619D01*
X110271172Y-75739892D01*
X110271913Y-75740028D01*
X110271914Y-75740028D01*
X110275434Y-75740673D01*
X110488798Y-75779776D01*
X110504955Y-75782415D01*
X110507859Y-75782889D01*
X110507868Y-75782890D01*
X110508429Y-75782982D01*
X110509328Y-75783111D01*
X110509882Y-75783179D01*
X110509911Y-75783183D01*
X110529283Y-75785565D01*
X110529299Y-75785567D01*
X110529878Y-75785638D01*
X110582523Y-75791037D01*
X110728172Y-75805974D01*
X110728248Y-75805981D01*
X110728518Y-75806009D01*
X110738455Y-75806930D01*
X110738889Y-75806966D01*
X110749226Y-75807719D01*
X110789618Y-75810250D01*
X110929474Y-75819013D01*
X110931268Y-75819138D01*
X111078758Y-75830494D01*
X111088130Y-75831570D01*
X111195580Y-75848000D01*
X111211405Y-75851473D01*
X111295886Y-75875806D01*
X111314578Y-75882837D01*
X111402078Y-75923935D01*
X111419275Y-75933730D01*
X111532520Y-76010599D01*
X111545802Y-76020977D01*
X111711489Y-76169318D01*
X111711504Y-76169331D01*
X111712401Y-76170134D01*
X111713343Y-76170912D01*
X111743871Y-76196132D01*
X111743648Y-76196402D01*
X111754467Y-76205372D01*
X111835077Y-76285982D01*
X111846741Y-76299423D01*
X111860615Y-76317901D01*
X111869966Y-76327450D01*
X111873215Y-76329997D01*
X111873601Y-76330343D01*
X111881121Y-76336769D01*
X112188117Y-76622593D01*
X112189853Y-76623992D01*
X112189860Y-76623998D01*
X112524248Y-76893465D01*
X112524251Y-76893467D01*
X112526002Y-76894878D01*
X112882451Y-77142364D01*
X112884386Y-77143512D01*
X113253713Y-77362645D01*
X113253723Y-77362651D01*
X113255647Y-77363792D01*
X113643688Y-77558032D01*
X113645749Y-77558886D01*
X113645754Y-77558888D01*
X114042527Y-77723238D01*
X114042537Y-77723242D01*
X114044597Y-77724095D01*
X114388770Y-77838648D01*
X114455769Y-77860948D01*
X114514087Y-77901439D01*
X114541256Y-77967032D01*
X114528650Y-78036900D01*
X114480272Y-78088862D01*
X114415978Y-78106500D01*
X107628037Y-78106500D01*
X107611592Y-78105422D01*
X107592233Y-78102873D01*
X107592229Y-78102873D01*
X107584701Y-78101882D01*
X107577148Y-78102716D01*
X107567035Y-78103832D01*
X107544970Y-78104323D01*
X107385966Y-78093903D01*
X107369625Y-78091752D01*
X107188956Y-78055817D01*
X107173035Y-78051551D01*
X107085821Y-78021946D01*
X106998604Y-77992340D01*
X106983379Y-77986034D01*
X106818166Y-77904561D01*
X106803896Y-77896322D01*
X106650728Y-77793979D01*
X106637659Y-77783952D01*
X106523284Y-77683649D01*
X106506405Y-77665626D01*
X106505566Y-77664533D01*
X106500943Y-77658508D01*
X106486976Y-77647318D01*
X106471030Y-77632065D01*
X106409230Y-77561597D01*
X106366039Y-77512347D01*
X106356007Y-77499273D01*
X106253669Y-77346111D01*
X106245430Y-77331842D01*
X106175973Y-77190994D01*
X106163956Y-77166627D01*
X106157649Y-77151401D01*
X106154969Y-77143504D01*
X106098437Y-76976961D01*
X106094172Y-76961042D01*
X106058237Y-76780376D01*
X106056086Y-76764035D01*
X106046139Y-76612247D01*
X106046947Y-76587562D01*
X106047127Y-76586198D01*
X106047127Y-76586191D01*
X106048118Y-76578665D01*
X106044261Y-76543725D01*
X106043500Y-76529900D01*
X106043500Y-74449863D01*
X106045046Y-74430187D01*
X106046544Y-74420711D01*
X106047731Y-74413204D01*
X106046479Y-74398345D01*
X106046419Y-74377926D01*
X106047261Y-74367173D01*
X106047584Y-74363056D01*
X106047366Y-74358932D01*
X106047419Y-74354809D01*
X106047482Y-74354810D01*
X106047564Y-74344876D01*
X106047614Y-74344167D01*
X106067055Y-74064497D01*
X106070157Y-74019879D01*
X106071392Y-74008990D01*
X106122171Y-73686980D01*
X106130891Y-73631687D01*
X106133066Y-73620949D01*
X106150760Y-73549701D01*
X106199957Y-73351591D01*
X106225129Y-73250230D01*
X106228231Y-73239719D01*
X106277548Y-73095932D01*
X106352157Y-72878407D01*
X106356150Y-72868229D01*
X106511007Y-72519046D01*
X106515881Y-72509231D01*
X106569241Y-72412575D01*
X106700494Y-72174823D01*
X106706191Y-72165488D01*
X106919164Y-71848388D01*
X106925664Y-71839565D01*
X107085778Y-71640930D01*
X107165376Y-71542182D01*
X107172613Y-71533962D01*
X107173994Y-71532525D01*
X107186390Y-71519624D01*
X116602096Y-71519624D01*
X116613614Y-71759398D01*
X116614751Y-71768658D01*
X116661581Y-72004095D01*
X116664075Y-72013088D01*
X116745189Y-72239009D01*
X116748989Y-72247544D01*
X116862607Y-72458996D01*
X116867618Y-72466863D01*
X116920609Y-72537826D01*
X116931867Y-72546275D01*
X116944286Y-72539503D01*
X117911980Y-71571810D01*
X117918357Y-71560131D01*
X118648408Y-71560131D01*
X118648539Y-71561966D01*
X118652790Y-71568580D01*
X119626024Y-72541813D01*
X119638404Y-72548573D01*
X119646745Y-72542330D01*
X119760265Y-72365843D01*
X119764708Y-72357659D01*
X119863304Y-72138783D01*
X119866494Y-72130018D01*
X119931654Y-71898981D01*
X119933514Y-71889839D01*
X119964001Y-71650196D01*
X119964482Y-71643909D01*
X119966622Y-71562160D01*
X119966471Y-71555851D01*
X119948568Y-71314932D01*
X119947191Y-71305726D01*
X119894210Y-71071582D01*
X119891486Y-71062671D01*
X119804478Y-70838930D01*
X119800467Y-70830521D01*
X119681347Y-70622105D01*
X119676130Y-70614370D01*
X119648425Y-70579227D01*
X119636501Y-70570758D01*
X119624965Y-70577246D01*
X118656020Y-71546190D01*
X118648408Y-71560131D01*
X117918357Y-71560131D01*
X117919592Y-71557869D01*
X117919461Y-71556034D01*
X117915210Y-71549420D01*
X116942131Y-70576342D01*
X116928823Y-70569075D01*
X116918786Y-70576195D01*
X116917076Y-70578251D01*
X116911655Y-70585851D01*
X116787127Y-70791067D01*
X116782889Y-70799384D01*
X116690060Y-71020755D01*
X116687099Y-71029605D01*
X116628011Y-71262264D01*
X116626390Y-71271458D01*
X116602341Y-71510297D01*
X116602096Y-71519624D01*
X107186390Y-71519624D01*
X107394769Y-71302757D01*
X107399741Y-71297864D01*
X107415409Y-71283277D01*
X107425879Y-71273530D01*
X107429697Y-71270376D01*
X107433299Y-71267012D01*
X107439427Y-71262534D01*
X107442107Y-71259347D01*
X107442185Y-71259279D01*
X107445485Y-71256801D01*
X107455033Y-71247450D01*
X107474250Y-71222942D01*
X107484308Y-71211595D01*
X108530270Y-70165633D01*
X108542650Y-70154775D01*
X108564181Y-70138253D01*
X108568927Y-70132329D01*
X108568930Y-70132326D01*
X108575300Y-70124374D01*
X108590557Y-70108423D01*
X108706425Y-70006808D01*
X108719500Y-69996775D01*
X108764265Y-69966863D01*
X108789205Y-69950199D01*
X108856956Y-69928983D01*
X108925424Y-69947765D01*
X108938142Y-69956753D01*
X108989852Y-69998314D01*
X108993980Y-70001780D01*
X109133100Y-70123868D01*
X109138939Y-70128915D01*
X109297929Y-70264264D01*
X109298392Y-70264645D01*
X109298411Y-70264661D01*
X109309957Y-70274164D01*
X109311071Y-70275081D01*
X109311673Y-70275560D01*
X109324963Y-70285785D01*
X109325376Y-70286092D01*
X109496235Y-70413158D01*
X109496260Y-70413176D01*
X109496935Y-70413678D01*
X109520848Y-70430427D01*
X109521959Y-70431159D01*
X109547359Y-70446855D01*
X109581357Y-70466521D01*
X109592085Y-70472727D01*
X109603499Y-70480181D01*
X109607684Y-70483249D01*
X109612036Y-70486440D01*
X109616168Y-70488614D01*
X109616173Y-70488617D01*
X109637666Y-70499924D01*
X109651309Y-70507102D01*
X109655723Y-70509539D01*
X109725817Y-70550086D01*
X109725828Y-70550091D01*
X109729269Y-70552082D01*
X109732931Y-70553622D01*
X109732938Y-70553626D01*
X109761847Y-70565787D01*
X109771655Y-70570420D01*
X109795198Y-70582806D01*
X109828676Y-70600420D01*
X109832823Y-70602602D01*
X109963347Y-70648183D01*
X110062550Y-70682826D01*
X110068354Y-70684853D01*
X110072947Y-70685725D01*
X110308867Y-70730516D01*
X110308870Y-70730516D01*
X110313456Y-70731387D01*
X110438099Y-70736284D01*
X110558075Y-70740999D01*
X110558081Y-70740999D01*
X110562743Y-70741182D01*
X110652181Y-70731387D01*
X110806087Y-70714532D01*
X110806092Y-70714531D01*
X110810740Y-70714022D01*
X110867991Y-70698949D01*
X111047476Y-70651694D01*
X111047478Y-70651693D01*
X111051999Y-70650503D01*
X111067778Y-70643724D01*
X111276924Y-70553868D01*
X111276926Y-70553867D01*
X111281218Y-70552023D01*
X111383681Y-70488617D01*
X111489391Y-70423202D01*
X111489395Y-70423199D01*
X111493364Y-70420743D01*
X111582389Y-70345378D01*
X111680209Y-70262567D01*
X111680210Y-70262566D01*
X111683775Y-70259548D01*
X111729710Y-70207169D01*
X111731099Y-70205585D01*
X117294999Y-70205585D01*
X117299572Y-70215361D01*
X118271190Y-71186980D01*
X118285131Y-71194592D01*
X118286966Y-71194461D01*
X118293580Y-71190210D01*
X119072894Y-70410895D01*
X127296851Y-70410895D01*
X127305563Y-70422415D01*
X127388529Y-70483249D01*
X127396444Y-70488194D01*
X127608873Y-70599959D01*
X127617447Y-70603687D01*
X127844067Y-70682826D01*
X127853077Y-70685240D01*
X128088923Y-70730017D01*
X128098180Y-70731071D01*
X128338058Y-70740497D01*
X128347372Y-70740171D01*
X128585996Y-70714038D01*
X128595173Y-70712337D01*
X128827312Y-70651220D01*
X128836132Y-70648183D01*
X129056693Y-70553423D01*
X129064965Y-70549116D01*
X129268026Y-70423458D01*
X129274751Y-70413253D01*
X129268688Y-70402899D01*
X128296810Y-69431020D01*
X128282869Y-69423408D01*
X128281034Y-69423539D01*
X128274420Y-69427790D01*
X127303509Y-70398702D01*
X127296851Y-70410895D01*
X119072894Y-70410895D01*
X119264929Y-70218860D01*
X119271313Y-70207169D01*
X119261903Y-70195061D01*
X119141873Y-70111793D01*
X119133846Y-70107065D01*
X118918540Y-70000888D01*
X118909907Y-69997400D01*
X118681265Y-69924211D01*
X118672214Y-69922038D01*
X118435269Y-69883449D01*
X118425980Y-69882637D01*
X118185950Y-69879495D01*
X118176638Y-69880065D01*
X117938776Y-69912436D01*
X117929658Y-69914374D01*
X117699203Y-69981546D01*
X117690450Y-69984818D01*
X117472454Y-70085316D01*
X117464299Y-70089836D01*
X117304136Y-70194844D01*
X117294999Y-70205585D01*
X111731099Y-70205585D01*
X111845187Y-70075494D01*
X111845191Y-70075489D01*
X111848269Y-70071979D01*
X111864803Y-70046275D01*
X111969530Y-69883457D01*
X111983231Y-69862157D01*
X112085697Y-69634691D01*
X112107368Y-69557851D01*
X112152146Y-69399082D01*
X112152147Y-69399079D01*
X112153416Y-69394578D01*
X112177433Y-69205790D01*
X112184502Y-69150222D01*
X112184502Y-69150218D01*
X112184900Y-69147092D01*
X112187207Y-69059000D01*
X112184281Y-69019624D01*
X126602096Y-69019624D01*
X126613614Y-69259398D01*
X126614751Y-69268658D01*
X126661581Y-69504095D01*
X126664075Y-69513088D01*
X126745189Y-69739009D01*
X126748989Y-69747544D01*
X126862607Y-69958996D01*
X126867618Y-69966863D01*
X126920609Y-70037826D01*
X126931867Y-70046275D01*
X126944286Y-70039503D01*
X127911980Y-69071810D01*
X127919592Y-69057869D01*
X127919461Y-69056034D01*
X127915210Y-69049420D01*
X126942131Y-68076342D01*
X126928823Y-68069075D01*
X126918786Y-68076195D01*
X126917076Y-68078251D01*
X126911655Y-68085851D01*
X126787127Y-68291067D01*
X126782889Y-68299384D01*
X126690060Y-68520755D01*
X126687099Y-68529605D01*
X126628011Y-68762264D01*
X126626390Y-68771458D01*
X126602341Y-69010297D01*
X126602096Y-69019624D01*
X112184281Y-69019624D01*
X112170448Y-68833485D01*
X112169064Y-68814858D01*
X112169063Y-68814854D01*
X112168718Y-68810206D01*
X112113659Y-68566878D01*
X112106606Y-68548741D01*
X112024931Y-68338714D01*
X112024930Y-68338712D01*
X112023238Y-68334361D01*
X111998634Y-68291312D01*
X111957104Y-68218651D01*
X111899442Y-68117763D01*
X111744990Y-67921842D01*
X111563276Y-67750902D01*
X111497952Y-67705585D01*
X127294999Y-67705585D01*
X127299572Y-67715361D01*
X128271190Y-68686980D01*
X128285131Y-68694592D01*
X128286966Y-68694461D01*
X128293580Y-68690210D01*
X129264929Y-67718860D01*
X129271313Y-67707169D01*
X129261903Y-67695061D01*
X129141873Y-67611793D01*
X129133846Y-67607065D01*
X128918540Y-67500888D01*
X128909907Y-67497400D01*
X128681265Y-67424211D01*
X128672214Y-67422038D01*
X128435269Y-67383449D01*
X128425980Y-67382637D01*
X128185950Y-67379495D01*
X128176638Y-67380065D01*
X127938776Y-67412436D01*
X127929658Y-67414374D01*
X127699203Y-67481546D01*
X127690450Y-67484818D01*
X127472454Y-67585316D01*
X127464299Y-67589836D01*
X127304136Y-67694844D01*
X127294999Y-67705585D01*
X111497952Y-67705585D01*
X111362751Y-67611793D01*
X111362130Y-67611362D01*
X111362125Y-67611359D01*
X111358292Y-67608700D01*
X111354110Y-67606637D01*
X111354102Y-67606633D01*
X111138728Y-67500423D01*
X111138725Y-67500422D01*
X111134540Y-67498358D01*
X110896937Y-67422300D01*
X110892330Y-67421550D01*
X110892327Y-67421549D01*
X110655312Y-67382949D01*
X110655313Y-67382949D01*
X110650701Y-67382198D01*
X110529753Y-67380615D01*
X110405920Y-67378994D01*
X110405917Y-67378994D01*
X110401243Y-67378933D01*
X110154042Y-67412575D01*
X110149556Y-67413883D01*
X110149554Y-67413883D01*
X110087954Y-67431838D01*
X109914528Y-67482387D01*
X109910275Y-67484347D01*
X109910274Y-67484348D01*
X109906242Y-67486207D01*
X109687965Y-67586834D01*
X109657767Y-67606633D01*
X109483242Y-67721056D01*
X109483237Y-67721060D01*
X109479329Y-67723622D01*
X109340096Y-67847892D01*
X109329144Y-67856623D01*
X109320133Y-67863021D01*
X109320129Y-67863025D01*
X109316462Y-67865628D01*
X109253486Y-67925510D01*
X109173076Y-68001970D01*
X109167903Y-68006624D01*
X109074789Y-68085851D01*
X109049534Y-68107339D01*
X109044129Y-68111687D01*
X108936782Y-68193238D01*
X108932220Y-68196543D01*
X108824967Y-68270617D01*
X108822561Y-68272237D01*
X108706227Y-68348551D01*
X108704431Y-68349735D01*
X108633927Y-68396408D01*
X108579871Y-68432193D01*
X108579815Y-68432231D01*
X108579728Y-68432288D01*
X108573635Y-68436384D01*
X108573345Y-68436582D01*
X108573193Y-68436687D01*
X108573105Y-68436748D01*
X108568162Y-68440180D01*
X108566738Y-68441169D01*
X108435205Y-68534028D01*
X108425709Y-68540896D01*
X108425277Y-68541216D01*
X108425099Y-68541351D01*
X108425051Y-68541387D01*
X108420473Y-68544863D01*
X108415638Y-68548534D01*
X108272277Y-68660054D01*
X108261553Y-68668629D01*
X108261093Y-68669007D01*
X108251162Y-68677380D01*
X108202846Y-68719175D01*
X108124911Y-68786591D01*
X108091062Y-68815871D01*
X108081456Y-68824392D01*
X108081024Y-68824785D01*
X108071697Y-68833485D01*
X107898382Y-68999205D01*
X107857052Y-69043690D01*
X107853744Y-69049125D01*
X107853743Y-69049127D01*
X107844265Y-69064702D01*
X107821246Y-69092559D01*
X107728933Y-69176228D01*
X107727699Y-69174867D01*
X107725831Y-69177280D01*
X107726323Y-69177772D01*
X107719736Y-69184359D01*
X107715257Y-69188624D01*
X107696317Y-69205790D01*
X107687358Y-69213187D01*
X107675987Y-69221725D01*
X107666438Y-69231076D01*
X107663890Y-69234326D01*
X107647225Y-69255580D01*
X107637165Y-69266930D01*
X106600357Y-70303737D01*
X106584522Y-70317155D01*
X106576418Y-70322946D01*
X106576414Y-70322949D01*
X106573063Y-70325344D01*
X106563297Y-70334468D01*
X106562721Y-70335168D01*
X106562526Y-70335405D01*
X106561865Y-70336126D01*
X106561903Y-70336162D01*
X106559748Y-70338385D01*
X106557301Y-70340263D01*
X106554312Y-70343994D01*
X106551485Y-70346910D01*
X106551486Y-70346910D01*
X106503869Y-70396037D01*
X106498923Y-70400868D01*
X106413123Y-70480181D01*
X106283049Y-70600420D01*
X106282248Y-70601160D01*
X106274728Y-70607583D01*
X105986014Y-70835185D01*
X105978024Y-70840990D01*
X105886293Y-70902283D01*
X105672344Y-71045239D01*
X105663908Y-71050408D01*
X105343167Y-71230032D01*
X105334352Y-71234524D01*
X105000490Y-71388437D01*
X104991350Y-71392223D01*
X104646444Y-71519467D01*
X104637035Y-71522524D01*
X104455834Y-71573629D01*
X104283213Y-71622314D01*
X104273606Y-71624620D01*
X104144901Y-71650222D01*
X103913037Y-71696343D01*
X103903266Y-71697890D01*
X103538180Y-71741104D01*
X103528328Y-71741880D01*
X103245170Y-71753007D01*
X103240294Y-71753104D01*
X103193724Y-71753114D01*
X103180384Y-71753117D01*
X103177841Y-71752951D01*
X103177841Y-71752952D01*
X103170242Y-71752873D01*
X103162715Y-71751882D01*
X103155167Y-71752715D01*
X103147575Y-71752636D01*
X103147579Y-71752294D01*
X103141850Y-71752365D01*
X103141844Y-71752674D01*
X103137727Y-71752592D01*
X103133616Y-71752241D01*
X103120265Y-71752850D01*
X103111102Y-71754484D01*
X103110779Y-71754542D01*
X103088654Y-71756500D01*
X102561602Y-71756500D01*
X102534232Y-71753491D01*
X102533487Y-71753325D01*
X102528268Y-71752164D01*
X102466300Y-71747435D01*
X102412485Y-71743327D01*
X102346084Y-71718198D01*
X102307774Y-71670716D01*
X102288069Y-71628239D01*
X102283387Y-71616679D01*
X102249218Y-71518630D01*
X102247366Y-71512877D01*
X102206378Y-71374187D01*
X102206141Y-71373372D01*
X102159179Y-71210436D01*
X102159154Y-71210349D01*
X102159066Y-71210045D01*
X102157407Y-71204410D01*
X102157315Y-71204104D01*
X102154908Y-71196320D01*
X102154359Y-71194592D01*
X102103320Y-71034113D01*
X102103319Y-71034110D01*
X102102235Y-71030702D01*
X102100772Y-71027440D01*
X102100766Y-71027425D01*
X102083678Y-70989332D01*
X102081208Y-70983430D01*
X102024931Y-70838714D01*
X102024930Y-70838712D01*
X102023238Y-70834361D01*
X101998494Y-70791067D01*
X101954468Y-70714038D01*
X101899442Y-70617763D01*
X101744990Y-70421842D01*
X101563276Y-70250902D01*
X101400893Y-70138253D01*
X101362130Y-70111362D01*
X101362125Y-70111359D01*
X101358292Y-70108700D01*
X101354110Y-70106637D01*
X101354102Y-70106633D01*
X101138728Y-70000423D01*
X101138725Y-70000422D01*
X101134540Y-69998358D01*
X100896937Y-69922300D01*
X100892330Y-69921550D01*
X100892327Y-69921549D01*
X100698969Y-69890059D01*
X100650701Y-69882198D01*
X100529753Y-69880615D01*
X100405920Y-69878994D01*
X100405917Y-69878994D01*
X100401243Y-69878933D01*
X100154042Y-69912575D01*
X100149556Y-69913883D01*
X100149554Y-69913883D01*
X100121576Y-69922038D01*
X99914528Y-69982387D01*
X99910275Y-69984347D01*
X99910274Y-69984348D01*
X99883318Y-69996775D01*
X99687965Y-70086834D01*
X99684056Y-70089397D01*
X99483242Y-70221056D01*
X99483237Y-70221060D01*
X99479329Y-70223622D01*
X99421137Y-70275560D01*
X99341631Y-70346522D01*
X99293202Y-70389746D01*
X99133675Y-70581557D01*
X99004252Y-70794840D01*
X99002443Y-70799154D01*
X99002442Y-70799156D01*
X98918320Y-70999765D01*
X98907775Y-71024911D01*
X98906624Y-71029443D01*
X98906623Y-71029446D01*
X98898185Y-71062671D01*
X98846365Y-71266714D01*
X98821370Y-71514939D01*
X98821594Y-71519606D01*
X98821594Y-71519611D01*
X98824189Y-71573629D01*
X98833339Y-71764131D01*
X98882010Y-72008818D01*
X98966314Y-72243622D01*
X99084398Y-72463386D01*
X99087193Y-72467130D01*
X99087195Y-72467132D01*
X99100048Y-72484344D01*
X99233668Y-72663283D01*
X99410844Y-72838921D01*
X99414606Y-72841679D01*
X99414609Y-72841682D01*
X99526139Y-72923458D01*
X99612036Y-72986440D01*
X99616171Y-72988616D01*
X99616175Y-72988618D01*
X99695736Y-73030477D01*
X99832823Y-73102602D01*
X99898648Y-73125589D01*
X100062550Y-73182826D01*
X100068354Y-73184853D01*
X100072947Y-73185725D01*
X100308867Y-73230516D01*
X100308870Y-73230516D01*
X100313456Y-73231387D01*
X100397932Y-73234706D01*
X100490824Y-73238357D01*
X100500746Y-73239140D01*
X100525809Y-73242121D01*
X100761624Y-73236362D01*
X100776119Y-73235803D01*
X100776745Y-73235770D01*
X100789720Y-73234921D01*
X100997184Y-73218708D01*
X100997661Y-73218665D01*
X100997715Y-73218660D01*
X101003305Y-73218150D01*
X101010379Y-73217506D01*
X101011003Y-73217441D01*
X101011331Y-73217402D01*
X101011360Y-73217399D01*
X101024744Y-73215816D01*
X101024779Y-73215812D01*
X101025207Y-73215761D01*
X101025611Y-73215708D01*
X101025663Y-73215701D01*
X101169799Y-73196615D01*
X101205686Y-73191863D01*
X101206054Y-73191810D01*
X101217116Y-73190215D01*
X101217148Y-73190210D01*
X101217392Y-73190175D01*
X101217654Y-73190134D01*
X101217690Y-73190129D01*
X101217759Y-73190118D01*
X101217873Y-73190100D01*
X101228449Y-73188338D01*
X101228735Y-73188287D01*
X101228754Y-73188284D01*
X101264477Y-73181947D01*
X101392119Y-73159305D01*
X101397292Y-73158360D01*
X101397437Y-73158333D01*
X101397479Y-73158325D01*
X101397699Y-73158283D01*
X101404067Y-73157043D01*
X101560268Y-73125589D01*
X101560769Y-73125490D01*
X101612703Y-73115251D01*
X101710708Y-73095929D01*
X101714283Y-73095278D01*
X101827606Y-73076342D01*
X101865094Y-73070078D01*
X101870708Y-73069269D01*
X101945576Y-73060200D01*
X102038291Y-73048969D01*
X102044608Y-73048366D01*
X102100010Y-73044477D01*
X102244813Y-73034314D01*
X102250898Y-73034035D01*
X102375641Y-73031324D01*
X102499711Y-73028628D01*
X102501219Y-73028522D01*
X102501229Y-73028522D01*
X102520854Y-73027148D01*
X102549006Y-73025178D01*
X102550466Y-73024788D01*
X102566019Y-73023500D01*
X103102044Y-73023500D01*
X103119797Y-73024757D01*
X103138592Y-73027432D01*
X103138595Y-73027432D01*
X103142676Y-73028013D01*
X103149181Y-73028081D01*
X103151912Y-73028110D01*
X103151916Y-73028110D01*
X103156040Y-73028153D01*
X103160137Y-73027657D01*
X103164251Y-73027431D01*
X103164268Y-73027745D01*
X103169986Y-73027614D01*
X103169970Y-73027268D01*
X103177559Y-73026921D01*
X103185133Y-73027489D01*
X103192623Y-73026234D01*
X103200213Y-73025887D01*
X103200215Y-73025925D01*
X103202027Y-73025741D01*
X103250477Y-73024010D01*
X103259622Y-73023683D01*
X103266010Y-73023617D01*
X103396301Y-73025572D01*
X103414130Y-73027111D01*
X103607514Y-73057753D01*
X103624947Y-73061802D01*
X103812047Y-73119537D01*
X103828724Y-73126012D01*
X104005769Y-73209677D01*
X104021354Y-73218447D01*
X104184746Y-73326342D01*
X104198937Y-73337234D01*
X104345410Y-73467205D01*
X104357905Y-73479989D01*
X104484487Y-73629398D01*
X104495049Y-73643831D01*
X104599176Y-73809652D01*
X104607593Y-73825446D01*
X104687176Y-74004346D01*
X104693270Y-74021172D01*
X104734479Y-74166441D01*
X104746705Y-74209541D01*
X104750353Y-74227056D01*
X104772182Y-74388665D01*
X104772418Y-74390414D01*
X104773263Y-74415808D01*
X104772733Y-74423615D01*
X104774042Y-74431099D01*
X104774616Y-74434382D01*
X104776500Y-74456088D01*
X104776500Y-76517971D01*
X104775243Y-76535727D01*
X104774105Y-76543725D01*
X104771987Y-76558602D01*
X104771847Y-76571966D01*
X104772658Y-76578665D01*
X104773452Y-76585229D01*
X104774211Y-76594177D01*
X104775607Y-76622586D01*
X104786064Y-76835489D01*
X104786624Y-76846897D01*
X104827011Y-77119180D01*
X104827763Y-77122183D01*
X104827764Y-77122187D01*
X104833106Y-77143512D01*
X104893892Y-77386193D01*
X104894930Y-77389094D01*
X104894933Y-77389104D01*
X104975100Y-77613160D01*
X104986623Y-77645365D01*
X105104312Y-77894200D01*
X105245824Y-78130300D01*
X105247667Y-78132785D01*
X105272414Y-78166152D01*
X105409797Y-78351393D01*
X105411879Y-78353690D01*
X105568918Y-78526958D01*
X105576315Y-78535917D01*
X105584407Y-78546694D01*
X105593758Y-78556242D01*
X105604279Y-78564492D01*
X105611129Y-78570269D01*
X105798614Y-78740195D01*
X106019706Y-78904167D01*
X106255805Y-79045678D01*
X106504638Y-79163366D01*
X106507553Y-79164409D01*
X106760898Y-79255056D01*
X106760908Y-79255059D01*
X106763809Y-79256097D01*
X106948433Y-79302342D01*
X107027814Y-79322225D01*
X107027818Y-79322226D01*
X107030821Y-79322978D01*
X107278970Y-79359785D01*
X107293166Y-79361891D01*
X107303103Y-79363365D01*
X107306188Y-79363517D01*
X107306193Y-79363517D01*
X107495283Y-79372804D01*
X107495194Y-79374616D01*
X107497995Y-79374256D01*
X107497995Y-79373500D01*
X107506377Y-79373500D01*
X107512556Y-79373652D01*
X107519641Y-79374000D01*
X107539527Y-79374977D01*
X107551099Y-79376082D01*
X107560580Y-79377432D01*
X107560592Y-79377433D01*
X107564668Y-79378013D01*
X107570821Y-79378077D01*
X107573898Y-79378110D01*
X107573903Y-79378110D01*
X107578032Y-79378153D01*
X107608934Y-79374413D01*
X107624073Y-79373500D01*
X127232044Y-79373500D01*
X127249797Y-79374757D01*
X127268592Y-79377432D01*
X127268595Y-79377432D01*
X127272676Y-79378013D01*
X127278891Y-79378078D01*
X127281906Y-79378110D01*
X127281911Y-79378110D01*
X127286040Y-79378153D01*
X127290146Y-79377656D01*
X127290818Y-79377619D01*
X127300411Y-79376869D01*
X127531807Y-79368603D01*
X127719705Y-79361891D01*
X127721944Y-79361650D01*
X127721948Y-79361650D01*
X127861334Y-79346663D01*
X128151160Y-79315502D01*
X128408255Y-79269116D01*
X128576002Y-79238851D01*
X128576011Y-79238849D01*
X128578206Y-79238453D01*
X128872387Y-79163366D01*
X128996494Y-79131689D01*
X128996497Y-79131688D01*
X128998668Y-79131134D01*
X129260204Y-79044086D01*
X129408264Y-78994807D01*
X129408274Y-78994803D01*
X129410402Y-78994095D01*
X129811312Y-78828031D01*
X129986786Y-78740195D01*
X130197337Y-78634800D01*
X130199353Y-78633791D01*
X130572548Y-78412364D01*
X130928997Y-78164877D01*
X131266882Y-77892592D01*
X131268521Y-77891066D01*
X131268528Y-77891060D01*
X131562140Y-77617699D01*
X131571611Y-77609771D01*
X131572187Y-77609277D01*
X131575485Y-77606800D01*
X131585033Y-77597449D01*
X131587575Y-77594207D01*
X131587584Y-77594197D01*
X131604247Y-77572946D01*
X131614305Y-77561597D01*
X132165982Y-77009921D01*
X132179424Y-76998257D01*
X132194605Y-76986859D01*
X132194607Y-76986857D01*
X132197901Y-76984384D01*
X132207450Y-76975033D01*
X132209998Y-76971783D01*
X132210168Y-76971594D01*
X132216834Y-76963797D01*
X132391358Y-76776343D01*
X132501054Y-76658521D01*
X132501060Y-76658514D01*
X132502586Y-76656875D01*
X132774870Y-76318991D01*
X132777972Y-76314524D01*
X133021073Y-75964391D01*
X133021074Y-75964389D01*
X133022356Y-75962543D01*
X133243783Y-75589348D01*
X133394710Y-75287836D01*
X133437020Y-75203311D01*
X133437021Y-75203308D01*
X133438023Y-75201307D01*
X133443441Y-75188228D01*
X133603229Y-74802469D01*
X133603233Y-74802459D01*
X133604086Y-74800399D01*
X133695843Y-74524718D01*
X133740418Y-74390794D01*
X133740423Y-74390779D01*
X133741126Y-74388665D01*
X133747663Y-74363056D01*
X133826073Y-74055851D01*
X133848444Y-73968204D01*
X133854740Y-73933312D01*
X133879947Y-73793597D01*
X133925493Y-73541158D01*
X133970185Y-73125490D01*
X133971641Y-73111946D01*
X133971641Y-73111944D01*
X133971882Y-73109704D01*
X133986284Y-72706531D01*
X133987363Y-72694384D01*
X133987431Y-72693495D01*
X133988013Y-72689404D01*
X133988153Y-72676040D01*
X133987658Y-72671947D01*
X133987657Y-72671934D01*
X133984413Y-72645125D01*
X133983500Y-72629988D01*
X133983500Y-51837955D01*
X133984757Y-51820202D01*
X133987432Y-51801407D01*
X133987432Y-51801404D01*
X133988013Y-51797323D01*
X133988153Y-51783959D01*
X133987657Y-51779859D01*
X133987630Y-51779375D01*
X133986855Y-51769475D01*
X133986581Y-51761793D01*
X133971882Y-51350295D01*
X133971580Y-51347481D01*
X133954829Y-51191690D01*
X133925493Y-50918840D01*
X133874144Y-50634236D01*
X133848842Y-50493999D01*
X133848840Y-50493990D01*
X133848444Y-50491795D01*
X133764930Y-50164596D01*
X133741681Y-50073508D01*
X133741680Y-50073505D01*
X133741126Y-50071334D01*
X133740423Y-50069220D01*
X133740418Y-50069205D01*
X133610915Y-49680117D01*
X133604086Y-49659600D01*
X133603196Y-49657450D01*
X133438879Y-49260758D01*
X133438877Y-49260753D01*
X133438023Y-49258692D01*
X133418906Y-49220500D01*
X133287409Y-48957805D01*
X133243783Y-48870651D01*
X133022356Y-48497456D01*
X132952797Y-48397272D01*
X132776145Y-48142844D01*
X132776142Y-48142840D01*
X132774870Y-48141008D01*
X132718790Y-48071417D01*
X132503990Y-47804867D01*
X132503984Y-47804860D01*
X132502585Y-47803124D01*
X132501068Y-47801495D01*
X132501051Y-47801475D01*
X132227761Y-47507940D01*
X132219539Y-47498117D01*
X132219277Y-47497812D01*
X132216801Y-47494514D01*
X132207450Y-47484966D01*
X132182951Y-47465756D01*
X132171603Y-47455698D01*
X129079925Y-44364020D01*
X129068260Y-44350578D01*
X129056864Y-44335400D01*
X129054384Y-44332097D01*
X129051494Y-44329146D01*
X129047920Y-44325496D01*
X129047913Y-44325490D01*
X129045033Y-44322549D01*
X129041785Y-44320003D01*
X129041417Y-44319673D01*
X129033878Y-44313230D01*
X128726881Y-44027406D01*
X128545529Y-43881264D01*
X128390738Y-43756525D01*
X128390724Y-43756515D01*
X128388996Y-43755122D01*
X128347710Y-43726456D01*
X128034396Y-43508918D01*
X128034394Y-43508917D01*
X128032548Y-43507635D01*
X127880476Y-43417406D01*
X127661286Y-43287354D01*
X127661276Y-43287348D01*
X127659352Y-43286207D01*
X127384267Y-43148509D01*
X127273315Y-43092970D01*
X127273312Y-43092969D01*
X127271311Y-43091967D01*
X127269250Y-43091113D01*
X127269245Y-43091111D01*
X126872472Y-42926761D01*
X126872462Y-42926757D01*
X126870402Y-42925904D01*
X126657640Y-42855089D01*
X126460797Y-42789572D01*
X126460782Y-42789567D01*
X126458668Y-42788864D01*
X126341390Y-42758930D01*
X126174659Y-42716374D01*
X126038206Y-42681546D01*
X126036011Y-42681150D01*
X126036002Y-42681148D01*
X125851024Y-42647774D01*
X125611160Y-42604497D01*
X125321334Y-42573336D01*
X125181948Y-42558349D01*
X125181944Y-42558349D01*
X125179705Y-42558108D01*
X124776433Y-42543702D01*
X124764720Y-42542662D01*
X124763491Y-42542569D01*
X124759404Y-42541987D01*
X124752601Y-42541916D01*
X124750165Y-42541890D01*
X124750162Y-42541890D01*
X124746040Y-42541847D01*
X124741947Y-42542342D01*
X124741934Y-42542343D01*
X124715125Y-42545587D01*
X124699988Y-42546500D01*
X118072002Y-42546500D01*
X118054248Y-42545243D01*
X118051339Y-42544829D01*
X118031371Y-42541987D01*
X118024621Y-42541916D01*
X118022130Y-42541890D01*
X118022127Y-42541890D01*
X118018007Y-42541847D01*
X118016516Y-42542027D01*
X118015125Y-42541700D01*
X118015144Y-42542193D01*
X117568285Y-42559750D01*
X117565840Y-42560039D01*
X117565832Y-42560040D01*
X117328766Y-42588099D01*
X117121336Y-42612650D01*
X116679915Y-42700453D01*
X116677540Y-42701123D01*
X116677535Y-42701124D01*
X116549531Y-42737225D01*
X116246743Y-42822620D01*
X115824493Y-42978396D01*
X115822258Y-42979426D01*
X115822254Y-42979428D01*
X115597525Y-43083030D01*
X115415766Y-43166822D01*
X115413627Y-43168020D01*
X115413617Y-43168025D01*
X115267994Y-43249578D01*
X115023082Y-43386735D01*
X115021029Y-43388107D01*
X115021027Y-43388108D01*
X114713648Y-43593492D01*
X114648864Y-43636779D01*
X114646916Y-43638315D01*
X114339467Y-43880688D01*
X114295417Y-43915414D01*
X114293603Y-43917091D01*
X114293597Y-43917096D01*
X114066653Y-44126881D01*
X113991047Y-44196771D01*
X113983329Y-44203905D01*
X113979881Y-44206977D01*
X113977614Y-44208923D01*
X113974306Y-44211407D01*
X113964758Y-44220758D01*
X113948591Y-44241377D01*
X113945546Y-44245260D01*
X113935487Y-44256609D01*
X113708193Y-44483903D01*
X113689303Y-44499436D01*
X113678491Y-44506691D01*
X113664184Y-44519592D01*
X113568174Y-44606167D01*
X113555854Y-44615953D01*
X113491135Y-44661072D01*
X113475196Y-44670523D01*
X113466940Y-44674630D01*
X113432661Y-44691682D01*
X113415136Y-44698813D01*
X113375766Y-44711479D01*
X113360549Y-44715346D01*
X113338686Y-44719471D01*
X113317840Y-44723403D01*
X113257119Y-44719920D01*
X113221870Y-44708975D01*
X113221863Y-44708973D01*
X113216773Y-44707393D01*
X113211487Y-44706692D01*
X113211485Y-44706692D01*
X112993511Y-44677802D01*
X112993506Y-44677802D01*
X112988226Y-44677102D01*
X112982897Y-44677302D01*
X112982895Y-44677302D01*
X112873034Y-44681427D01*
X112757842Y-44685751D01*
X112752623Y-44686846D01*
X112709429Y-44695909D01*
X112532209Y-44733093D01*
X112527250Y-44735051D01*
X112527248Y-44735052D01*
X112322744Y-44815815D01*
X112322742Y-44815816D01*
X112317779Y-44817776D01*
X112313220Y-44820543D01*
X112313217Y-44820544D01*
X112207543Y-44884669D01*
X112120683Y-44937377D01*
X112116653Y-44940874D01*
X111950690Y-45084889D01*
X111946555Y-45088477D01*
X111938641Y-45098129D01*
X111803760Y-45262627D01*
X111803756Y-45262633D01*
X111800376Y-45266755D01*
X111782448Y-45298250D01*
X111731368Y-45347555D01*
X111661738Y-45361417D01*
X111595667Y-45335434D01*
X111568427Y-45306284D01*
X111551765Y-45281535D01*
X111486559Y-45184681D01*
X111427918Y-45123209D01*
X111415347Y-45110032D01*
X111327424Y-45017865D01*
X111230423Y-44945694D01*
X111207257Y-44923328D01*
X111179303Y-44888390D01*
X111173627Y-44880715D01*
X111139666Y-44830960D01*
X111131634Y-44817455D01*
X111112758Y-44780673D01*
X111105405Y-44763233D01*
X111090293Y-44718203D01*
X111085705Y-44700250D01*
X111071844Y-44622574D01*
X111070053Y-44606940D01*
X111067380Y-44555207D01*
X111062389Y-44458600D01*
X111061020Y-44443800D01*
X111059078Y-44422810D01*
X111059078Y-44422808D01*
X111058545Y-44417051D01*
X111018757Y-44276413D01*
X111015346Y-44268744D01*
X110967968Y-44184576D01*
X110962879Y-44179110D01*
X110962877Y-44179107D01*
X110874514Y-44084195D01*
X110868376Y-44077602D01*
X110842645Y-44062334D01*
X110788579Y-44030253D01*
X110738974Y-43975767D01*
X110733272Y-43963711D01*
X110733269Y-43963705D01*
X110731953Y-43960923D01*
X110591423Y-43726456D01*
X110523893Y-43635399D01*
X110430433Y-43509379D01*
X110430427Y-43509372D01*
X110428588Y-43506892D01*
X110426517Y-43504607D01*
X110426508Y-43504596D01*
X110300640Y-43365719D01*
X110301968Y-43364515D01*
X110299740Y-43362788D01*
X110299216Y-43363312D01*
X110293318Y-43357414D01*
X110289051Y-43352933D01*
X110270894Y-43332899D01*
X110263495Y-43323937D01*
X110257755Y-43316292D01*
X110257751Y-43316288D01*
X110255274Y-43312988D01*
X110245923Y-43303439D01*
X110242673Y-43300891D01*
X110242669Y-43300887D01*
X110221422Y-43284227D01*
X110210074Y-43274170D01*
X109673130Y-42737225D01*
X109661465Y-42723782D01*
X109650071Y-42708606D01*
X109650068Y-42708603D01*
X109647593Y-42705306D01*
X109638242Y-42695758D01*
X109633394Y-42691957D01*
X109625624Y-42685337D01*
X109538172Y-42604497D01*
X109357339Y-42437336D01*
X109057620Y-42201056D01*
X108740286Y-41989020D01*
X108558504Y-41887217D01*
X108409462Y-41803748D01*
X108409450Y-41803742D01*
X108407295Y-41802535D01*
X108405049Y-41801499D01*
X108405040Y-41801495D01*
X108136998Y-41677926D01*
X108083508Y-41631242D01*
X108063750Y-41563050D01*
X108083995Y-41495001D01*
X108137816Y-41448700D01*
X108189749Y-41437500D01*
X135269500Y-41437500D01*
X135337621Y-41457502D01*
X135384114Y-41511158D01*
X135395500Y-41563500D01*
X135395500Y-83474500D01*
X135375498Y-83542621D01*
X135321842Y-83589114D01*
X135269500Y-83600500D01*
X93090000Y-83600500D01*
X93021879Y-83580498D01*
X92975386Y-83526842D01*
X92964000Y-83474500D01*
X92964000Y-83304963D01*
X92984002Y-83236842D01*
X92994776Y-83222450D01*
X92996033Y-83221000D01*
X93002786Y-83221000D01*
X93002786Y-80795507D01*
X93022788Y-80727386D01*
X93076321Y-80681000D01*
X93089643Y-80681000D01*
X93089643Y-76799000D01*
X75578500Y-76799000D01*
X75510379Y-76778998D01*
X75463886Y-76725342D01*
X75452500Y-76673000D01*
X75452500Y-75410895D01*
X91736851Y-75410895D01*
X91745563Y-75422415D01*
X91828529Y-75483249D01*
X91836444Y-75488194D01*
X92048873Y-75599959D01*
X92057447Y-75603687D01*
X92284067Y-75682826D01*
X92293077Y-75685240D01*
X92528923Y-75730017D01*
X92538180Y-75731071D01*
X92778058Y-75740497D01*
X92787372Y-75740171D01*
X93025996Y-75714038D01*
X93035173Y-75712337D01*
X93267312Y-75651220D01*
X93276132Y-75648183D01*
X93496693Y-75553423D01*
X93504965Y-75549116D01*
X93708026Y-75423458D01*
X93714751Y-75413253D01*
X93708688Y-75402899D01*
X92736810Y-74431020D01*
X92722869Y-74423408D01*
X92721034Y-74423539D01*
X92714420Y-74427790D01*
X91743509Y-75398702D01*
X91736851Y-75410895D01*
X75452500Y-75410895D01*
X75452500Y-74019624D01*
X91042096Y-74019624D01*
X91053614Y-74259398D01*
X91054751Y-74268658D01*
X91101581Y-74504095D01*
X91104075Y-74513088D01*
X91185189Y-74739009D01*
X91188989Y-74747544D01*
X91302607Y-74958996D01*
X91307618Y-74966863D01*
X91360609Y-75037826D01*
X91371867Y-75046275D01*
X91384286Y-75039503D01*
X92351980Y-74071810D01*
X92358357Y-74060131D01*
X93088408Y-74060131D01*
X93088539Y-74061966D01*
X93092790Y-74068580D01*
X94066024Y-75041813D01*
X94078404Y-75048573D01*
X94086745Y-75042330D01*
X94200265Y-74865843D01*
X94204708Y-74857659D01*
X94303304Y-74638783D01*
X94306494Y-74630018D01*
X94371654Y-74398981D01*
X94373514Y-74389839D01*
X94404001Y-74150196D01*
X94404482Y-74143909D01*
X94406622Y-74062160D01*
X94406471Y-74055851D01*
X94388568Y-73814932D01*
X94387191Y-73805726D01*
X94334210Y-73571582D01*
X94331486Y-73562671D01*
X94244478Y-73338930D01*
X94240467Y-73330521D01*
X94121347Y-73122105D01*
X94116130Y-73114370D01*
X94088425Y-73079227D01*
X94076501Y-73070758D01*
X94064965Y-73077246D01*
X93096020Y-74046190D01*
X93088408Y-74060131D01*
X92358357Y-74060131D01*
X92359592Y-74057869D01*
X92359461Y-74056034D01*
X92355210Y-74049420D01*
X91382131Y-73076342D01*
X91368823Y-73069075D01*
X91358786Y-73076195D01*
X91357076Y-73078251D01*
X91351655Y-73085851D01*
X91227127Y-73291067D01*
X91222889Y-73299384D01*
X91130060Y-73520755D01*
X91127099Y-73529605D01*
X91068011Y-73762264D01*
X91066390Y-73771458D01*
X91042341Y-74010297D01*
X91042096Y-74019624D01*
X75452500Y-74019624D01*
X75452500Y-41563500D01*
X75472502Y-41495379D01*
X75526158Y-41448886D01*
X75578500Y-41437500D01*
X86383369Y-41437500D01*
X86451490Y-41457502D01*
G37*
%TD.AperFunction*%
%TA.AperFunction,Conductor*%
G36*
X118120121Y-45930002D02*
G01*
X118166614Y-45983658D01*
X118178000Y-46036000D01*
X118178000Y-47605192D01*
X118181973Y-47618723D01*
X118192580Y-47620248D01*
X118310421Y-47595523D01*
X118320617Y-47592463D01*
X118525029Y-47511737D01*
X118534561Y-47507006D01*
X118722462Y-47392984D01*
X118731052Y-47386720D01*
X118897052Y-47242673D01*
X118904472Y-47235042D01*
X119043826Y-47065089D01*
X119049848Y-47056326D01*
X119065238Y-47029289D01*
X119116320Y-46979982D01*
X119185951Y-46966120D01*
X119252022Y-46992103D01*
X119279261Y-47021253D01*
X119308773Y-47065089D01*
X119361441Y-47143319D01*
X119365120Y-47147176D01*
X119365122Y-47147178D01*
X119393129Y-47176537D01*
X119520576Y-47310135D01*
X119524854Y-47313318D01*
X119537984Y-47323087D01*
X119705542Y-47447754D01*
X119710293Y-47450170D01*
X119710297Y-47450172D01*
X119783673Y-47487478D01*
X119911051Y-47552240D01*
X119916145Y-47553822D01*
X119916148Y-47553823D01*
X120088945Y-47607478D01*
X120131227Y-47620607D01*
X120136516Y-47621308D01*
X120354489Y-47650198D01*
X120354494Y-47650198D01*
X120359774Y-47650898D01*
X120365103Y-47650698D01*
X120365105Y-47650698D01*
X120474966Y-47646574D01*
X120590158Y-47642249D01*
X120616143Y-47636797D01*
X120810572Y-47596002D01*
X120815791Y-47594907D01*
X120820750Y-47592949D01*
X120820752Y-47592948D01*
X121025256Y-47512185D01*
X121025258Y-47512184D01*
X121030221Y-47510224D01*
X121035525Y-47507006D01*
X121222757Y-47393390D01*
X121222756Y-47393390D01*
X121227317Y-47390623D01*
X121267134Y-47356072D01*
X121397412Y-47243023D01*
X121397414Y-47243021D01*
X121401445Y-47239523D01*
X121453090Y-47176537D01*
X121544240Y-47065373D01*
X121544244Y-47065367D01*
X121547624Y-47061245D01*
X121555677Y-47047098D01*
X121584618Y-47012547D01*
X121623101Y-46980546D01*
X121624945Y-46979042D01*
X121685302Y-46930750D01*
X121699605Y-46919307D01*
X121707284Y-46913627D01*
X121757039Y-46879666D01*
X121770544Y-46871634D01*
X121807326Y-46852758D01*
X121824766Y-46845405D01*
X121869796Y-46830293D01*
X121887747Y-46825705D01*
X121965428Y-46811844D01*
X121981058Y-46810053D01*
X122129400Y-46802389D01*
X122130673Y-46802271D01*
X122130676Y-46802271D01*
X122170949Y-46798545D01*
X122170975Y-46798821D01*
X122185292Y-46797500D01*
X122613982Y-46797500D01*
X122630428Y-46798578D01*
X122649786Y-46801127D01*
X122649790Y-46801127D01*
X122657317Y-46802118D01*
X122672192Y-46800476D01*
X122680632Y-46799544D01*
X122699406Y-46798880D01*
X123033640Y-46812013D01*
X123043502Y-46812789D01*
X123266551Y-46839188D01*
X123405967Y-46855689D01*
X123415717Y-46857233D01*
X123773705Y-46928442D01*
X123783311Y-46930748D01*
X123908651Y-46966098D01*
X124134585Y-47029819D01*
X124143994Y-47032876D01*
X124486417Y-47159203D01*
X124495557Y-47162989D01*
X124652611Y-47235392D01*
X124827015Y-47315794D01*
X124835818Y-47320280D01*
X125154266Y-47498620D01*
X125162697Y-47503786D01*
X125262142Y-47570234D01*
X125466166Y-47706560D01*
X125474170Y-47712375D01*
X125760800Y-47938338D01*
X125768323Y-47944764D01*
X126008438Y-48166726D01*
X126022869Y-48182543D01*
X126031974Y-48194409D01*
X126037902Y-48199158D01*
X126059413Y-48216392D01*
X126069727Y-48225631D01*
X128732887Y-50888792D01*
X128743754Y-50901183D01*
X128760263Y-50922698D01*
X128772067Y-50932155D01*
X128778504Y-50937312D01*
X128792248Y-50950117D01*
X129021160Y-51197753D01*
X129027585Y-51205276D01*
X129150104Y-51360690D01*
X129250812Y-51488437D01*
X129255180Y-51493978D01*
X129260990Y-51501975D01*
X129355321Y-51643151D01*
X129465239Y-51807655D01*
X129470408Y-51816091D01*
X129492931Y-51856309D01*
X129628230Y-52097901D01*
X129650032Y-52136832D01*
X129654523Y-52145646D01*
X129676764Y-52193889D01*
X129808437Y-52479509D01*
X129812223Y-52488649D01*
X129934051Y-52818877D01*
X129938863Y-52889710D01*
X129904616Y-52951901D01*
X129842183Y-52985703D01*
X129771385Y-52980386D01*
X129714702Y-52937637D01*
X129706452Y-52925021D01*
X129679442Y-52877763D01*
X129524990Y-52681842D01*
X129343276Y-52510902D01*
X129217847Y-52423889D01*
X129142130Y-52371362D01*
X129142125Y-52371359D01*
X129138292Y-52368700D01*
X129134110Y-52366637D01*
X129134102Y-52366633D01*
X128918728Y-52260423D01*
X128918725Y-52260422D01*
X128914540Y-52258358D01*
X128910089Y-52256933D01*
X128862020Y-52241546D01*
X128676937Y-52182300D01*
X128672330Y-52181550D01*
X128672327Y-52181549D01*
X128468832Y-52148408D01*
X128430701Y-52142198D01*
X128309753Y-52140615D01*
X128185920Y-52138994D01*
X128185917Y-52138994D01*
X128181243Y-52138933D01*
X127934042Y-52172575D01*
X127929556Y-52173883D01*
X127929554Y-52173883D01*
X127901576Y-52182038D01*
X127694528Y-52242387D01*
X127690275Y-52244347D01*
X127690274Y-52244348D01*
X127662975Y-52256933D01*
X127467965Y-52346834D01*
X127464056Y-52349397D01*
X127263242Y-52481056D01*
X127263237Y-52481060D01*
X127259329Y-52483622D01*
X127205082Y-52532039D01*
X127103682Y-52622542D01*
X127073202Y-52649746D01*
X126913675Y-52841557D01*
X126784252Y-53054840D01*
X126782443Y-53059154D01*
X126782442Y-53059156D01*
X126717253Y-53214615D01*
X126687775Y-53284911D01*
X126686625Y-53289441D01*
X126686179Y-53291197D01*
X126683650Y-53299339D01*
X126683215Y-53300300D01*
X126681962Y-53304622D01*
X126681961Y-53304624D01*
X126632005Y-53476908D01*
X126615280Y-53534586D01*
X126608678Y-53559715D01*
X126608407Y-53560864D01*
X126608243Y-53561646D01*
X126608241Y-53561656D01*
X126605461Y-53574932D01*
X126603106Y-53586175D01*
X126563224Y-53803790D01*
X126559995Y-53823582D01*
X126559864Y-53824497D01*
X126557360Y-53844885D01*
X126549541Y-53921127D01*
X126538477Y-54029014D01*
X126536991Y-54043503D01*
X126536054Y-54053624D01*
X126536017Y-54054072D01*
X126535280Y-54064226D01*
X126535255Y-54064630D01*
X126535253Y-54064655D01*
X126523986Y-54244474D01*
X126523861Y-54246268D01*
X126512505Y-54393758D01*
X126511429Y-54403130D01*
X126494999Y-54510580D01*
X126491526Y-54526405D01*
X126467687Y-54609171D01*
X126467193Y-54610886D01*
X126460162Y-54629578D01*
X126419064Y-54717078D01*
X126409269Y-54734275D01*
X126332400Y-54847520D01*
X126322022Y-54860802D01*
X126173681Y-55026490D01*
X126173669Y-55026504D01*
X126172865Y-55027402D01*
X126146868Y-55058871D01*
X126146599Y-55058649D01*
X126137627Y-55069468D01*
X123594207Y-57612887D01*
X123581816Y-57623754D01*
X123560301Y-57640263D01*
X123545677Y-57658516D01*
X123532877Y-57672254D01*
X123487679Y-57714035D01*
X123305862Y-57882105D01*
X123285248Y-57901160D01*
X123277728Y-57907583D01*
X122989014Y-58135185D01*
X122981024Y-58140990D01*
X122772089Y-58280596D01*
X122675344Y-58345239D01*
X122666908Y-58350408D01*
X122346167Y-58530032D01*
X122337352Y-58534524D01*
X122003490Y-58688437D01*
X121994350Y-58692223D01*
X121649444Y-58819467D01*
X121640035Y-58822524D01*
X121426436Y-58882766D01*
X121286213Y-58922314D01*
X121276606Y-58924620D01*
X121099997Y-58959751D01*
X120916037Y-58996343D01*
X120906266Y-58997890D01*
X120541180Y-59041104D01*
X120531326Y-59041880D01*
X120255583Y-59052716D01*
X120201989Y-59054822D01*
X120180597Y-59053841D01*
X120173247Y-59052873D01*
X120173242Y-59052873D01*
X120165715Y-59051882D01*
X120133653Y-59055422D01*
X120130782Y-59055739D01*
X120116954Y-59056500D01*
X116518037Y-59056500D01*
X116501592Y-59055422D01*
X116482233Y-59052873D01*
X116482229Y-59052873D01*
X116474701Y-59051882D01*
X116467148Y-59052716D01*
X116457035Y-59053832D01*
X116434970Y-59054323D01*
X116275966Y-59043903D01*
X116259625Y-59041752D01*
X116078956Y-59005817D01*
X116063035Y-59001551D01*
X115945575Y-58961679D01*
X115888604Y-58942340D01*
X115873379Y-58936034D01*
X115708166Y-58854561D01*
X115693896Y-58846322D01*
X115540728Y-58743979D01*
X115527653Y-58733946D01*
X115413292Y-58633655D01*
X115396411Y-58615633D01*
X115395568Y-58614535D01*
X115395567Y-58614534D01*
X115390943Y-58608508D01*
X115385018Y-58603761D01*
X115385015Y-58603758D01*
X115377024Y-58597356D01*
X115361075Y-58582101D01*
X115256052Y-58462345D01*
X115246019Y-58449270D01*
X115231310Y-58427257D01*
X115143676Y-58296102D01*
X115135437Y-58281832D01*
X115134828Y-58280596D01*
X115053966Y-58116623D01*
X115047659Y-58101397D01*
X115036723Y-58069178D01*
X114988447Y-57926958D01*
X114984182Y-57911039D01*
X114978237Y-57881147D01*
X114958198Y-57780401D01*
X114948248Y-57730375D01*
X114946097Y-57714035D01*
X114936146Y-57562190D01*
X114936954Y-57537504D01*
X114937126Y-57536199D01*
X114937126Y-57536198D01*
X114938118Y-57528665D01*
X114934261Y-57493725D01*
X114933500Y-57479900D01*
X114933500Y-53022027D01*
X114934757Y-53004272D01*
X114937432Y-52985476D01*
X114938013Y-52981396D01*
X114938153Y-52968032D01*
X114936547Y-52954757D01*
X114935788Y-52945815D01*
X114935387Y-52937637D01*
X114923376Y-52693102D01*
X114882989Y-52420819D01*
X114874919Y-52388598D01*
X114816858Y-52156800D01*
X114816858Y-52156799D01*
X114816108Y-52153806D01*
X114741232Y-51944539D01*
X114724415Y-51897537D01*
X114724413Y-51897532D01*
X114723376Y-51894634D01*
X114719407Y-51886241D01*
X114607008Y-51648590D01*
X114607004Y-51648583D01*
X114605688Y-51645800D01*
X114519488Y-51501982D01*
X114465766Y-51412351D01*
X114465761Y-51412344D01*
X114464176Y-51409699D01*
X114462340Y-51407223D01*
X114462335Y-51407216D01*
X114302050Y-51191097D01*
X114302047Y-51191093D01*
X114300203Y-51188607D01*
X114237011Y-51118885D01*
X114141082Y-51013042D01*
X114133685Y-51004083D01*
X114128073Y-50996609D01*
X114125593Y-50993306D01*
X114116242Y-50983758D01*
X114112525Y-50980843D01*
X114105845Y-50975605D01*
X114098978Y-50969813D01*
X113913690Y-50801879D01*
X113911393Y-50799797D01*
X113830866Y-50740074D01*
X113692785Y-50637667D01*
X113690300Y-50635824D01*
X113454200Y-50494312D01*
X113261987Y-50403403D01*
X113208958Y-50356196D01*
X113189869Y-50287814D01*
X113210781Y-50219967D01*
X113265054Y-50174196D01*
X113315858Y-50163500D01*
X113600892Y-50163500D01*
X113617338Y-50164578D01*
X113636696Y-50167127D01*
X113636700Y-50167127D01*
X113644227Y-50168118D01*
X113666490Y-50165660D01*
X113685814Y-50165019D01*
X113753171Y-50167960D01*
X113994004Y-50178476D01*
X114004952Y-50179434D01*
X114339978Y-50223541D01*
X114350804Y-50225450D01*
X114680712Y-50298590D01*
X114691329Y-50301435D01*
X114786505Y-50331444D01*
X115013607Y-50403050D01*
X115023921Y-50406803D01*
X115336143Y-50536130D01*
X115346087Y-50540768D01*
X115532229Y-50637667D01*
X115645822Y-50696800D01*
X115655340Y-50702295D01*
X115714641Y-50740074D01*
X115940344Y-50883863D01*
X115949348Y-50890168D01*
X116217431Y-51095876D01*
X116225851Y-51102941D01*
X116447776Y-51306296D01*
X116462615Y-51322490D01*
X116471057Y-51333492D01*
X116476981Y-51338238D01*
X116476987Y-51338244D01*
X116488517Y-51347481D01*
X116502632Y-51360690D01*
X116711059Y-51588149D01*
X116718124Y-51596569D01*
X116923832Y-51864652D01*
X116930137Y-51873656D01*
X117108693Y-52153930D01*
X117111704Y-52158657D01*
X117117199Y-52168176D01*
X117272846Y-52467169D01*
X117273228Y-52467903D01*
X117277870Y-52477856D01*
X117407194Y-52790071D01*
X117410950Y-52800393D01*
X117502360Y-53090305D01*
X117512566Y-53122673D01*
X117515411Y-53133291D01*
X117588548Y-53463192D01*
X117590457Y-53474016D01*
X117634566Y-53809049D01*
X117635524Y-53820000D01*
X117643432Y-54001118D01*
X117643360Y-54013563D01*
X117639887Y-54076440D01*
X117633596Y-54190344D01*
X117633338Y-54195006D01*
X117631285Y-54211734D01*
X117606012Y-54343826D01*
X117605564Y-54346165D01*
X117600329Y-54365252D01*
X117567517Y-54456187D01*
X117559271Y-54474377D01*
X117516745Y-54551310D01*
X117508010Y-54564959D01*
X117443651Y-54652553D01*
X117437784Y-54659941D01*
X117341476Y-54772315D01*
X117340367Y-54773591D01*
X117220874Y-54909061D01*
X117220636Y-54909336D01*
X117220617Y-54909358D01*
X117214406Y-54916541D01*
X117214357Y-54916598D01*
X117214225Y-54916751D01*
X117213925Y-54917105D01*
X117213720Y-54917351D01*
X117213677Y-54917403D01*
X117207735Y-54924557D01*
X117207424Y-54924932D01*
X117207150Y-54925268D01*
X117207139Y-54925282D01*
X117081773Y-55079299D01*
X117081743Y-55079336D01*
X117081387Y-55079774D01*
X117068835Y-55095836D01*
X117068280Y-55096576D01*
X117067947Y-55097038D01*
X117067935Y-55097055D01*
X117062776Y-55104223D01*
X117056474Y-55112980D01*
X116930797Y-55295059D01*
X116916690Y-55316637D01*
X116916069Y-55317641D01*
X116902926Y-55340147D01*
X116859092Y-55419784D01*
X116790936Y-55543607D01*
X116788276Y-55548208D01*
X116786680Y-55550839D01*
X116784252Y-55554840D01*
X116782445Y-55559148D01*
X116782445Y-55559149D01*
X116693777Y-55770599D01*
X116687775Y-55784911D01*
X116686624Y-55789443D01*
X116686623Y-55789446D01*
X116677117Y-55826878D01*
X116626365Y-56026714D01*
X116601370Y-56274939D01*
X116601594Y-56279606D01*
X116601594Y-56279611D01*
X116603335Y-56315851D01*
X116613339Y-56524131D01*
X116662010Y-56768818D01*
X116746314Y-57003622D01*
X116864398Y-57223386D01*
X116867193Y-57227130D01*
X116867195Y-57227132D01*
X116880051Y-57244348D01*
X117013668Y-57423283D01*
X117190844Y-57598921D01*
X117194606Y-57601679D01*
X117194609Y-57601682D01*
X117329302Y-57700442D01*
X117392036Y-57746440D01*
X117396171Y-57748616D01*
X117396175Y-57748618D01*
X117487937Y-57796896D01*
X117612823Y-57862602D01*
X117848354Y-57944853D01*
X117852947Y-57945725D01*
X118088867Y-57990516D01*
X118088870Y-57990516D01*
X118093456Y-57991387D01*
X118218100Y-57996285D01*
X118338075Y-58000999D01*
X118338081Y-58000999D01*
X118342743Y-58001182D01*
X118440134Y-57990516D01*
X118586087Y-57974532D01*
X118586092Y-57974531D01*
X118590740Y-57974022D01*
X118595264Y-57972831D01*
X118827476Y-57911694D01*
X118827478Y-57911693D01*
X118831999Y-57910503D01*
X118838791Y-57907585D01*
X119056924Y-57813868D01*
X119056926Y-57813867D01*
X119061218Y-57812023D01*
X119193160Y-57730375D01*
X119269391Y-57683202D01*
X119269395Y-57683199D01*
X119273364Y-57680743D01*
X119413404Y-57562190D01*
X119460209Y-57522567D01*
X119460210Y-57522566D01*
X119463775Y-57519548D01*
X119497532Y-57481056D01*
X119625187Y-57335494D01*
X119625191Y-57335489D01*
X119628269Y-57331979D01*
X119685897Y-57242387D01*
X119746202Y-57148631D01*
X119763231Y-57122157D01*
X119865697Y-56894691D01*
X119897434Y-56782161D01*
X119932146Y-56659082D01*
X119932147Y-56659079D01*
X119933416Y-56654578D01*
X119954731Y-56487030D01*
X119964502Y-56410222D01*
X119964502Y-56410218D01*
X119964900Y-56407092D01*
X119967207Y-56319000D01*
X119948718Y-56070206D01*
X119893659Y-55826878D01*
X119879103Y-55789446D01*
X119838680Y-55685500D01*
X119803238Y-55594361D01*
X119800920Y-55590305D01*
X119800915Y-55590295D01*
X119792744Y-55576000D01*
X119786218Y-55562131D01*
X119786173Y-55562152D01*
X119784288Y-55558062D01*
X119782702Y-55553852D01*
X119702783Y-55408658D01*
X119665452Y-55340836D01*
X119665445Y-55340824D01*
X119665072Y-55340146D01*
X119651930Y-55317641D01*
X119651309Y-55316637D01*
X119637202Y-55295059D01*
X119511525Y-55112980D01*
X119505223Y-55104223D01*
X119500064Y-55097055D01*
X119500052Y-55097038D01*
X119499719Y-55096576D01*
X119499164Y-55095836D01*
X119486612Y-55079774D01*
X119486256Y-55079336D01*
X119486226Y-55079299D01*
X119360860Y-54925282D01*
X119360849Y-54925268D01*
X119360575Y-54924932D01*
X119360264Y-54924557D01*
X119354322Y-54917403D01*
X119354270Y-54917341D01*
X119354074Y-54917105D01*
X119353774Y-54916751D01*
X119347125Y-54909062D01*
X119227641Y-54773601D01*
X119226524Y-54772315D01*
X119214562Y-54758358D01*
X119130208Y-54659935D01*
X119124361Y-54652573D01*
X119059983Y-54564951D01*
X119051256Y-54551314D01*
X119008728Y-54474377D01*
X119000482Y-54456187D01*
X118967670Y-54365252D01*
X118962435Y-54346165D01*
X118961988Y-54343826D01*
X118936714Y-54211735D01*
X118934661Y-54195007D01*
X118934569Y-54193332D01*
X118926852Y-54053624D01*
X118922398Y-53972977D01*
X118922397Y-53972960D01*
X118922329Y-53971734D01*
X118918458Y-53931080D01*
X118916883Y-53925551D01*
X118916882Y-53925546D01*
X118915623Y-53921127D01*
X118910899Y-53891554D01*
X118907428Y-53803219D01*
X118905319Y-53749555D01*
X118901077Y-53713711D01*
X118875911Y-53501092D01*
X118856675Y-53338574D01*
X118809222Y-53100011D01*
X118776421Y-52935108D01*
X118776418Y-52935097D01*
X118775937Y-52932677D01*
X118761593Y-52881816D01*
X118668664Y-52552321D01*
X118663600Y-52534366D01*
X118653961Y-52508236D01*
X118521212Y-52148408D01*
X118521212Y-52148407D01*
X118520359Y-52146096D01*
X118518908Y-52142949D01*
X118348134Y-51772510D01*
X118348127Y-51772497D01*
X118347097Y-51770262D01*
X118158501Y-51433500D01*
X118146093Y-51411344D01*
X118146092Y-51411342D01*
X118144881Y-51409180D01*
X117952680Y-51121532D01*
X117916338Y-51067142D01*
X117916335Y-51067138D01*
X117914958Y-51065077D01*
X117758674Y-50866832D01*
X117660282Y-50742022D01*
X117660278Y-50742017D01*
X117658746Y-50740074D01*
X117623825Y-50702296D01*
X117397700Y-50457675D01*
X117392379Y-50451293D01*
X117390067Y-50448600D01*
X117387593Y-50445306D01*
X117378242Y-50435758D01*
X117374998Y-50433214D01*
X117372597Y-50431064D01*
X117368770Y-50427804D01*
X117075760Y-50156947D01*
X117075741Y-50156931D01*
X117073926Y-50155253D01*
X117069402Y-50151686D01*
X116854074Y-49981936D01*
X116748923Y-49899042D01*
X116746803Y-49897625D01*
X116623656Y-49815341D01*
X116404820Y-49669119D01*
X116401594Y-49667312D01*
X116324972Y-49624402D01*
X116043738Y-49466903D01*
X116041489Y-49465866D01*
X115670143Y-49294672D01*
X115670139Y-49294670D01*
X115667904Y-49293640D01*
X115620336Y-49276091D01*
X115281961Y-49151257D01*
X115281950Y-49151253D01*
X115279634Y-49150399D01*
X115277250Y-49149727D01*
X115277245Y-49149725D01*
X115146161Y-49112756D01*
X114881322Y-49038063D01*
X114475425Y-48957324D01*
X114347260Y-48942155D01*
X114066897Y-48908971D01*
X114066889Y-48908970D01*
X114064444Y-48908681D01*
X113680116Y-48893579D01*
X113672088Y-48892852D01*
X113668367Y-48892569D01*
X113664278Y-48891987D01*
X113657235Y-48891913D01*
X113655034Y-48891890D01*
X113655032Y-48891890D01*
X113650914Y-48891847D01*
X113646824Y-48892342D01*
X113646823Y-48892342D01*
X113639167Y-48893269D01*
X113620007Y-48895587D01*
X113604872Y-48896500D01*
X109786175Y-48896500D01*
X109769727Y-48895422D01*
X109750371Y-48892873D01*
X109750367Y-48892873D01*
X109742841Y-48891882D01*
X109722511Y-48894126D01*
X109720610Y-48894336D01*
X109701288Y-48894977D01*
X109421040Y-48882738D01*
X109410090Y-48881780D01*
X109102823Y-48841325D01*
X109091997Y-48839416D01*
X108789425Y-48772334D01*
X108778808Y-48769489D01*
X108575529Y-48705394D01*
X108483232Y-48676292D01*
X108472921Y-48672540D01*
X108186571Y-48553929D01*
X108176616Y-48549286D01*
X108137939Y-48529152D01*
X107901705Y-48406174D01*
X107892218Y-48400698D01*
X107630805Y-48234157D01*
X107621810Y-48227858D01*
X107375940Y-48039195D01*
X107367520Y-48032130D01*
X107166152Y-47847610D01*
X107151316Y-47831420D01*
X107147567Y-47826534D01*
X107142943Y-47820508D01*
X107115510Y-47798530D01*
X107105196Y-47789291D01*
X106551536Y-47235631D01*
X106517510Y-47173319D01*
X106522575Y-47102504D01*
X106541347Y-47069862D01*
X106541216Y-47069772D01*
X106542338Y-47068139D01*
X106543198Y-47066644D01*
X106544234Y-47065380D01*
X106544239Y-47065373D01*
X106547624Y-47061245D01*
X106565552Y-47029750D01*
X106616632Y-46980445D01*
X106686262Y-46966583D01*
X106752333Y-46992566D01*
X106779573Y-47021716D01*
X106784983Y-47029752D01*
X106861441Y-47143319D01*
X106865120Y-47147176D01*
X106865122Y-47147178D01*
X106893129Y-47176537D01*
X107020576Y-47310135D01*
X107024854Y-47313318D01*
X107037984Y-47323087D01*
X107205542Y-47447754D01*
X107210293Y-47450170D01*
X107210297Y-47450172D01*
X107283673Y-47487478D01*
X107411051Y-47552240D01*
X107416145Y-47553822D01*
X107416148Y-47553823D01*
X107588945Y-47607478D01*
X107631227Y-47620607D01*
X107636516Y-47621308D01*
X107854489Y-47650198D01*
X107854494Y-47650198D01*
X107859774Y-47650898D01*
X107865103Y-47650698D01*
X107865105Y-47650698D01*
X107974966Y-47646574D01*
X108090158Y-47642249D01*
X108116143Y-47636797D01*
X108310572Y-47596002D01*
X108315791Y-47594907D01*
X108320750Y-47592949D01*
X108320752Y-47592948D01*
X108525256Y-47512185D01*
X108525258Y-47512184D01*
X108530221Y-47510224D01*
X108535525Y-47507006D01*
X108722757Y-47393390D01*
X108722756Y-47393390D01*
X108727317Y-47390623D01*
X108767134Y-47356072D01*
X108897412Y-47243023D01*
X108897414Y-47243021D01*
X108901445Y-47239523D01*
X108953090Y-47176537D01*
X109044240Y-47065373D01*
X109044244Y-47065367D01*
X109047624Y-47061245D01*
X109065552Y-47029750D01*
X109116632Y-46980445D01*
X109186262Y-46966583D01*
X109252333Y-46992566D01*
X109279573Y-47021716D01*
X109284983Y-47029752D01*
X109361441Y-47143319D01*
X109365120Y-47147176D01*
X109365122Y-47147178D01*
X109393129Y-47176537D01*
X109520576Y-47310135D01*
X109524854Y-47313318D01*
X109537984Y-47323087D01*
X109705542Y-47447754D01*
X109710293Y-47450170D01*
X109710297Y-47450172D01*
X109783673Y-47487478D01*
X109911051Y-47552240D01*
X109916145Y-47553822D01*
X109916148Y-47553823D01*
X110088945Y-47607478D01*
X110131227Y-47620607D01*
X110136516Y-47621308D01*
X110354489Y-47650198D01*
X110354494Y-47650198D01*
X110359774Y-47650898D01*
X110365103Y-47650698D01*
X110365105Y-47650698D01*
X110474966Y-47646574D01*
X110590158Y-47642249D01*
X110616143Y-47636797D01*
X110810572Y-47596002D01*
X110815791Y-47594907D01*
X110820750Y-47592949D01*
X110820752Y-47592948D01*
X111025256Y-47512185D01*
X111025258Y-47512184D01*
X111030221Y-47510224D01*
X111035525Y-47507006D01*
X111222757Y-47393390D01*
X111222756Y-47393390D01*
X111227317Y-47390623D01*
X111267134Y-47356072D01*
X111397412Y-47243023D01*
X111397414Y-47243021D01*
X111401445Y-47239523D01*
X111453090Y-47176537D01*
X111544240Y-47065373D01*
X111544244Y-47065367D01*
X111547624Y-47061245D01*
X111565552Y-47029750D01*
X111616632Y-46980445D01*
X111686262Y-46966583D01*
X111752333Y-46992566D01*
X111779573Y-47021716D01*
X111784983Y-47029752D01*
X111861441Y-47143319D01*
X111865120Y-47147176D01*
X111865122Y-47147178D01*
X111893129Y-47176537D01*
X112020576Y-47310135D01*
X112024854Y-47313318D01*
X112037984Y-47323087D01*
X112205542Y-47447754D01*
X112210293Y-47450170D01*
X112210297Y-47450172D01*
X112283673Y-47487478D01*
X112411051Y-47552240D01*
X112416145Y-47553822D01*
X112416148Y-47553823D01*
X112588945Y-47607478D01*
X112631227Y-47620607D01*
X112636516Y-47621308D01*
X112854489Y-47650198D01*
X112854494Y-47650198D01*
X112859774Y-47650898D01*
X112865103Y-47650698D01*
X112865105Y-47650698D01*
X112974966Y-47646574D01*
X113090158Y-47642249D01*
X113116143Y-47636797D01*
X113310572Y-47596002D01*
X113315791Y-47594907D01*
X113320750Y-47592949D01*
X113320752Y-47592948D01*
X113525256Y-47512185D01*
X113525258Y-47512184D01*
X113530221Y-47510224D01*
X113535525Y-47507006D01*
X113722757Y-47393390D01*
X113722756Y-47393390D01*
X113727317Y-47390623D01*
X113767134Y-47356072D01*
X113897412Y-47243023D01*
X113897414Y-47243021D01*
X113901445Y-47239523D01*
X113953090Y-47176537D01*
X114044240Y-47065373D01*
X114044244Y-47065367D01*
X114047624Y-47061245D01*
X114065552Y-47029750D01*
X114116632Y-46980445D01*
X114186262Y-46966583D01*
X114252333Y-46992566D01*
X114279573Y-47021716D01*
X114284983Y-47029752D01*
X114361441Y-47143319D01*
X114365120Y-47147176D01*
X114365122Y-47147178D01*
X114393129Y-47176537D01*
X114520576Y-47310135D01*
X114524854Y-47313318D01*
X114537984Y-47323087D01*
X114705542Y-47447754D01*
X114710293Y-47450170D01*
X114710297Y-47450172D01*
X114783673Y-47487478D01*
X114911051Y-47552240D01*
X114916145Y-47553822D01*
X114916148Y-47553823D01*
X115088945Y-47607478D01*
X115131227Y-47620607D01*
X115136516Y-47621308D01*
X115354489Y-47650198D01*
X115354494Y-47650198D01*
X115359774Y-47650898D01*
X115365103Y-47650698D01*
X115365105Y-47650698D01*
X115474966Y-47646574D01*
X115590158Y-47642249D01*
X115616143Y-47636797D01*
X115810572Y-47596002D01*
X115815791Y-47594907D01*
X115820750Y-47592949D01*
X115820752Y-47592948D01*
X116025256Y-47512185D01*
X116025258Y-47512184D01*
X116030221Y-47510224D01*
X116035525Y-47507006D01*
X116222757Y-47393390D01*
X116222756Y-47393390D01*
X116227317Y-47390623D01*
X116267134Y-47356072D01*
X116397412Y-47243023D01*
X116397414Y-47243021D01*
X116401445Y-47239523D01*
X116453090Y-47176537D01*
X116544240Y-47065373D01*
X116544244Y-47065367D01*
X116547624Y-47061245D01*
X116553055Y-47051704D01*
X116565829Y-47029265D01*
X116616912Y-46979959D01*
X116686542Y-46966098D01*
X116752613Y-46992082D01*
X116779851Y-47021232D01*
X116858852Y-47138578D01*
X116865519Y-47146870D01*
X117017228Y-47305900D01*
X117025186Y-47312941D01*
X117201525Y-47444141D01*
X117210562Y-47449745D01*
X117406484Y-47549357D01*
X117416335Y-47553357D01*
X117626240Y-47618534D01*
X117636624Y-47620817D01*
X117652043Y-47622861D01*
X117666207Y-47620665D01*
X117670000Y-47607478D01*
X117670000Y-46036000D01*
X117690002Y-45967879D01*
X117743658Y-45921386D01*
X117796000Y-45910000D01*
X118052000Y-45910000D01*
X118120121Y-45930002D01*
G37*
%TD.AperFunction*%
%TD*%
M02*
