%TF.GenerationSoftware,KiCad,Pcbnew,(6.0.6)*%
%TF.CreationDate,2023-03-14T01:25:27-07:00*%
%TF.ProjectId,k7000,6b373030-302e-46b6-9963-61645f706362,rev?*%
%TF.SameCoordinates,Original*%
%TF.FileFunction,Legend,Top*%
%TF.FilePolarity,Positive*%
%FSLAX46Y46*%
G04 Gerber Fmt 4.6, Leading zero omitted, Abs format (unit mm)*
G04 Created by KiCad (PCBNEW (6.0.6)) date 2023-03-14 01:25:27*
%MOMM*%
%LPD*%
G01*
G04 APERTURE LIST*
%ADD10C,0.300000*%
%ADD11C,0.124600*%
G04 APERTURE END LIST*
D10*
X82676142Y-79477571D02*
X83033285Y-80977571D01*
X83319000Y-79906142D01*
X83604714Y-80977571D01*
X83961857Y-79477571D01*
X84533285Y-80977571D02*
X84533285Y-79977571D01*
X84533285Y-80263285D02*
X84604714Y-80120428D01*
X84676142Y-80049000D01*
X84819000Y-79977571D01*
X84961857Y-79977571D01*
X86033285Y-80906142D02*
X85890428Y-80977571D01*
X85604714Y-80977571D01*
X85461857Y-80906142D01*
X85390428Y-80763285D01*
X85390428Y-80191857D01*
X85461857Y-80049000D01*
X85604714Y-79977571D01*
X85890428Y-79977571D01*
X86033285Y-80049000D01*
X86104714Y-80191857D01*
X86104714Y-80334714D01*
X85390428Y-80477571D01*
X86747571Y-79977571D02*
X86747571Y-80977571D01*
X86747571Y-80120428D02*
X86819000Y-80049000D01*
X86961857Y-79977571D01*
X87176142Y-79977571D01*
X87319000Y-80049000D01*
X87390428Y-80191857D01*
X87390428Y-80977571D01*
X89176142Y-80906142D02*
X89390428Y-80977571D01*
X89747571Y-80977571D01*
X89890428Y-80906142D01*
X89961857Y-80834714D01*
X90033285Y-80691857D01*
X90033285Y-80549000D01*
X89961857Y-80406142D01*
X89890428Y-80334714D01*
X89747571Y-80263285D01*
X89461857Y-80191857D01*
X89319000Y-80120428D01*
X89247571Y-80049000D01*
X89176142Y-79906142D01*
X89176142Y-79763285D01*
X89247571Y-79620428D01*
X89319000Y-79549000D01*
X89461857Y-79477571D01*
X89819000Y-79477571D01*
X90033285Y-79549000D01*
X90890428Y-80977571D02*
X90747571Y-80906142D01*
X90676142Y-80834714D01*
X90604714Y-80691857D01*
X90604714Y-80263285D01*
X90676142Y-80120428D01*
X90747571Y-80049000D01*
X90890428Y-79977571D01*
X91104714Y-79977571D01*
X91247571Y-80049000D01*
X91319000Y-80120428D01*
X91390428Y-80263285D01*
X91390428Y-80691857D01*
X91319000Y-80834714D01*
X91247571Y-80906142D01*
X91104714Y-80977571D01*
X90890428Y-80977571D01*
X92033285Y-80977571D02*
X92033285Y-79977571D01*
X92033285Y-80263285D02*
X92104714Y-80120428D01*
X92176142Y-80049000D01*
X92319000Y-79977571D01*
X92461857Y-79977571D01*
X93533285Y-80906142D02*
X93390428Y-80977571D01*
X93104714Y-80977571D01*
X92961857Y-80906142D01*
X92890428Y-80763285D01*
X92890428Y-80191857D01*
X92961857Y-80049000D01*
X93104714Y-79977571D01*
X93390428Y-79977571D01*
X93533285Y-80049000D01*
X93604714Y-80191857D01*
X93604714Y-80334714D01*
X92890428Y-80477571D01*
X94247571Y-79977571D02*
X94247571Y-80977571D01*
X94247571Y-80120428D02*
X94319000Y-80049000D01*
X94461857Y-79977571D01*
X94676142Y-79977571D01*
X94819000Y-80049000D01*
X94890428Y-80191857D01*
X94890428Y-80977571D01*
X95533285Y-80906142D02*
X95676142Y-80977571D01*
X95961857Y-80977571D01*
X96104714Y-80906142D01*
X96176142Y-80763285D01*
X96176142Y-80691857D01*
X96104714Y-80549000D01*
X95961857Y-80477571D01*
X95747571Y-80477571D01*
X95604714Y-80406142D01*
X95533285Y-80263285D01*
X95533285Y-80191857D01*
X95604714Y-80049000D01*
X95747571Y-79977571D01*
X95961857Y-79977571D01*
X96104714Y-80049000D01*
X97033285Y-80977571D02*
X96890428Y-80906142D01*
X96819000Y-80834714D01*
X96747571Y-80691857D01*
X96747571Y-80263285D01*
X96819000Y-80120428D01*
X96890428Y-80049000D01*
X97033285Y-79977571D01*
X97247571Y-79977571D01*
X97390428Y-80049000D01*
X97461857Y-80120428D01*
X97533285Y-80263285D01*
X97533285Y-80691857D01*
X97461857Y-80834714D01*
X97390428Y-80906142D01*
X97247571Y-80977571D01*
X97033285Y-80977571D01*
X98176142Y-79977571D02*
X98176142Y-80977571D01*
X98176142Y-80120428D02*
X98247571Y-80049000D01*
X98390428Y-79977571D01*
X98604714Y-79977571D01*
X98747571Y-80049000D01*
X98819000Y-80191857D01*
X98819000Y-80977571D01*
X82636000Y-81882571D02*
X82993142Y-82882571D01*
X83350285Y-81882571D01*
X83850285Y-81525428D02*
X83921714Y-81454000D01*
X84064571Y-81382571D01*
X84421714Y-81382571D01*
X84564571Y-81454000D01*
X84636000Y-81525428D01*
X84707428Y-81668285D01*
X84707428Y-81811142D01*
X84636000Y-82025428D01*
X83778857Y-82882571D01*
X84707428Y-82882571D01*
X86421714Y-81525428D02*
X86493142Y-81454000D01*
X86636000Y-81382571D01*
X86993142Y-81382571D01*
X87136000Y-81454000D01*
X87207428Y-81525428D01*
X87278857Y-81668285D01*
X87278857Y-81811142D01*
X87207428Y-82025428D01*
X86350285Y-82882571D01*
X87278857Y-82882571D01*
X88207428Y-81382571D02*
X88350285Y-81382571D01*
X88493142Y-81454000D01*
X88564571Y-81525428D01*
X88636000Y-81668285D01*
X88707428Y-81954000D01*
X88707428Y-82311142D01*
X88636000Y-82596857D01*
X88564571Y-82739714D01*
X88493142Y-82811142D01*
X88350285Y-82882571D01*
X88207428Y-82882571D01*
X88064571Y-82811142D01*
X87993142Y-82739714D01*
X87921714Y-82596857D01*
X87850285Y-82311142D01*
X87850285Y-81954000D01*
X87921714Y-81668285D01*
X87993142Y-81525428D01*
X88064571Y-81454000D01*
X88207428Y-81382571D01*
X89278857Y-81525428D02*
X89350285Y-81454000D01*
X89493142Y-81382571D01*
X89850285Y-81382571D01*
X89993142Y-81454000D01*
X90064571Y-81525428D01*
X90136000Y-81668285D01*
X90136000Y-81811142D01*
X90064571Y-82025428D01*
X89207428Y-82882571D01*
X90136000Y-82882571D01*
X90636000Y-81382571D02*
X91564571Y-81382571D01*
X91064571Y-81954000D01*
X91278857Y-81954000D01*
X91421714Y-82025428D01*
X91493142Y-82096857D01*
X91564571Y-82239714D01*
X91564571Y-82596857D01*
X91493142Y-82739714D01*
X91421714Y-82811142D01*
X91278857Y-82882571D01*
X90850285Y-82882571D01*
X90707428Y-82811142D01*
X90636000Y-82739714D01*
X121948000Y-55709428D02*
X122019428Y-55638000D01*
X122162285Y-55566571D01*
X122519428Y-55566571D01*
X122662285Y-55638000D01*
X122733714Y-55709428D01*
X122805142Y-55852285D01*
X122805142Y-55995142D01*
X122733714Y-56209428D01*
X121876571Y-57066571D01*
X122805142Y-57066571D01*
X124162285Y-55566571D02*
X123448000Y-55566571D01*
X123376571Y-56280857D01*
X123448000Y-56209428D01*
X123590857Y-56138000D01*
X123948000Y-56138000D01*
X124090857Y-56209428D01*
X124162285Y-56280857D01*
X124233714Y-56423714D01*
X124233714Y-56780857D01*
X124162285Y-56923714D01*
X124090857Y-56995142D01*
X123948000Y-57066571D01*
X123590857Y-57066571D01*
X123448000Y-56995142D01*
X123376571Y-56923714D01*
X124876571Y-57066571D02*
X124876571Y-55566571D01*
X125019428Y-56495142D02*
X125448000Y-57066571D01*
X125448000Y-56066571D02*
X124876571Y-56638000D01*
X121515428Y-70806571D02*
X120801142Y-70806571D01*
X120729714Y-71520857D01*
X120801142Y-71449428D01*
X120944000Y-71378000D01*
X121301142Y-71378000D01*
X121444000Y-71449428D01*
X121515428Y-71520857D01*
X121586857Y-71663714D01*
X121586857Y-72020857D01*
X121515428Y-72163714D01*
X121444000Y-72235142D01*
X121301142Y-72306571D01*
X120944000Y-72306571D01*
X120801142Y-72235142D01*
X120729714Y-72163714D01*
X122515428Y-70806571D02*
X122658285Y-70806571D01*
X122801142Y-70878000D01*
X122872571Y-70949428D01*
X122944000Y-71092285D01*
X123015428Y-71378000D01*
X123015428Y-71735142D01*
X122944000Y-72020857D01*
X122872571Y-72163714D01*
X122801142Y-72235142D01*
X122658285Y-72306571D01*
X122515428Y-72306571D01*
X122372571Y-72235142D01*
X122301142Y-72163714D01*
X122229714Y-72020857D01*
X122158285Y-71735142D01*
X122158285Y-71378000D01*
X122229714Y-71092285D01*
X122301142Y-70949428D01*
X122372571Y-70878000D01*
X122515428Y-70806571D01*
X123944000Y-70806571D02*
X124086857Y-70806571D01*
X124229714Y-70878000D01*
X124301142Y-70949428D01*
X124372571Y-71092285D01*
X124444000Y-71378000D01*
X124444000Y-71735142D01*
X124372571Y-72020857D01*
X124301142Y-72163714D01*
X124229714Y-72235142D01*
X124086857Y-72306571D01*
X123944000Y-72306571D01*
X123801142Y-72235142D01*
X123729714Y-72163714D01*
X123658285Y-72020857D01*
X123586857Y-71735142D01*
X123586857Y-71378000D01*
X123658285Y-71092285D01*
X123729714Y-70949428D01*
X123801142Y-70878000D01*
X123944000Y-70806571D01*
X125015428Y-72306571D02*
X125372571Y-72306571D01*
X125372571Y-72020857D01*
X125229714Y-71949428D01*
X125086857Y-71806571D01*
X125015428Y-71592285D01*
X125015428Y-71235142D01*
X125086857Y-71020857D01*
X125229714Y-70878000D01*
X125444000Y-70806571D01*
X125729714Y-70806571D01*
X125944000Y-70878000D01*
X126086857Y-71020857D01*
X126158285Y-71235142D01*
X126158285Y-71592285D01*
X126086857Y-71806571D01*
X125944000Y-71949428D01*
X125801142Y-72020857D01*
X125801142Y-72306571D01*
X126158285Y-72306571D01*
X104239428Y-70552571D02*
X103525142Y-70552571D01*
X103453714Y-71266857D01*
X103525142Y-71195428D01*
X103668000Y-71124000D01*
X104025142Y-71124000D01*
X104168000Y-71195428D01*
X104239428Y-71266857D01*
X104310857Y-71409714D01*
X104310857Y-71766857D01*
X104239428Y-71909714D01*
X104168000Y-71981142D01*
X104025142Y-72052571D01*
X103668000Y-72052571D01*
X103525142Y-71981142D01*
X103453714Y-71909714D01*
X105239428Y-70552571D02*
X105382285Y-70552571D01*
X105525142Y-70624000D01*
X105596571Y-70695428D01*
X105668000Y-70838285D01*
X105739428Y-71124000D01*
X105739428Y-71481142D01*
X105668000Y-71766857D01*
X105596571Y-71909714D01*
X105525142Y-71981142D01*
X105382285Y-72052571D01*
X105239428Y-72052571D01*
X105096571Y-71981142D01*
X105025142Y-71909714D01*
X104953714Y-71766857D01*
X104882285Y-71481142D01*
X104882285Y-71124000D01*
X104953714Y-70838285D01*
X105025142Y-70695428D01*
X105096571Y-70624000D01*
X105239428Y-70552571D01*
X106668000Y-70552571D02*
X106810857Y-70552571D01*
X106953714Y-70624000D01*
X107025142Y-70695428D01*
X107096571Y-70838285D01*
X107168000Y-71124000D01*
X107168000Y-71481142D01*
X107096571Y-71766857D01*
X107025142Y-71909714D01*
X106953714Y-71981142D01*
X106810857Y-72052571D01*
X106668000Y-72052571D01*
X106525142Y-71981142D01*
X106453714Y-71909714D01*
X106382285Y-71766857D01*
X106310857Y-71481142D01*
X106310857Y-71124000D01*
X106382285Y-70838285D01*
X106453714Y-70695428D01*
X106525142Y-70624000D01*
X106668000Y-70552571D01*
X107810857Y-72052571D02*
X107810857Y-70552571D01*
X107953714Y-71481142D02*
X108382285Y-72052571D01*
X108382285Y-71052571D02*
X107810857Y-71624000D01*
X85169714Y-70949428D02*
X85241142Y-70878000D01*
X85384000Y-70806571D01*
X85741142Y-70806571D01*
X85884000Y-70878000D01*
X85955428Y-70949428D01*
X86026857Y-71092285D01*
X86026857Y-71235142D01*
X85955428Y-71449428D01*
X85098285Y-72306571D01*
X86026857Y-72306571D01*
X86955428Y-70806571D02*
X87098285Y-70806571D01*
X87241142Y-70878000D01*
X87312571Y-70949428D01*
X87384000Y-71092285D01*
X87455428Y-71378000D01*
X87455428Y-71735142D01*
X87384000Y-72020857D01*
X87312571Y-72163714D01*
X87241142Y-72235142D01*
X87098285Y-72306571D01*
X86955428Y-72306571D01*
X86812571Y-72235142D01*
X86741142Y-72163714D01*
X86669714Y-72020857D01*
X86598285Y-71735142D01*
X86598285Y-71378000D01*
X86669714Y-71092285D01*
X86741142Y-70949428D01*
X86812571Y-70878000D01*
X86955428Y-70806571D01*
X88384000Y-70806571D02*
X88526857Y-70806571D01*
X88669714Y-70878000D01*
X88741142Y-70949428D01*
X88812571Y-71092285D01*
X88884000Y-71378000D01*
X88884000Y-71735142D01*
X88812571Y-72020857D01*
X88741142Y-72163714D01*
X88669714Y-72235142D01*
X88526857Y-72306571D01*
X88384000Y-72306571D01*
X88241142Y-72235142D01*
X88169714Y-72163714D01*
X88098285Y-72020857D01*
X88026857Y-71735142D01*
X88026857Y-71378000D01*
X88098285Y-71092285D01*
X88169714Y-70949428D01*
X88241142Y-70878000D01*
X88384000Y-70806571D01*
X89455428Y-72306571D02*
X89812571Y-72306571D01*
X89812571Y-72020857D01*
X89669714Y-71949428D01*
X89526857Y-71806571D01*
X89455428Y-71592285D01*
X89455428Y-71235142D01*
X89526857Y-71020857D01*
X89669714Y-70878000D01*
X89884000Y-70806571D01*
X90169714Y-70806571D01*
X90384000Y-70878000D01*
X90526857Y-71020857D01*
X90598285Y-71235142D01*
X90598285Y-71592285D01*
X90526857Y-71806571D01*
X90384000Y-71949428D01*
X90241142Y-72020857D01*
X90241142Y-72306571D01*
X90598285Y-72306571D01*
D11*
X99728571Y-63866380D02*
X99728571Y-62866380D01*
X100061904Y-63199714D02*
X100442857Y-63199714D01*
X100204761Y-63866380D02*
X100204761Y-63009238D01*
X100252380Y-62914000D01*
X100347619Y-62866380D01*
X100442857Y-62866380D01*
X101442857Y-63199714D02*
X101680952Y-63866380D01*
X101919047Y-63199714D02*
X101680952Y-63866380D01*
X101585714Y-64104476D01*
X101538095Y-64152095D01*
X101442857Y-64199714D01*
X102442857Y-63866380D02*
X102347619Y-63818761D01*
X102300000Y-63771142D01*
X102252380Y-63675904D01*
X102252380Y-63390190D01*
X102300000Y-63294952D01*
X102347619Y-63247333D01*
X102442857Y-63199714D01*
X102585714Y-63199714D01*
X102680952Y-63247333D01*
X102728571Y-63294952D01*
X102776190Y-63390190D01*
X102776190Y-63675904D01*
X102728571Y-63771142D01*
X102680952Y-63818761D01*
X102585714Y-63866380D01*
X102442857Y-63866380D01*
X103633333Y-63199714D02*
X103633333Y-63866380D01*
X103204761Y-63199714D02*
X103204761Y-63723523D01*
X103252380Y-63818761D01*
X103347619Y-63866380D01*
X103490476Y-63866380D01*
X103585714Y-63818761D01*
X103633333Y-63771142D01*
X104871428Y-63199714D02*
X104871428Y-64199714D01*
X104871428Y-63247333D02*
X104966666Y-63199714D01*
X105157142Y-63199714D01*
X105252380Y-63247333D01*
X105300000Y-63294952D01*
X105347619Y-63390190D01*
X105347619Y-63675904D01*
X105300000Y-63771142D01*
X105252380Y-63818761D01*
X105157142Y-63866380D01*
X104966666Y-63866380D01*
X104871428Y-63818761D01*
X106204761Y-63866380D02*
X106204761Y-63342571D01*
X106157142Y-63247333D01*
X106061904Y-63199714D01*
X105871428Y-63199714D01*
X105776190Y-63247333D01*
X106204761Y-63818761D02*
X106109523Y-63866380D01*
X105871428Y-63866380D01*
X105776190Y-63818761D01*
X105728571Y-63723523D01*
X105728571Y-63628285D01*
X105776190Y-63533047D01*
X105871428Y-63485428D01*
X106109523Y-63485428D01*
X106204761Y-63437809D01*
X106680952Y-63866380D02*
X106680952Y-63199714D01*
X106680952Y-62866380D02*
X106633333Y-62914000D01*
X106680952Y-62961619D01*
X106728571Y-62914000D01*
X106680952Y-62866380D01*
X106680952Y-62961619D01*
X107585714Y-63866380D02*
X107585714Y-62866380D01*
X107585714Y-63818761D02*
X107490476Y-63866380D01*
X107300000Y-63866380D01*
X107204761Y-63818761D01*
X107157142Y-63771142D01*
X107109523Y-63675904D01*
X107109523Y-63390190D01*
X107157142Y-63294952D01*
X107204761Y-63247333D01*
X107300000Y-63199714D01*
X107490476Y-63199714D01*
X107585714Y-63247333D01*
X108680952Y-63199714D02*
X109061904Y-63199714D01*
X108823809Y-63866380D02*
X108823809Y-63009238D01*
X108871428Y-62914000D01*
X108966666Y-62866380D01*
X109061904Y-62866380D01*
X109538095Y-63866380D02*
X109442857Y-63818761D01*
X109395238Y-63771142D01*
X109347619Y-63675904D01*
X109347619Y-63390190D01*
X109395238Y-63294952D01*
X109442857Y-63247333D01*
X109538095Y-63199714D01*
X109680952Y-63199714D01*
X109776190Y-63247333D01*
X109823809Y-63294952D01*
X109871428Y-63390190D01*
X109871428Y-63675904D01*
X109823809Y-63771142D01*
X109776190Y-63818761D01*
X109680952Y-63866380D01*
X109538095Y-63866380D01*
X110300000Y-63866380D02*
X110300000Y-63199714D01*
X110300000Y-63390190D02*
X110347619Y-63294952D01*
X110395238Y-63247333D01*
X110490476Y-63199714D01*
X110585714Y-63199714D01*
X111538095Y-63199714D02*
X111919047Y-63199714D01*
X111680952Y-63866380D02*
X111680952Y-63009238D01*
X111728571Y-62914000D01*
X111823809Y-62866380D01*
X111919047Y-62866380D01*
X112252380Y-63866380D02*
X112252380Y-63199714D01*
X112252380Y-62866380D02*
X112204761Y-62914000D01*
X112252380Y-62961619D01*
X112300000Y-62914000D01*
X112252380Y-62866380D01*
X112252380Y-62961619D01*
X112871428Y-63866380D02*
X112776190Y-63818761D01*
X112728571Y-63723523D01*
X112728571Y-62866380D01*
X113633333Y-63818761D02*
X113538095Y-63866380D01*
X113347619Y-63866380D01*
X113252380Y-63818761D01*
X113204761Y-63723523D01*
X113204761Y-63342571D01*
X113252380Y-63247333D01*
X113347619Y-63199714D01*
X113538095Y-63199714D01*
X113633333Y-63247333D01*
X113680952Y-63342571D01*
X113680952Y-63437809D01*
X113204761Y-63533047D01*
X114061904Y-63818761D02*
X114157142Y-63866380D01*
X114347619Y-63866380D01*
X114442857Y-63818761D01*
X114490476Y-63723523D01*
X114490476Y-63675904D01*
X114442857Y-63580666D01*
X114347619Y-63533047D01*
X114204761Y-63533047D01*
X114109523Y-63485428D01*
X114061904Y-63390190D01*
X114061904Y-63342571D01*
X114109523Y-63247333D01*
X114204761Y-63199714D01*
X114347619Y-63199714D01*
X114442857Y-63247333D01*
X114966666Y-63818761D02*
X114966666Y-63866380D01*
X114919047Y-63961619D01*
X114871428Y-64009238D01*
X115300000Y-63199714D02*
X115538095Y-63866380D01*
X115776190Y-63199714D02*
X115538095Y-63866380D01*
X115442857Y-64104476D01*
X115395238Y-64152095D01*
X115300000Y-64199714D01*
X116300000Y-63866380D02*
X116204761Y-63818761D01*
X116157142Y-63771142D01*
X116109523Y-63675904D01*
X116109523Y-63390190D01*
X116157142Y-63294952D01*
X116204761Y-63247333D01*
X116300000Y-63199714D01*
X116442857Y-63199714D01*
X116538095Y-63247333D01*
X116585714Y-63294952D01*
X116633333Y-63390190D01*
X116633333Y-63675904D01*
X116585714Y-63771142D01*
X116538095Y-63818761D01*
X116442857Y-63866380D01*
X116300000Y-63866380D01*
X117490476Y-63199714D02*
X117490476Y-63866380D01*
X117061904Y-63199714D02*
X117061904Y-63723523D01*
X117109523Y-63818761D01*
X117204761Y-63866380D01*
X117347619Y-63866380D01*
X117442857Y-63818761D01*
X117490476Y-63771142D01*
X119157142Y-63199714D02*
X119157142Y-64009238D01*
X119109523Y-64104476D01*
X119061904Y-64152095D01*
X118966666Y-64199714D01*
X118823809Y-64199714D01*
X118728571Y-64152095D01*
X119157142Y-63818761D02*
X119061904Y-63866380D01*
X118871428Y-63866380D01*
X118776190Y-63818761D01*
X118728571Y-63771142D01*
X118680952Y-63675904D01*
X118680952Y-63390190D01*
X118728571Y-63294952D01*
X118776190Y-63247333D01*
X118871428Y-63199714D01*
X119061904Y-63199714D01*
X119157142Y-63247333D01*
X119776190Y-63866380D02*
X119680952Y-63818761D01*
X119633333Y-63771142D01*
X119585714Y-63675904D01*
X119585714Y-63390190D01*
X119633333Y-63294952D01*
X119680952Y-63247333D01*
X119776190Y-63199714D01*
X119919047Y-63199714D01*
X120014285Y-63247333D01*
X120061904Y-63294952D01*
X120109523Y-63390190D01*
X120109523Y-63675904D01*
X120061904Y-63771142D01*
X120014285Y-63818761D01*
X119919047Y-63866380D01*
X119776190Y-63866380D01*
X120395238Y-63199714D02*
X120776190Y-63199714D01*
X120538095Y-62866380D02*
X120538095Y-63723523D01*
X120585714Y-63818761D01*
X120680952Y-63866380D01*
X120776190Y-63866380D01*
X121823809Y-63818761D02*
X121919047Y-63866380D01*
X122109523Y-63866380D01*
X122204761Y-63818761D01*
X122252380Y-63723523D01*
X122252380Y-63675904D01*
X122204761Y-63580666D01*
X122109523Y-63533047D01*
X121966666Y-63533047D01*
X121871428Y-63485428D01*
X121823809Y-63390190D01*
X121823809Y-63342571D01*
X121871428Y-63247333D01*
X121966666Y-63199714D01*
X122109523Y-63199714D01*
X122204761Y-63247333D01*
X123109523Y-63818761D02*
X123014285Y-63866380D01*
X122823809Y-63866380D01*
X122728571Y-63818761D01*
X122680952Y-63771142D01*
X122633333Y-63675904D01*
X122633333Y-63390190D01*
X122680952Y-63294952D01*
X122728571Y-63247333D01*
X122823809Y-63199714D01*
X123014285Y-63199714D01*
X123109523Y-63247333D01*
X123966666Y-63866380D02*
X123966666Y-63342571D01*
X123919047Y-63247333D01*
X123823809Y-63199714D01*
X123633333Y-63199714D01*
X123538095Y-63247333D01*
X123966666Y-63818761D02*
X123871428Y-63866380D01*
X123633333Y-63866380D01*
X123538095Y-63818761D01*
X123490476Y-63723523D01*
X123490476Y-63628285D01*
X123538095Y-63533047D01*
X123633333Y-63485428D01*
X123871428Y-63485428D01*
X123966666Y-63437809D01*
X124442857Y-63866380D02*
X124442857Y-63199714D01*
X124442857Y-63294952D02*
X124490476Y-63247333D01*
X124585714Y-63199714D01*
X124728571Y-63199714D01*
X124823809Y-63247333D01*
X124871428Y-63342571D01*
X124871428Y-63866380D01*
X124871428Y-63342571D02*
X124919047Y-63247333D01*
X125014285Y-63199714D01*
X125157142Y-63199714D01*
X125252380Y-63247333D01*
X125300000Y-63342571D01*
X125300000Y-63866380D01*
X125776190Y-63866380D02*
X125776190Y-63199714D01*
X125776190Y-63294952D02*
X125823809Y-63247333D01*
X125919047Y-63199714D01*
X126061904Y-63199714D01*
X126157142Y-63247333D01*
X126204761Y-63342571D01*
X126204761Y-63866380D01*
X126204761Y-63342571D02*
X126252380Y-63247333D01*
X126347619Y-63199714D01*
X126490476Y-63199714D01*
X126585714Y-63247333D01*
X126633333Y-63342571D01*
X126633333Y-63866380D01*
X127490476Y-63818761D02*
X127395238Y-63866380D01*
X127204761Y-63866380D01*
X127109523Y-63818761D01*
X127061904Y-63723523D01*
X127061904Y-63342571D01*
X127109523Y-63247333D01*
X127204761Y-63199714D01*
X127395238Y-63199714D01*
X127490476Y-63247333D01*
X127538095Y-63342571D01*
X127538095Y-63437809D01*
X127061904Y-63533047D01*
X128395238Y-63866380D02*
X128395238Y-62866380D01*
X128395238Y-63818761D02*
X128299999Y-63866380D01*
X128109523Y-63866380D01*
X128014285Y-63818761D01*
X127966666Y-63771142D01*
X127919047Y-63675904D01*
X127919047Y-63390190D01*
X127966666Y-63294952D01*
X128014285Y-63247333D01*
X128109523Y-63199714D01*
X128299999Y-63199714D01*
X128395238Y-63247333D01*
X128871428Y-63771142D02*
X128919047Y-63818761D01*
X128871428Y-63866380D01*
X128823809Y-63818761D01*
X128871428Y-63771142D01*
X128871428Y-63866380D01*
X128871428Y-63485428D02*
X128823809Y-62914000D01*
X128871428Y-62866380D01*
X128919047Y-62914000D01*
X128871428Y-63485428D01*
X128871428Y-62866380D01*
X110157142Y-64952571D02*
X109823809Y-64952571D01*
X109823809Y-65476380D02*
X109823809Y-64476380D01*
X110300000Y-64476380D01*
X110680952Y-65476380D02*
X110680952Y-64809714D01*
X110680952Y-64476380D02*
X110633333Y-64524000D01*
X110680952Y-64571619D01*
X110728571Y-64524000D01*
X110680952Y-64476380D01*
X110680952Y-64571619D01*
X111300000Y-65476380D02*
X111204761Y-65428761D01*
X111157142Y-65333523D01*
X111157142Y-64476380D01*
X112061904Y-65428761D02*
X111966666Y-65476380D01*
X111776190Y-65476380D01*
X111680952Y-65428761D01*
X111633333Y-65333523D01*
X111633333Y-64952571D01*
X111680952Y-64857333D01*
X111776190Y-64809714D01*
X111966666Y-64809714D01*
X112061904Y-64857333D01*
X112109523Y-64952571D01*
X112109523Y-65047809D01*
X111633333Y-65143047D01*
X112490476Y-65428761D02*
X112585714Y-65476380D01*
X112776190Y-65476380D01*
X112871428Y-65428761D01*
X112919047Y-65333523D01*
X112919047Y-65285904D01*
X112871428Y-65190666D01*
X112776190Y-65143047D01*
X112633333Y-65143047D01*
X112538095Y-65095428D01*
X112490476Y-65000190D01*
X112490476Y-64952571D01*
X112538095Y-64857333D01*
X112633333Y-64809714D01*
X112776190Y-64809714D01*
X112871428Y-64857333D01*
X113966666Y-64809714D02*
X114347619Y-64809714D01*
X114109523Y-65476380D02*
X114109523Y-64619238D01*
X114157142Y-64524000D01*
X114252380Y-64476380D01*
X114347619Y-64476380D01*
X114680952Y-65476380D02*
X114680952Y-64809714D01*
X114680952Y-65000190D02*
X114728571Y-64904952D01*
X114776190Y-64857333D01*
X114871428Y-64809714D01*
X114966666Y-64809714D01*
X115680952Y-65428761D02*
X115585714Y-65476380D01*
X115395238Y-65476380D01*
X115300000Y-65428761D01*
X115252380Y-65333523D01*
X115252380Y-64952571D01*
X115300000Y-64857333D01*
X115395238Y-64809714D01*
X115585714Y-64809714D01*
X115680952Y-64857333D01*
X115728571Y-64952571D01*
X115728571Y-65047809D01*
X115252380Y-65143047D01*
X116538095Y-65428761D02*
X116442857Y-65476380D01*
X116252380Y-65476380D01*
X116157142Y-65428761D01*
X116109523Y-65333523D01*
X116109523Y-64952571D01*
X116157142Y-64857333D01*
X116252380Y-64809714D01*
X116442857Y-64809714D01*
X116538095Y-64857333D01*
X116585714Y-64952571D01*
X116585714Y-65047809D01*
X116109523Y-65143047D01*
X118204761Y-65476380D02*
X118204761Y-64952571D01*
X118157142Y-64857333D01*
X118061904Y-64809714D01*
X117871428Y-64809714D01*
X117776190Y-64857333D01*
X118204761Y-65428761D02*
X118109523Y-65476380D01*
X117871428Y-65476380D01*
X117776190Y-65428761D01*
X117728571Y-65333523D01*
X117728571Y-65238285D01*
X117776190Y-65143047D01*
X117871428Y-65095428D01*
X118109523Y-65095428D01*
X118204761Y-65047809D01*
X118538095Y-64809714D02*
X118919047Y-64809714D01*
X118680952Y-64476380D02*
X118680952Y-65333523D01*
X118728571Y-65428761D01*
X118823809Y-65476380D01*
X118919047Y-65476380D01*
X100228571Y-66419714D02*
X100228571Y-67229238D01*
X100180952Y-67324476D01*
X100133333Y-67372095D01*
X100038095Y-67419714D01*
X99895238Y-67419714D01*
X99800000Y-67372095D01*
X100228571Y-67038761D02*
X100133333Y-67086380D01*
X99942857Y-67086380D01*
X99847619Y-67038761D01*
X99800000Y-66991142D01*
X99752380Y-66895904D01*
X99752380Y-66610190D01*
X99800000Y-66514952D01*
X99847619Y-66467333D01*
X99942857Y-66419714D01*
X100133333Y-66419714D01*
X100228571Y-66467333D01*
X100704761Y-67086380D02*
X100704761Y-66419714D01*
X100704761Y-66086380D02*
X100657142Y-66134000D01*
X100704761Y-66181619D01*
X100752380Y-66134000D01*
X100704761Y-66086380D01*
X100704761Y-66181619D01*
X101038095Y-66419714D02*
X101419047Y-66419714D01*
X101180952Y-66086380D02*
X101180952Y-66943523D01*
X101228571Y-67038761D01*
X101323809Y-67086380D01*
X101419047Y-67086380D01*
X101752380Y-67086380D02*
X101752380Y-66086380D01*
X102180952Y-67086380D02*
X102180952Y-66562571D01*
X102133333Y-66467333D01*
X102038095Y-66419714D01*
X101895238Y-66419714D01*
X101800000Y-66467333D01*
X101752380Y-66514952D01*
X103085714Y-66419714D02*
X103085714Y-67086380D01*
X102657142Y-66419714D02*
X102657142Y-66943523D01*
X102704761Y-67038761D01*
X102800000Y-67086380D01*
X102942857Y-67086380D01*
X103038095Y-67038761D01*
X103085714Y-66991142D01*
X103561904Y-67086380D02*
X103561904Y-66086380D01*
X103561904Y-66467333D02*
X103657142Y-66419714D01*
X103847619Y-66419714D01*
X103942857Y-66467333D01*
X103990476Y-66514952D01*
X104038095Y-66610190D01*
X104038095Y-66895904D01*
X103990476Y-66991142D01*
X103942857Y-67038761D01*
X103847619Y-67086380D01*
X103657142Y-67086380D01*
X103561904Y-67038761D01*
X104466666Y-66991142D02*
X104514285Y-67038761D01*
X104466666Y-67086380D01*
X104419047Y-67038761D01*
X104466666Y-66991142D01*
X104466666Y-67086380D01*
X105371428Y-67038761D02*
X105276190Y-67086380D01*
X105085714Y-67086380D01*
X104990476Y-67038761D01*
X104942857Y-66991142D01*
X104895238Y-66895904D01*
X104895238Y-66610190D01*
X104942857Y-66514952D01*
X104990476Y-66467333D01*
X105085714Y-66419714D01*
X105276190Y-66419714D01*
X105371428Y-66467333D01*
X105942857Y-67086380D02*
X105847619Y-67038761D01*
X105800000Y-66991142D01*
X105752380Y-66895904D01*
X105752380Y-66610190D01*
X105800000Y-66514952D01*
X105847619Y-66467333D01*
X105942857Y-66419714D01*
X106085714Y-66419714D01*
X106180952Y-66467333D01*
X106228571Y-66514952D01*
X106276190Y-66610190D01*
X106276190Y-66895904D01*
X106228571Y-66991142D01*
X106180952Y-67038761D01*
X106085714Y-67086380D01*
X105942857Y-67086380D01*
X106704761Y-67086380D02*
X106704761Y-66419714D01*
X106704761Y-66514952D02*
X106752380Y-66467333D01*
X106847619Y-66419714D01*
X106990476Y-66419714D01*
X107085714Y-66467333D01*
X107133333Y-66562571D01*
X107133333Y-67086380D01*
X107133333Y-66562571D02*
X107180952Y-66467333D01*
X107276190Y-66419714D01*
X107419047Y-66419714D01*
X107514285Y-66467333D01*
X107561904Y-66562571D01*
X107561904Y-67086380D01*
X108752380Y-66038761D02*
X107895238Y-67324476D01*
X108990476Y-66419714D02*
X109180952Y-67086380D01*
X109371428Y-66610190D01*
X109561904Y-67086380D01*
X109752380Y-66419714D01*
X110133333Y-67086380D02*
X110133333Y-66419714D01*
X110133333Y-66610190D02*
X110180952Y-66514952D01*
X110228571Y-66467333D01*
X110323809Y-66419714D01*
X110419047Y-66419714D01*
X111133333Y-67038761D02*
X111038095Y-67086380D01*
X110847619Y-67086380D01*
X110752380Y-67038761D01*
X110704761Y-66943523D01*
X110704761Y-66562571D01*
X110752380Y-66467333D01*
X110847619Y-66419714D01*
X111038095Y-66419714D01*
X111133333Y-66467333D01*
X111180952Y-66562571D01*
X111180952Y-66657809D01*
X110704761Y-66753047D01*
X111609523Y-66419714D02*
X111609523Y-67086380D01*
X111609523Y-66514952D02*
X111657142Y-66467333D01*
X111752380Y-66419714D01*
X111895238Y-66419714D01*
X111990476Y-66467333D01*
X112038095Y-66562571D01*
X112038095Y-67086380D01*
X112514285Y-66419714D02*
X112514285Y-67086380D01*
X112514285Y-66514952D02*
X112561904Y-66467333D01*
X112657142Y-66419714D01*
X112800000Y-66419714D01*
X112895238Y-66467333D01*
X112942857Y-66562571D01*
X112942857Y-67086380D01*
X113419047Y-66419714D02*
X113419047Y-67086380D01*
X113419047Y-66514952D02*
X113466666Y-66467333D01*
X113561904Y-66419714D01*
X113704761Y-66419714D01*
X113800000Y-66467333D01*
X113847619Y-66562571D01*
X113847619Y-67086380D01*
X114323809Y-66419714D02*
X114323809Y-67086380D01*
X114323809Y-66514952D02*
X114371428Y-66467333D01*
X114466666Y-66419714D01*
X114609523Y-66419714D01*
X114704761Y-66467333D01*
X114752380Y-66562571D01*
X114752380Y-67086380D01*
X115228571Y-66419714D02*
X115228571Y-67086380D01*
X115228571Y-66514952D02*
X115276190Y-66467333D01*
X115371428Y-66419714D01*
X115514285Y-66419714D01*
X115609523Y-66467333D01*
X115657142Y-66562571D01*
X115657142Y-67086380D01*
X116133333Y-66419714D02*
X116133333Y-67086380D01*
X116133333Y-66514952D02*
X116180952Y-66467333D01*
X116276190Y-66419714D01*
X116419047Y-66419714D01*
X116514285Y-66467333D01*
X116561904Y-66562571D01*
X116561904Y-67086380D01*
X117752380Y-66038761D02*
X116895238Y-67324476D01*
X118085714Y-67086380D02*
X118085714Y-66086380D01*
X118657142Y-67086380D02*
X118228571Y-66514952D01*
X118657142Y-66086380D02*
X118085714Y-66657809D01*
X118990476Y-66086380D02*
X119657142Y-66086380D01*
X119228571Y-67086380D01*
X120228571Y-66086380D02*
X120323809Y-66086380D01*
X120419047Y-66134000D01*
X120466666Y-66181619D01*
X120514285Y-66276857D01*
X120561904Y-66467333D01*
X120561904Y-66705428D01*
X120514285Y-66895904D01*
X120466666Y-66991142D01*
X120419047Y-67038761D01*
X120323809Y-67086380D01*
X120228571Y-67086380D01*
X120133333Y-67038761D01*
X120085714Y-66991142D01*
X120038095Y-66895904D01*
X119990476Y-66705428D01*
X119990476Y-66467333D01*
X120038095Y-66276857D01*
X120085714Y-66181619D01*
X120133333Y-66134000D01*
X120228571Y-66086380D01*
X121180952Y-66086380D02*
X121276190Y-66086380D01*
X121371428Y-66134000D01*
X121419047Y-66181619D01*
X121466666Y-66276857D01*
X121514285Y-66467333D01*
X121514285Y-66705428D01*
X121466666Y-66895904D01*
X121419047Y-66991142D01*
X121371428Y-67038761D01*
X121276190Y-67086380D01*
X121180952Y-67086380D01*
X121085714Y-67038761D01*
X121038095Y-66991142D01*
X120990476Y-66895904D01*
X120942857Y-66705428D01*
X120942857Y-66467333D01*
X120990476Y-66276857D01*
X121038095Y-66181619D01*
X121085714Y-66134000D01*
X121180952Y-66086380D01*
X122133333Y-66086380D02*
X122228571Y-66086380D01*
X122323809Y-66134000D01*
X122371428Y-66181619D01*
X122419047Y-66276857D01*
X122466666Y-66467333D01*
X122466666Y-66705428D01*
X122419047Y-66895904D01*
X122371428Y-66991142D01*
X122323809Y-67038761D01*
X122228571Y-67086380D01*
X122133333Y-67086380D01*
X122038095Y-67038761D01*
X121990476Y-66991142D01*
X121942857Y-66895904D01*
X121895238Y-66705428D01*
X121895238Y-66467333D01*
X121942857Y-66276857D01*
X121990476Y-66181619D01*
X122038095Y-66134000D01*
X122133333Y-66086380D01*
X122895238Y-66705428D02*
X123657142Y-66705428D01*
X124133333Y-67086380D02*
X124133333Y-66419714D01*
X124133333Y-66610190D02*
X124180952Y-66514952D01*
X124228571Y-66467333D01*
X124323809Y-66419714D01*
X124419047Y-66419714D01*
X125133333Y-67038761D02*
X125038095Y-67086380D01*
X124847619Y-67086380D01*
X124752380Y-67038761D01*
X124704761Y-66943523D01*
X124704761Y-66562571D01*
X124752380Y-66467333D01*
X124847619Y-66419714D01*
X125038095Y-66419714D01*
X125133333Y-66467333D01*
X125180952Y-66562571D01*
X125180952Y-66657809D01*
X124704761Y-66753047D01*
X125609523Y-67086380D02*
X125609523Y-66419714D01*
X125609523Y-66514952D02*
X125657142Y-66467333D01*
X125752380Y-66419714D01*
X125895238Y-66419714D01*
X125990476Y-66467333D01*
X126038095Y-66562571D01*
X126038095Y-67086380D01*
X126038095Y-66562571D02*
X126085714Y-66467333D01*
X126180952Y-66419714D01*
X126323809Y-66419714D01*
X126419047Y-66467333D01*
X126466666Y-66562571D01*
X126466666Y-67086380D01*
X127085714Y-67086380D02*
X126990476Y-67038761D01*
X126942857Y-66991142D01*
X126895238Y-66895904D01*
X126895238Y-66610190D01*
X126942857Y-66514952D01*
X126990476Y-66467333D01*
X127085714Y-66419714D01*
X127228571Y-66419714D01*
X127323809Y-66467333D01*
X127371428Y-66514952D01*
X127419047Y-66610190D01*
X127419047Y-66895904D01*
X127371428Y-66991142D01*
X127323809Y-67038761D01*
X127228571Y-67086380D01*
X127085714Y-67086380D01*
X127704761Y-66419714D02*
X128085714Y-66419714D01*
X127847619Y-66086380D02*
X127847619Y-66943523D01*
X127895238Y-67038761D01*
X127990476Y-67086380D01*
X128085714Y-67086380D01*
X128800000Y-67038761D02*
X128704761Y-67086380D01*
X128514285Y-67086380D01*
X128419047Y-67038761D01*
X128371428Y-66943523D01*
X128371428Y-66562571D01*
X128419047Y-66467333D01*
X128514285Y-66419714D01*
X128704761Y-66419714D01*
X128800000Y-66467333D01*
X128847619Y-66562571D01*
X128847619Y-66657809D01*
X128371428Y-66753047D01*
D10*
X104882285Y-55709428D02*
X104953714Y-55638000D01*
X105096571Y-55566571D01*
X105453714Y-55566571D01*
X105596571Y-55638000D01*
X105668000Y-55709428D01*
X105739428Y-55852285D01*
X105739428Y-55995142D01*
X105668000Y-56209428D01*
X104810857Y-57066571D01*
X105739428Y-57066571D01*
X106382285Y-57066571D02*
X106382285Y-55566571D01*
X106525142Y-56495142D02*
X106953714Y-57066571D01*
X106953714Y-56066571D02*
X106382285Y-56638000D01*
X86991142Y-57066571D02*
X86134000Y-57066571D01*
X86562571Y-57066571D02*
X86562571Y-55566571D01*
X86419714Y-55780857D01*
X86276857Y-55923714D01*
X86134000Y-55995142D01*
X87919714Y-55566571D02*
X88062571Y-55566571D01*
X88205428Y-55638000D01*
X88276857Y-55709428D01*
X88348285Y-55852285D01*
X88419714Y-56138000D01*
X88419714Y-56495142D01*
X88348285Y-56780857D01*
X88276857Y-56923714D01*
X88205428Y-56995142D01*
X88062571Y-57066571D01*
X87919714Y-57066571D01*
X87776857Y-56995142D01*
X87705428Y-56923714D01*
X87634000Y-56780857D01*
X87562571Y-56495142D01*
X87562571Y-56138000D01*
X87634000Y-55852285D01*
X87705428Y-55709428D01*
X87776857Y-55638000D01*
X87919714Y-55566571D01*
X89062571Y-57066571D02*
X89062571Y-55566571D01*
X89205428Y-56495142D02*
X89634000Y-57066571D01*
X89634000Y-56066571D02*
X89062571Y-56638000D01*
M02*
