%TF.GenerationSoftware,KiCad,Pcbnew,(6.0.6)*%
%TF.CreationDate,2023-03-13T22:40:33-07:00*%
%TF.ProjectId,k7000,6b373030-302e-46b6-9963-61645f706362,rev?*%
%TF.SameCoordinates,Original*%
%TF.FileFunction,Legend,Top*%
%TF.FilePolarity,Positive*%
%FSLAX46Y46*%
G04 Gerber Fmt 4.6, Leading zero omitted, Abs format (unit mm)*
G04 Created by KiCad (PCBNEW (6.0.6)) date 2023-03-13 22:40:33*
%MOMM*%
%LPD*%
G01*
G04 APERTURE LIST*
%ADD10C,0.150000*%
G04 APERTURE END LIST*
D10*
X112546761Y-77539380D02*
X112546761Y-76539380D01*
X112880095Y-76872714D02*
X113261047Y-76872714D01*
X113022952Y-77539380D02*
X113022952Y-76682238D01*
X113070571Y-76587000D01*
X113165809Y-76539380D01*
X113261047Y-76539380D01*
X114261047Y-76872714D02*
X114499142Y-77539380D01*
X114737238Y-76872714D02*
X114499142Y-77539380D01*
X114403904Y-77777476D01*
X114356285Y-77825095D01*
X114261047Y-77872714D01*
X115261047Y-77539380D02*
X115165809Y-77491761D01*
X115118190Y-77444142D01*
X115070571Y-77348904D01*
X115070571Y-77063190D01*
X115118190Y-76967952D01*
X115165809Y-76920333D01*
X115261047Y-76872714D01*
X115403904Y-76872714D01*
X115499142Y-76920333D01*
X115546761Y-76967952D01*
X115594380Y-77063190D01*
X115594380Y-77348904D01*
X115546761Y-77444142D01*
X115499142Y-77491761D01*
X115403904Y-77539380D01*
X115261047Y-77539380D01*
X116451523Y-76872714D02*
X116451523Y-77539380D01*
X116022952Y-76872714D02*
X116022952Y-77396523D01*
X116070571Y-77491761D01*
X116165809Y-77539380D01*
X116308666Y-77539380D01*
X116403904Y-77491761D01*
X116451523Y-77444142D01*
X117689619Y-76872714D02*
X117689619Y-77872714D01*
X117689619Y-76920333D02*
X117784857Y-76872714D01*
X117975333Y-76872714D01*
X118070571Y-76920333D01*
X118118190Y-76967952D01*
X118165809Y-77063190D01*
X118165809Y-77348904D01*
X118118190Y-77444142D01*
X118070571Y-77491761D01*
X117975333Y-77539380D01*
X117784857Y-77539380D01*
X117689619Y-77491761D01*
X119022952Y-77539380D02*
X119022952Y-77015571D01*
X118975333Y-76920333D01*
X118880095Y-76872714D01*
X118689619Y-76872714D01*
X118594380Y-76920333D01*
X119022952Y-77491761D02*
X118927714Y-77539380D01*
X118689619Y-77539380D01*
X118594380Y-77491761D01*
X118546761Y-77396523D01*
X118546761Y-77301285D01*
X118594380Y-77206047D01*
X118689619Y-77158428D01*
X118927714Y-77158428D01*
X119022952Y-77110809D01*
X119499142Y-77539380D02*
X119499142Y-76872714D01*
X119499142Y-76539380D02*
X119451523Y-76587000D01*
X119499142Y-76634619D01*
X119546761Y-76587000D01*
X119499142Y-76539380D01*
X119499142Y-76634619D01*
X120403904Y-77539380D02*
X120403904Y-76539380D01*
X120403904Y-77491761D02*
X120308666Y-77539380D01*
X120118190Y-77539380D01*
X120022952Y-77491761D01*
X119975333Y-77444142D01*
X119927714Y-77348904D01*
X119927714Y-77063190D01*
X119975333Y-76967952D01*
X120022952Y-76920333D01*
X120118190Y-76872714D01*
X120308666Y-76872714D01*
X120403904Y-76920333D01*
X121499142Y-76872714D02*
X121880095Y-76872714D01*
X121642000Y-77539380D02*
X121642000Y-76682238D01*
X121689619Y-76587000D01*
X121784857Y-76539380D01*
X121880095Y-76539380D01*
X122356285Y-77539380D02*
X122261047Y-77491761D01*
X122213428Y-77444142D01*
X122165809Y-77348904D01*
X122165809Y-77063190D01*
X122213428Y-76967952D01*
X122261047Y-76920333D01*
X122356285Y-76872714D01*
X122499142Y-76872714D01*
X122594380Y-76920333D01*
X122642000Y-76967952D01*
X122689619Y-77063190D01*
X122689619Y-77348904D01*
X122642000Y-77444142D01*
X122594380Y-77491761D01*
X122499142Y-77539380D01*
X122356285Y-77539380D01*
X123118190Y-77539380D02*
X123118190Y-76872714D01*
X123118190Y-77063190D02*
X123165809Y-76967952D01*
X123213428Y-76920333D01*
X123308666Y-76872714D01*
X123403904Y-76872714D01*
X124356285Y-76872714D02*
X124737238Y-76872714D01*
X124499142Y-77539380D02*
X124499142Y-76682238D01*
X124546761Y-76587000D01*
X124642000Y-76539380D01*
X124737238Y-76539380D01*
X125070571Y-77539380D02*
X125070571Y-76872714D01*
X125070571Y-76539380D02*
X125022952Y-76587000D01*
X125070571Y-76634619D01*
X125118190Y-76587000D01*
X125070571Y-76539380D01*
X125070571Y-76634619D01*
X125689619Y-77539380D02*
X125594380Y-77491761D01*
X125546761Y-77396523D01*
X125546761Y-76539380D01*
X126451523Y-77491761D02*
X126356285Y-77539380D01*
X126165809Y-77539380D01*
X126070571Y-77491761D01*
X126022952Y-77396523D01*
X126022952Y-77015571D01*
X126070571Y-76920333D01*
X126165809Y-76872714D01*
X126356285Y-76872714D01*
X126451523Y-76920333D01*
X126499142Y-77015571D01*
X126499142Y-77110809D01*
X126022952Y-77206047D01*
X126880095Y-77491761D02*
X126975333Y-77539380D01*
X127165809Y-77539380D01*
X127261047Y-77491761D01*
X127308666Y-77396523D01*
X127308666Y-77348904D01*
X127261047Y-77253666D01*
X127165809Y-77206047D01*
X127022952Y-77206047D01*
X126927714Y-77158428D01*
X126880095Y-77063190D01*
X126880095Y-77015571D01*
X126927714Y-76920333D01*
X127022952Y-76872714D01*
X127165809Y-76872714D01*
X127261047Y-76920333D01*
X127784857Y-77491761D02*
X127784857Y-77539380D01*
X127737238Y-77634619D01*
X127689619Y-77682238D01*
X113308666Y-78482714D02*
X113546761Y-79149380D01*
X113784857Y-78482714D02*
X113546761Y-79149380D01*
X113451523Y-79387476D01*
X113403904Y-79435095D01*
X113308666Y-79482714D01*
X114308666Y-79149380D02*
X114213428Y-79101761D01*
X114165809Y-79054142D01*
X114118190Y-78958904D01*
X114118190Y-78673190D01*
X114165809Y-78577952D01*
X114213428Y-78530333D01*
X114308666Y-78482714D01*
X114451523Y-78482714D01*
X114546761Y-78530333D01*
X114594380Y-78577952D01*
X114642000Y-78673190D01*
X114642000Y-78958904D01*
X114594380Y-79054142D01*
X114546761Y-79101761D01*
X114451523Y-79149380D01*
X114308666Y-79149380D01*
X115499142Y-78482714D02*
X115499142Y-79149380D01*
X115070571Y-78482714D02*
X115070571Y-79006523D01*
X115118190Y-79101761D01*
X115213428Y-79149380D01*
X115356285Y-79149380D01*
X115451523Y-79101761D01*
X115499142Y-79054142D01*
X117165809Y-78482714D02*
X117165809Y-79292238D01*
X117118190Y-79387476D01*
X117070571Y-79435095D01*
X116975333Y-79482714D01*
X116832476Y-79482714D01*
X116737238Y-79435095D01*
X117165809Y-79101761D02*
X117070571Y-79149380D01*
X116880095Y-79149380D01*
X116784857Y-79101761D01*
X116737238Y-79054142D01*
X116689619Y-78958904D01*
X116689619Y-78673190D01*
X116737238Y-78577952D01*
X116784857Y-78530333D01*
X116880095Y-78482714D01*
X117070571Y-78482714D01*
X117165809Y-78530333D01*
X117784857Y-79149380D02*
X117689619Y-79101761D01*
X117642000Y-79054142D01*
X117594380Y-78958904D01*
X117594380Y-78673190D01*
X117642000Y-78577952D01*
X117689619Y-78530333D01*
X117784857Y-78482714D01*
X117927714Y-78482714D01*
X118022952Y-78530333D01*
X118070571Y-78577952D01*
X118118190Y-78673190D01*
X118118190Y-78958904D01*
X118070571Y-79054142D01*
X118022952Y-79101761D01*
X117927714Y-79149380D01*
X117784857Y-79149380D01*
X118403904Y-78482714D02*
X118784857Y-78482714D01*
X118546761Y-78149380D02*
X118546761Y-79006523D01*
X118594380Y-79101761D01*
X118689619Y-79149380D01*
X118784857Y-79149380D01*
X119832476Y-79101761D02*
X119927714Y-79149380D01*
X120118190Y-79149380D01*
X120213428Y-79101761D01*
X120261047Y-79006523D01*
X120261047Y-78958904D01*
X120213428Y-78863666D01*
X120118190Y-78816047D01*
X119975333Y-78816047D01*
X119880095Y-78768428D01*
X119832476Y-78673190D01*
X119832476Y-78625571D01*
X119880095Y-78530333D01*
X119975333Y-78482714D01*
X120118190Y-78482714D01*
X120213428Y-78530333D01*
X121118190Y-79101761D02*
X121022952Y-79149380D01*
X120832476Y-79149380D01*
X120737238Y-79101761D01*
X120689619Y-79054142D01*
X120642000Y-78958904D01*
X120642000Y-78673190D01*
X120689619Y-78577952D01*
X120737238Y-78530333D01*
X120832476Y-78482714D01*
X121022952Y-78482714D01*
X121118190Y-78530333D01*
X121975333Y-79149380D02*
X121975333Y-78625571D01*
X121927714Y-78530333D01*
X121832476Y-78482714D01*
X121642000Y-78482714D01*
X121546761Y-78530333D01*
X121975333Y-79101761D02*
X121880095Y-79149380D01*
X121642000Y-79149380D01*
X121546761Y-79101761D01*
X121499142Y-79006523D01*
X121499142Y-78911285D01*
X121546761Y-78816047D01*
X121642000Y-78768428D01*
X121880095Y-78768428D01*
X121975333Y-78720809D01*
X122451523Y-79149380D02*
X122451523Y-78482714D01*
X122451523Y-78577952D02*
X122499142Y-78530333D01*
X122594380Y-78482714D01*
X122737238Y-78482714D01*
X122832476Y-78530333D01*
X122880095Y-78625571D01*
X122880095Y-79149380D01*
X122880095Y-78625571D02*
X122927714Y-78530333D01*
X123022952Y-78482714D01*
X123165809Y-78482714D01*
X123261047Y-78530333D01*
X123308666Y-78625571D01*
X123308666Y-79149380D01*
X123784857Y-79149380D02*
X123784857Y-78482714D01*
X123784857Y-78577952D02*
X123832476Y-78530333D01*
X123927714Y-78482714D01*
X124070571Y-78482714D01*
X124165809Y-78530333D01*
X124213428Y-78625571D01*
X124213428Y-79149380D01*
X124213428Y-78625571D02*
X124261047Y-78530333D01*
X124356285Y-78482714D01*
X124499142Y-78482714D01*
X124594380Y-78530333D01*
X124642000Y-78625571D01*
X124642000Y-79149380D01*
X125499142Y-79101761D02*
X125403904Y-79149380D01*
X125213428Y-79149380D01*
X125118190Y-79101761D01*
X125070571Y-79006523D01*
X125070571Y-78625571D01*
X125118190Y-78530333D01*
X125213428Y-78482714D01*
X125403904Y-78482714D01*
X125499142Y-78530333D01*
X125546761Y-78625571D01*
X125546761Y-78720809D01*
X125070571Y-78816047D01*
X126403904Y-79149380D02*
X126403904Y-78149380D01*
X126403904Y-79101761D02*
X126308666Y-79149380D01*
X126118190Y-79149380D01*
X126022952Y-79101761D01*
X125975333Y-79054142D01*
X125927714Y-78958904D01*
X125927714Y-78673190D01*
X125975333Y-78577952D01*
X126022952Y-78530333D01*
X126118190Y-78482714D01*
X126308666Y-78482714D01*
X126403904Y-78530333D01*
X126880095Y-79054142D02*
X126927714Y-79101761D01*
X126880095Y-79149380D01*
X126832476Y-79101761D01*
X126880095Y-79054142D01*
X126880095Y-79149380D01*
X126880095Y-78768428D02*
X126832476Y-78197000D01*
X126880095Y-78149380D01*
X126927714Y-78197000D01*
X126880095Y-78768428D01*
X126880095Y-78149380D01*
X115999142Y-80235571D02*
X115665809Y-80235571D01*
X115665809Y-80759380D02*
X115665809Y-79759380D01*
X116142000Y-79759380D01*
X116522952Y-80759380D02*
X116522952Y-80092714D01*
X116522952Y-79759380D02*
X116475333Y-79807000D01*
X116522952Y-79854619D01*
X116570571Y-79807000D01*
X116522952Y-79759380D01*
X116522952Y-79854619D01*
X117142000Y-80759380D02*
X117046761Y-80711761D01*
X116999142Y-80616523D01*
X116999142Y-79759380D01*
X117903904Y-80711761D02*
X117808666Y-80759380D01*
X117618190Y-80759380D01*
X117522952Y-80711761D01*
X117475333Y-80616523D01*
X117475333Y-80235571D01*
X117522952Y-80140333D01*
X117618190Y-80092714D01*
X117808666Y-80092714D01*
X117903904Y-80140333D01*
X117951523Y-80235571D01*
X117951523Y-80330809D01*
X117475333Y-80426047D01*
X118332476Y-80711761D02*
X118427714Y-80759380D01*
X118618190Y-80759380D01*
X118713428Y-80711761D01*
X118761047Y-80616523D01*
X118761047Y-80568904D01*
X118713428Y-80473666D01*
X118618190Y-80426047D01*
X118475333Y-80426047D01*
X118380095Y-80378428D01*
X118332476Y-80283190D01*
X118332476Y-80235571D01*
X118380095Y-80140333D01*
X118475333Y-80092714D01*
X118618190Y-80092714D01*
X118713428Y-80140333D01*
X119808666Y-80092714D02*
X120189619Y-80092714D01*
X119951523Y-80759380D02*
X119951523Y-79902238D01*
X119999142Y-79807000D01*
X120094380Y-79759380D01*
X120189619Y-79759380D01*
X120522952Y-80759380D02*
X120522952Y-80092714D01*
X120522952Y-80283190D02*
X120570571Y-80187952D01*
X120618190Y-80140333D01*
X120713428Y-80092714D01*
X120808666Y-80092714D01*
X121522952Y-80711761D02*
X121427714Y-80759380D01*
X121237238Y-80759380D01*
X121142000Y-80711761D01*
X121094380Y-80616523D01*
X121094380Y-80235571D01*
X121142000Y-80140333D01*
X121237238Y-80092714D01*
X121427714Y-80092714D01*
X121522952Y-80140333D01*
X121570571Y-80235571D01*
X121570571Y-80330809D01*
X121094380Y-80426047D01*
X122380095Y-80711761D02*
X122284857Y-80759380D01*
X122094380Y-80759380D01*
X121999142Y-80711761D01*
X121951523Y-80616523D01*
X121951523Y-80235571D01*
X121999142Y-80140333D01*
X122094380Y-80092714D01*
X122284857Y-80092714D01*
X122380095Y-80140333D01*
X122427714Y-80235571D01*
X122427714Y-80330809D01*
X121951523Y-80426047D01*
X124046761Y-80759380D02*
X124046761Y-80235571D01*
X123999142Y-80140333D01*
X123903904Y-80092714D01*
X123713428Y-80092714D01*
X123618190Y-80140333D01*
X124046761Y-80711761D02*
X123951523Y-80759380D01*
X123713428Y-80759380D01*
X123618190Y-80711761D01*
X123570571Y-80616523D01*
X123570571Y-80521285D01*
X123618190Y-80426047D01*
X123713428Y-80378428D01*
X123951523Y-80378428D01*
X124046761Y-80330809D01*
X124380095Y-80092714D02*
X124761047Y-80092714D01*
X124522952Y-79759380D02*
X124522952Y-80616523D01*
X124570571Y-80711761D01*
X124665809Y-80759380D01*
X124761047Y-80759380D01*
X106070571Y-81702714D02*
X106070571Y-82512238D01*
X106022952Y-82607476D01*
X105975333Y-82655095D01*
X105880095Y-82702714D01*
X105737238Y-82702714D01*
X105642000Y-82655095D01*
X106070571Y-82321761D02*
X105975333Y-82369380D01*
X105784857Y-82369380D01*
X105689619Y-82321761D01*
X105642000Y-82274142D01*
X105594380Y-82178904D01*
X105594380Y-81893190D01*
X105642000Y-81797952D01*
X105689619Y-81750333D01*
X105784857Y-81702714D01*
X105975333Y-81702714D01*
X106070571Y-81750333D01*
X106546761Y-82369380D02*
X106546761Y-81702714D01*
X106546761Y-81369380D02*
X106499142Y-81417000D01*
X106546761Y-81464619D01*
X106594380Y-81417000D01*
X106546761Y-81369380D01*
X106546761Y-81464619D01*
X106880095Y-81702714D02*
X107261047Y-81702714D01*
X107022952Y-81369380D02*
X107022952Y-82226523D01*
X107070571Y-82321761D01*
X107165809Y-82369380D01*
X107261047Y-82369380D01*
X107594380Y-82369380D02*
X107594380Y-81369380D01*
X108022952Y-82369380D02*
X108022952Y-81845571D01*
X107975333Y-81750333D01*
X107880095Y-81702714D01*
X107737238Y-81702714D01*
X107642000Y-81750333D01*
X107594380Y-81797952D01*
X108927714Y-81702714D02*
X108927714Y-82369380D01*
X108499142Y-81702714D02*
X108499142Y-82226523D01*
X108546761Y-82321761D01*
X108642000Y-82369380D01*
X108784857Y-82369380D01*
X108880095Y-82321761D01*
X108927714Y-82274142D01*
X109403904Y-82369380D02*
X109403904Y-81369380D01*
X109403904Y-81750333D02*
X109499142Y-81702714D01*
X109689619Y-81702714D01*
X109784857Y-81750333D01*
X109832476Y-81797952D01*
X109880095Y-81893190D01*
X109880095Y-82178904D01*
X109832476Y-82274142D01*
X109784857Y-82321761D01*
X109689619Y-82369380D01*
X109499142Y-82369380D01*
X109403904Y-82321761D01*
X110308666Y-82274142D02*
X110356285Y-82321761D01*
X110308666Y-82369380D01*
X110261047Y-82321761D01*
X110308666Y-82274142D01*
X110308666Y-82369380D01*
X111213428Y-82321761D02*
X111118190Y-82369380D01*
X110927714Y-82369380D01*
X110832476Y-82321761D01*
X110784857Y-82274142D01*
X110737238Y-82178904D01*
X110737238Y-81893190D01*
X110784857Y-81797952D01*
X110832476Y-81750333D01*
X110927714Y-81702714D01*
X111118190Y-81702714D01*
X111213428Y-81750333D01*
X111784857Y-82369380D02*
X111689619Y-82321761D01*
X111642000Y-82274142D01*
X111594380Y-82178904D01*
X111594380Y-81893190D01*
X111642000Y-81797952D01*
X111689619Y-81750333D01*
X111784857Y-81702714D01*
X111927714Y-81702714D01*
X112022952Y-81750333D01*
X112070571Y-81797952D01*
X112118190Y-81893190D01*
X112118190Y-82178904D01*
X112070571Y-82274142D01*
X112022952Y-82321761D01*
X111927714Y-82369380D01*
X111784857Y-82369380D01*
X112546761Y-82369380D02*
X112546761Y-81702714D01*
X112546761Y-81797952D02*
X112594380Y-81750333D01*
X112689619Y-81702714D01*
X112832476Y-81702714D01*
X112927714Y-81750333D01*
X112975333Y-81845571D01*
X112975333Y-82369380D01*
X112975333Y-81845571D02*
X113022952Y-81750333D01*
X113118190Y-81702714D01*
X113261047Y-81702714D01*
X113356285Y-81750333D01*
X113403904Y-81845571D01*
X113403904Y-82369380D01*
X114594380Y-81321761D02*
X113737238Y-82607476D01*
X114832476Y-81702714D02*
X115022952Y-82369380D01*
X115213428Y-81893190D01*
X115403904Y-82369380D01*
X115594380Y-81702714D01*
X115975333Y-82369380D02*
X115975333Y-81702714D01*
X115975333Y-81893190D02*
X116022952Y-81797952D01*
X116070571Y-81750333D01*
X116165809Y-81702714D01*
X116261047Y-81702714D01*
X116975333Y-82321761D02*
X116880095Y-82369380D01*
X116689619Y-82369380D01*
X116594380Y-82321761D01*
X116546761Y-82226523D01*
X116546761Y-81845571D01*
X116594380Y-81750333D01*
X116689619Y-81702714D01*
X116880095Y-81702714D01*
X116975333Y-81750333D01*
X117022952Y-81845571D01*
X117022952Y-81940809D01*
X116546761Y-82036047D01*
X117451523Y-81702714D02*
X117451523Y-82369380D01*
X117451523Y-81797952D02*
X117499142Y-81750333D01*
X117594380Y-81702714D01*
X117737238Y-81702714D01*
X117832476Y-81750333D01*
X117880095Y-81845571D01*
X117880095Y-82369380D01*
X118356285Y-81702714D02*
X118356285Y-82369380D01*
X118356285Y-81797952D02*
X118403904Y-81750333D01*
X118499142Y-81702714D01*
X118642000Y-81702714D01*
X118737238Y-81750333D01*
X118784857Y-81845571D01*
X118784857Y-82369380D01*
X119261047Y-81702714D02*
X119261047Y-82369380D01*
X119261047Y-81797952D02*
X119308666Y-81750333D01*
X119403904Y-81702714D01*
X119546761Y-81702714D01*
X119642000Y-81750333D01*
X119689619Y-81845571D01*
X119689619Y-82369380D01*
X120165809Y-81702714D02*
X120165809Y-82369380D01*
X120165809Y-81797952D02*
X120213428Y-81750333D01*
X120308666Y-81702714D01*
X120451523Y-81702714D01*
X120546761Y-81750333D01*
X120594380Y-81845571D01*
X120594380Y-82369380D01*
X121070571Y-81702714D02*
X121070571Y-82369380D01*
X121070571Y-81797952D02*
X121118190Y-81750333D01*
X121213428Y-81702714D01*
X121356285Y-81702714D01*
X121451523Y-81750333D01*
X121499142Y-81845571D01*
X121499142Y-82369380D01*
X121975333Y-81702714D02*
X121975333Y-82369380D01*
X121975333Y-81797952D02*
X122022952Y-81750333D01*
X122118190Y-81702714D01*
X122261047Y-81702714D01*
X122356285Y-81750333D01*
X122403904Y-81845571D01*
X122403904Y-82369380D01*
X123594380Y-81321761D02*
X122737238Y-82607476D01*
X123927714Y-82369380D02*
X123927714Y-81369380D01*
X124499142Y-82369380D02*
X124070571Y-81797952D01*
X124499142Y-81369380D02*
X123927714Y-81940809D01*
X124832476Y-81369380D02*
X125499142Y-81369380D01*
X125070571Y-82369380D01*
X126070571Y-81369380D02*
X126165809Y-81369380D01*
X126261047Y-81417000D01*
X126308666Y-81464619D01*
X126356285Y-81559857D01*
X126403904Y-81750333D01*
X126403904Y-81988428D01*
X126356285Y-82178904D01*
X126308666Y-82274142D01*
X126261047Y-82321761D01*
X126165809Y-82369380D01*
X126070571Y-82369380D01*
X125975333Y-82321761D01*
X125927714Y-82274142D01*
X125880095Y-82178904D01*
X125832476Y-81988428D01*
X125832476Y-81750333D01*
X125880095Y-81559857D01*
X125927714Y-81464619D01*
X125975333Y-81417000D01*
X126070571Y-81369380D01*
X127022952Y-81369380D02*
X127118190Y-81369380D01*
X127213428Y-81417000D01*
X127261047Y-81464619D01*
X127308666Y-81559857D01*
X127356285Y-81750333D01*
X127356285Y-81988428D01*
X127308666Y-82178904D01*
X127261047Y-82274142D01*
X127213428Y-82321761D01*
X127118190Y-82369380D01*
X127022952Y-82369380D01*
X126927714Y-82321761D01*
X126880095Y-82274142D01*
X126832476Y-82178904D01*
X126784857Y-81988428D01*
X126784857Y-81750333D01*
X126832476Y-81559857D01*
X126880095Y-81464619D01*
X126927714Y-81417000D01*
X127022952Y-81369380D01*
X127975333Y-81369380D02*
X128070571Y-81369380D01*
X128165809Y-81417000D01*
X128213428Y-81464619D01*
X128261047Y-81559857D01*
X128308666Y-81750333D01*
X128308666Y-81988428D01*
X128261047Y-82178904D01*
X128213428Y-82274142D01*
X128165809Y-82321761D01*
X128070571Y-82369380D01*
X127975333Y-82369380D01*
X127880095Y-82321761D01*
X127832476Y-82274142D01*
X127784857Y-82178904D01*
X127737238Y-81988428D01*
X127737238Y-81750333D01*
X127784857Y-81559857D01*
X127832476Y-81464619D01*
X127880095Y-81417000D01*
X127975333Y-81369380D01*
X128737238Y-81988428D02*
X129499142Y-81988428D01*
X129975333Y-82369380D02*
X129975333Y-81702714D01*
X129975333Y-81893190D02*
X130022952Y-81797952D01*
X130070571Y-81750333D01*
X130165809Y-81702714D01*
X130261047Y-81702714D01*
X130975333Y-82321761D02*
X130880095Y-82369380D01*
X130689619Y-82369380D01*
X130594380Y-82321761D01*
X130546761Y-82226523D01*
X130546761Y-81845571D01*
X130594380Y-81750333D01*
X130689619Y-81702714D01*
X130880095Y-81702714D01*
X130975333Y-81750333D01*
X131022952Y-81845571D01*
X131022952Y-81940809D01*
X130546761Y-82036047D01*
X131451523Y-82369380D02*
X131451523Y-81702714D01*
X131451523Y-81797952D02*
X131499142Y-81750333D01*
X131594380Y-81702714D01*
X131737238Y-81702714D01*
X131832476Y-81750333D01*
X131880095Y-81845571D01*
X131880095Y-82369380D01*
X131880095Y-81845571D02*
X131927714Y-81750333D01*
X132022952Y-81702714D01*
X132165809Y-81702714D01*
X132261047Y-81750333D01*
X132308666Y-81845571D01*
X132308666Y-82369380D01*
X132927714Y-82369380D02*
X132832476Y-82321761D01*
X132784857Y-82274142D01*
X132737238Y-82178904D01*
X132737238Y-81893190D01*
X132784857Y-81797952D01*
X132832476Y-81750333D01*
X132927714Y-81702714D01*
X133070571Y-81702714D01*
X133165809Y-81750333D01*
X133213428Y-81797952D01*
X133261047Y-81893190D01*
X133261047Y-82178904D01*
X133213428Y-82274142D01*
X133165809Y-82321761D01*
X133070571Y-82369380D01*
X132927714Y-82369380D01*
X133546761Y-81702714D02*
X133927714Y-81702714D01*
X133689619Y-81369380D02*
X133689619Y-82226523D01*
X133737238Y-82321761D01*
X133832476Y-82369380D01*
X133927714Y-82369380D01*
X134642000Y-82321761D02*
X134546761Y-82369380D01*
X134356285Y-82369380D01*
X134261047Y-82321761D01*
X134213428Y-82226523D01*
X134213428Y-81845571D01*
X134261047Y-81750333D01*
X134356285Y-81702714D01*
X134546761Y-81702714D01*
X134642000Y-81750333D01*
X134689619Y-81845571D01*
X134689619Y-81940809D01*
X134213428Y-82036047D01*
M02*
